<svg xmlns="http://www.w3.org/2000/svg" xml:space="preserve" viewBox="0 0 1600 1400"><style>.st24{fill:#fff}.st30{fill:#ef5a77}.st39{fill:#f5e9ea}.st40{fill:#1b1a49}</style><g id="TABLE"><g id="XMLID_334_"><linearGradient id="XMLID_5_" x1="391.8" x2="1121" y1="1138.7" y2="1138.7" gradientUnits="userSpaceOnUse"><stop offset="0" stop-color="#7e331a"/><stop offset="1" stop-color="#642b1d"/></linearGradient><path id="XMLID_333_" fill="url(#XMLID_5_)" d="M392 1113h729v51H392z"/><linearGradient id="XMLID_6_" x1="521.7" x2="539.4" y1="939.9" y2="1106.6" gradientUnits="userSpaceOnUse"><stop offset="0" stop-color="#7e331a"/><stop offset="1" stop-color="#642b1d"/></linearGradient><path id="XMLID_823_" fill="url(#XMLID_6_)" d="M392 1113h302v51H392z"/><g id="XMLID_811_"><linearGradient id="XMLID_7_" x1="516.7" x2="653.4" y1="1213.9" y2="1051.8" gradientUnits="userSpaceOnUse"><stop offset="0" stop-color="#7e331a"/><stop offset="1" stop-color="#642b1d"/></linearGradient><path id="XMLID_816_" fill="url(#XMLID_7_)" d="M650 1113c-10 11-25 22-47 29s-40 14-53 22h-40c10-12 26-23 48-28s39-14 51-23h41z"/><linearGradient id="XMLID_8_" x1="586.5" x2="719.1" y1="1261.1" y2="1103.8" gradientUnits="userSpaceOnUse"><stop offset="0" stop-color="#7e331a"/><stop offset="1" stop-color="#642b1d"/></linearGradient><path id="XMLID_817_" fill="url(#XMLID_8_)" d="M694 1130v34h-50l14-17c11-18 32-17 36-17z"/><g id="XMLID_808_"><linearGradient id="XMLID_9_" x1="447.2" x2="582" y1="1161" y2="1001.1" gradientUnits="userSpaceOnUse"><stop offset="0" stop-color="#7e331a"/><stop offset="1" stop-color="#642b1d"/></linearGradient><path id="XMLID_815_" fill="url(#XMLID_9_)" d="M517 1113c-8 16-23 34-51 50l-2 1h-52c11-5 24-13 39-22 15-10 25-20 32-29h34z"/><linearGradient id="XMLID_10_" x1="419.2" x2="551.6" y1="1140.4" y2="983.4" gradientUnits="userSpaceOnUse"><stop offset="0" stop-color="#7e331a"/><stop offset="1" stop-color="#642b1d"/></linearGradient><path id="XMLID_809_" fill="url(#XMLID_10_)" d="M417 1126c-5 4-23 21-10 23 14 3 41-19 39-25-3-9-18-5-29 2z"/></g></g><g id="XMLID_805_"><linearGradient id="XMLID_11_" x1="889.2" x2="1056.9" y1="1230.9" y2="1032.1" gradientUnits="userSpaceOnUse"><stop offset="0" stop-color="#7e331a"/><stop offset="1" stop-color="#642b1d"/></linearGradient><path id="XMLID_818_" fill="url(#XMLID_11_)" d="M1060 1113c-13 11-33 22-62 29-30 7-53 14-70 22h-54c14-12 35-23 64-28s51-14 67-23h55z"/><linearGradient id="XMLID_12_" x1="986.3" x2="1142.7" y1="1280.6" y2="1095.1" gradientUnits="userSpaceOnUse"><stop offset="0" stop-color="#7e331a"/><stop offset="1" stop-color="#642b1d"/></linearGradient><path id="XMLID_814_" fill="url(#XMLID_12_)" d="M1118 1130v34h-67l20-17c13-18 42-17 47-17z"/><g id="XMLID_806_"><linearGradient id="XMLID_13_" x1="792.1" x2="954.7" y1="1164.8" y2="972" gradientUnits="userSpaceOnUse"><stop offset="0" stop-color="#7e331a"/><stop offset="1" stop-color="#642b1d"/></linearGradient><path id="XMLID_813_" fill="url(#XMLID_13_)" d="M883 1113c-10 16-30 34-67 50l-3 1h-69c15-5 32-13 52-22 20-10 34-20 42-29h45z"/><linearGradient id="XMLID_14_" x1="754.9" x2="911.4" y1="1141.6" y2="956" gradientUnits="userSpaceOnUse"><stop offset="0" stop-color="#7e331a"/><stop offset="1" stop-color="#642b1d"/></linearGradient><path id="XMLID_807_" fill="url(#XMLID_14_)" d="M751 1126c-6 4-31 21-13 23 18 3 55-19 52-25-4-9-25-5-39 2z"/></g></g></g></g><g id="LAPTOP"><g id="XMLID_856_"><g id="XMLID_804_"><linearGradient id="XMLID_15_" x1="721" x2="721" y1="1111.2" y2="1076.6" gradientUnits="userSpaceOnUse"><stop offset="0" stop-color="#1e5d5d"/><stop offset="1" stop-color="#0d5475"/></linearGradient><path id="XMLID_311_" fill="url(#XMLID_15_)" d="M935 1101c0 3-2 7-5 9-3 3-8 4-13 4H534c-12 0-22-5-26-13l-1-7v-7h410c10 0 18 6 18 14z"/><linearGradient id="XMLID_16_" x1="721.8" x2="721.8" y1="1044.9" y2="1136.9" gradientUnits="userSpaceOnUse"><stop offset="0" stop-color="#0c4646"/><stop offset="1" stop-color="#0d5475"/></linearGradient><path id="XMLID_307_" fill="url(#XMLID_16_)" d="M935 1101c0 3-2 7-5 9-3 3-8 4-13 4H534c-12 0-22-5-26-13h427z"/><linearGradient id="XMLID_17_" x1="602.5" x2="602.5" y1="1076.2" y2="1124.3" gradientUnits="userSpaceOnUse"><stop offset=".1" stop-color="#24245a"/><stop offset="1" stop-color="#343977"/></linearGradient><path id="XMLID_310_" fill="url(#XMLID_17_)" d="M691 1114H534c-12 0-22-5-26-13l-1-7v-7h178c5 2 10 5 12 11l1 3c1 6-3 11-7 13z"/><linearGradient id="XMLID_18_" x1="603.2" x2="603.2" y1="1088" y2="1146.1" gradientUnits="userSpaceOnUse"><stop offset=".1" stop-color="#24245a"/><stop offset="1" stop-color="#171441"/></linearGradient><path id="XMLID_306_" fill="url(#XMLID_18_)" d="M691 1114H534c-12 0-22-5-26-13h190c1 6-3 11-7 13z"/></g><g id="XMLID_298_"><linearGradient id="XMLID_19_" x1="637.2" x2="641.6" y1="930.1" y2="848.8" gradientUnits="userSpaceOnUse"><stop offset=".1" stop-color="#24245a"/><stop offset="1" stop-color="#171441"/></linearGradient><path id="XMLID_300_" fill="url(#XMLID_19_)" d="M814 1087H507c-4 0-7-2-8-6l-49-179c-6-18-4-27 12-27h298c4 0 7 3 8 7l54 195c1 5-3 10-8 10z"/><linearGradient id="XMLID_20_" x1="569.6" x2="741.8" y1="861.6" y2="1156.7" gradientUnits="userSpaceOnUse"><stop offset=".1" stop-color="#24245a"/><stop offset="1" stop-color="#171441"/></linearGradient><path id="XMLID_275_" fill="url(#XMLID_20_)" d="M819 1087H513c-4 0-7-2-8-6l-54-195c-1-5 3-11 9-11h306c4 0 7 3 8 6l54 195c1 6-3 11-9 11z"/><linearGradient id="XMLID_21_" x1="529.7" x2="695.1" y1="799.6" y2="1073.4" gradientUnits="userSpaceOnUse"><stop offset="0" stop-color="#e0edf3"/><stop offset="1" stop-color="#d1e2ee"/></linearGradient><path id="XMLID_295_" fill="url(#XMLID_21_)" d="M818 1080H515l-54-198h303z"/></g></g></g><g id="SMOKE_1"><g id="XMLID_852_"><g id="XMLID_302_"><linearGradient id="XMLID_22_" x1="585.5" x2="682.8" y1="239.3" y2="1077.2" gradientUnits="userSpaceOnUse"><stop offset="0" stop-color="#fbeceb"/><stop offset="1" stop-color="#e2d9e3"/></linearGradient><path id="XMLID_873_" fill="url(#XMLID_22_)" d="M721 525s-28 130-40 238l-5 82c-5 109-4 239-4 239h-59s-3-105-16-221l-12-89c-23-143-52-227-52-227s-83 27-116-44a80 80 0 0 1-7-53c8-35 39-54 44-57s-30-46 7-80c12-12 25-15 36-16a66 66 0 0 1 40 16s2-62 65-62h2c65 1 63 69 63 69l11-7c14-7 38-15 59 0 27 20 13 61 10 68l-1 1s17-5 35 6c12 8 24 23 31 51 19 71-91 86-91 86z"/><linearGradient id="XMLID_23_" x1="483.6" x2="509.7" y1="809.9" y2="618.4" gradientUnits="userSpaceOnUse"><stop offset="0" stop-color="#fbeceb"/><stop offset="1" stop-color="#e2d9e3"/></linearGradient><path id="XMLID_863_" fill="url(#XMLID_23_)" d="m598 867-1-4-12-89c-23-143-52-227-52-227s-83 27-116-44a80 80 0 0 1-7-53c8 16 23 38 49 44 36 8 50 4 53 2l-30 14c-11 3-18 2-18 2s16 10 48 8 53-12 53-12l31 241c11 88 2 118 2 118z"/><linearGradient id="XMLID_24_" x1="706.9" x2="739.3" y1="813.2" y2="575.3" gradientUnits="userSpaceOnUse"><stop offset="0" stop-color="#fbeceb"/><stop offset="1" stop-color="#e2d9e3"/></linearGradient><path id="XMLID_867_" fill="url(#XMLID_24_)" d="M721 525s-28 130-40 238l-5 82-7 14s-5-19 1-132c7-112 19-215 19-215s11 4 46-6c29-7 49-27 56-35l-10 6c-11 5-29 2-29 2s11-8 28-26c18-19 9-48 1-65 12 8 24 23 31 51 19 71-91 86-91 86z"/><linearGradient id="XMLID_25_" x1="472.4" x2="470.2" y1="290.4" y2="400" gradientUnits="userSpaceOnUse"><stop offset="0" stop-color="#fbeceb"/><stop offset="1" stop-color="#e2d9e3"/></linearGradient><path id="XMLID_861_" fill="url(#XMLID_25_)" d="M463 352s-7 16 4 30 18 17 18 17-15 12-31-6-30-46 7-80c12-12 25-16 36-16-8 8-25 26-19 47 7 28 21 29 21 29s-17 3-27-6c-9-9-9-15-9-15z"/><linearGradient id="XMLID_26_" x1="716.1" x2="714.2" y1="298.7" y2="396.4" gradientUnits="userSpaceOnUse"><stop offset="0" stop-color="#fbeceb"/><stop offset="1" stop-color="#e2d9e3"/></linearGradient><path id="XMLID_868_" fill="url(#XMLID_26_)" d="M747 381c-8 11-16 18-17 19l9-16c7-13 3-38 3-41l-3 17c-3 14-12 16-12 16s8-14-6-43c-10-21-32-21-43-20 14-7 38-15 59 0 27 20 13 61 10 68z"/><linearGradient id="XMLID_27_" x1="627.5" x2="634.4" y1="469.6" y2="655.5" gradientUnits="userSpaceOnUse"><stop offset="0" stop-color="#fbeceb"/><stop offset="1" stop-color="#e2d9e3"/></linearGradient><path id="XMLID_831_" fill="url(#XMLID_27_)" d="M585 550s10 81 14 129l14 120s0-111 2-131l1-47a339 339 0 0 0 9 85l8-69c3-23 6-30 6-30l12 85c4 22 7 52 7 52 4 23 5-103 7-140 2-38 10-78 10-78s-13 30-18 50l-7 25-4-47-4-34c1 0-14 47-15 65l-2 29s-3-34-7-56l-5-22s-7 23-7 41l-1 17s-2-29-8-55-9-31-9-31-5 14-3 42z"/><linearGradient id="XMLID_28_" x1="583.1" x2="562.8" y1="246.1" y2="392" gradientUnits="userSpaceOnUse"><stop offset="0" stop-color="#fbeceb"/><stop offset="1" stop-color="#e2d9e3"/></linearGradient><path id="XMLID_870_" fill="url(#XMLID_28_)" d="M612 336s-24 20-53 1c-16-10-22-19-25-27l3 3s2-62 65-62c-6 2-14 8-19 22-8 21 10 33 10 33s-12 2-21-7l-9-8s-1 16 17 31c19 15 32 14 32 14z"/></g><g id="XMLID_308_"><path id="XMLID_835_" d="m584 390-19 19c-9 9-9 23 0 31l19 20c2 2 2 5 0 7s-5 2-7 0l-20-19c-8-9-22-9-31 0l-19 19c-2 2-6 2-8 0s-2-5 0-7l19-20c9-8 9-22 0-31l-19-19c-2-2-2-6 0-8s6-2 8 0l19 20c9 8 23 8 31 0l20-20c2-2 5-2 7 0s2 6 0 8z" class="st24"/><path id="XMLID_836_" d="m701 440 19 20c2 2 2 5 0 7s-5 2-8 0l-19-19c-8-9-22-9-31 0l-19 19c-2 2-6 2-8 0s-2-5 0-7l19-20c9-8 9-22 0-31l-19-19c-2-2-2-6 0-8s6-2 8 0l19 19c8 9 22 9 31 1l19-20c2-2 6-2 8 0s2 6 0 8l-19 19c-9 9-9 23 0 31z" class="st24"/></g></g></g><g id="SMOKE_2"><g id="XMLID_305_"><linearGradient id="XMLID_29_" x1="576" x2="654.3" y1="348.7" y2="1023.6" gradientUnits="userSpaceOnUse"><stop offset="0" stop-color="#fbeceb"/><stop offset="1" stop-color="#e2d9e3"/></linearGradient><path id="XMLID_866_" fill="url(#XMLID_29_)" d="m866 991-41 76-12 20H558l-8-4-28-18c-16-12-65-37-66-38l62 12 33 8-57-42-58-43c2 0 48 11 71 20l40 14s-35-40-72-79l-56-62c1 1 79 48 106 68l44 30s-30-39-64-90c-33-50-45-64-45-65l104 93 22 21-61-118c1 0 52 49 79 78 26 29 31 29 31 29s15-15 34-42c20-27 38-44 38-44l-29 90-6 19 41-41-11 57 78-80-20 110 49-45 31-31-56 122 66-85-45 114 61-54z"/><g id="XMLID_277_"><linearGradient id="XMLID_30_" x1="629.9" x2="701.7" y1="911.9" y2="1137.7" gradientUnits="userSpaceOnUse"><stop offset="0" stop-color="#fbeceb"/><stop offset="1" stop-color="#e2d9e3"/></linearGradient><path id="XMLID_865_" fill="url(#XMLID_30_)" d="m825 1038-25 49H562l-43-38 59 17s-11-14-29-32c-17-17-35-32-36-33 1 0 31 8 50 15l22 8-43-57-32-39 81 56 12 8s-17-37-34-63l-17-25c1 0 41 34 52 41l11 7s-16-38-27-58c-9-20-17-33-17-33l67 64 44-61-17 78 34-27-16 72 69-70-26 109 66-69-34 111 43-59-24 66 48-37z"/><linearGradient id="XMLID_31_" x1="669.1" x2="660.4" y1="1107.1" y2="953.3" gradientUnits="userSpaceOnUse"><stop offset="0" stop-color="#fbeceb"/><stop offset="1" stop-color="#e2d9e3"/></linearGradient><path id="XMLID_860_" fill="url(#XMLID_31_)" d="M778 1087H576l-19-17 40 8-18-29-15-19 48 16-25-39-9-14 51 28-21-52 41 27 25-37-5 71 49-53-7 85 45-46-7 61 23-10 6 20z"/></g></g></g><g id="SMOKE_3"><g id="XMLID_878_"><linearGradient id="XMLID_32_" x1="604.3" x2="604.3" y1="203.4" y2="302" gradientUnits="userSpaceOnUse"><stop offset="0" stop-color="#fbeceb"/><stop offset="1" stop-color="#e2d9e3"/></linearGradient><path id="XMLID_324_" fill="url(#XMLID_32_)" d="M604 195c-76 0-137 8-137 17 0 10 61 18 137 18s138-8 138-18c0-9-62-17-138-17zm0 23c-56 0-102-4-102-9 0-4 46-8 102-8 57 0 102 4 102 9 1 4-45 8-102 8z"/><linearGradient id="XMLID_33_" x1="604.3" x2="604.3" y1="159.6" y2="258.2" gradientUnits="userSpaceOnUse"><stop offset="0" stop-color="#fbeceb"/><stop offset="1" stop-color="#e2d9e3"/></linearGradient><path id="XMLID_819_" fill="url(#XMLID_33_)" d="M604 151c-106 0-193 8-193 17 0 10 87 18 193 18 107 0 193-8 193-17 0-10-86-18-193-18zm0 23c-79 0-143-3-143-8s64-9 143-9 144 4 144 9-64 8-144 8z"/></g></g><g id="ORNAMENT_1"><g id="XMLID_955_"><g id="XMLID_935_"><path id="XMLID_157_" d="m451 723-21 10 33 30 10-7z" class="st30"/><path id="XMLID_937_" d="m278 816-3 12 24-2 1-7z" class="st30"/><path id="XMLID_950_" d="m336 943-6 17 35-3 1-10z" class="st30"/></g><g id="XMLID_956_"><path id="XMLID_961_" d="m833 784 20 10-33 30-10-7z" class="st30"/><path id="XMLID_960_" d="m1005 877 4 12-24-2-1-7z" class="st30"/><path id="XMLID_958_" d="m938 974 6 17-35-3-1-10z" class="st30"/></g></g></g><g id="ORNAMENT_2"><g id="XMLID_2_"><g id="XMLID_952_"><linearGradient id="XMLID_34_" x1="870.2" x2="1023.4" y1="648.4" y2="1072.6" gradientTransform="rotate(30 892 827)" gradientUnits="userSpaceOnUse"><stop offset="0" stop-color="#fbeceb"/><stop offset="1" stop-color="#e2d9e3"/></linearGradient><path id="XMLID_954_" fill="url(#XMLID_34_)" d="M988 835s-19 2-58 13c-38 12-63 26-63 26l69-46c29-18 48-27 48-27l4 34z"/><linearGradient id="XMLID_35_" x1="971.9" x2="975.6" y1="710.7" y2="959" gradientTransform="rotate(30 892 827)" gradientUnits="userSpaceOnUse"><stop offset=".1" stop-color="#24245a"/><stop offset="1" stop-color="#343977"/></linearGradient><circle id="XMLID_953_" cx="990.4" cy="817" r="17.8" fill="url(#XMLID_35_)"/></g><g id="XMLID_1_"><g id="XMLID_303_"><linearGradient id="XMLID_36_" x1="287.2" x2="434.2" y1="681.1" y2="1088.1" gradientTransform="rotate(-7 458 747)" gradientUnits="userSpaceOnUse"><stop offset="0" stop-color="#fbeceb"/><stop offset="1" stop-color="#e2d9e3"/></linearGradient><path id="XMLID_315_" fill="url(#XMLID_36_)" d="m236 726 90 46c40 20 65 40 65 40l-68-64c-28-26-75-60-75-60l-12 38z"/><linearGradient id="XMLID_37_" x1="224.4" x2="264.5" y1="677.5" y2="677.5" gradientTransform="rotate(-7 458 747)" gradientUnits="userSpaceOnUse"><stop offset=".1" stop-color="#24245a"/><stop offset="1" stop-color="#343977"/></linearGradient><circle id="XMLID_313_" cx="237.4" cy="705.3" r="20.1" fill="url(#XMLID_37_)"/></g><g id="XMLID_309_"><linearGradient id="XMLID_38_" x1="701.1" x2="822" y1="541.1" y2="875.8" gradientTransform="rotate(-3 798 698)" gradientUnits="userSpaceOnUse"><stop offset="0" stop-color="#fbeceb"/><stop offset="1" stop-color="#e2d9e3"/></linearGradient><path id="XMLID_318_" fill="url(#XMLID_38_)" d="M785 651s-12 9-33 33c-20 24-31 44-31 44l27-60c11-25 20-38 20-38l17 21z"/><linearGradient id="XMLID_39_" x1="781.3" x2="784.2" y1="590.3" y2="786.2" gradientTransform="rotate(-3 798 698)" gradientUnits="userSpaceOnUse"><stop offset=".1" stop-color="#24245a"/><stop offset="1" stop-color="#343977"/></linearGradient><circle id="XMLID_319_" cx="779" cy="637.8" r="14.1" fill="url(#XMLID_39_)"/></g><g id="XMLID_304_"><linearGradient id="XMLID_40_" x1="247" x2="367.9" y1="740.7" y2="1075.4" gradientUnits="userSpaceOnUse"><stop offset="0" stop-color="#fbeceb"/><stop offset="1" stop-color="#e2d9e3"/></linearGradient><path id="XMLID_316_" fill="url(#XMLID_40_)" d="M282 1013s18-6 56-12c38-5 65-3 65-3l-78-12-53-5 10 32z"/><linearGradient id="XMLID_41_" x1="256.1" x2="290.3" y1="998.3" y2="998.3" gradientUnits="userSpaceOnUse"><stop offset=".1" stop-color="#24245a"/><stop offset="1" stop-color="#343977"/></linearGradient><circle id="XMLID_317_" cx="273.2" cy="998.3" r="17.1" fill="url(#XMLID_41_)"/></g></g></g></g><g id="ORNAMENT_3"><g id="XMLID_857_"><g id="XMLID_312_"><g id="XMLID_827_"><path id="XMLID_830_" d="M406 663c-5-17-33-15-31 7 3 23 37 13 31-7z" class="st39"/><path id="XMLID_829_" d="M435 621c-3-8-15-4-16 5 0 10 21 9 16-5z" class="st39"/><path id="XMLID_828_" d="M431 689c-3-6-12-5-12 1-1 5 3 8 8 8s5-7 4-9z" class="st39"/></g><g id="XMLID_822_"><path id="XMLID_826_" d="M451 674c7-5 2-18-8-14s-1 20 8 14z" class="st39"/><path id="XMLID_825_" d="M395 621c4-3 0-9-6-8-5 2-1 14 6 8z" class="st39"/><path id="XMLID_824_" d="M369 636c3-3 1-8-2-8-4 1-4 4-4 7s5 2 6 1z" class="st39"/></g></g><g id="XMLID_843_"><g id="XMLID_848_"><path id="XMLID_851_" d="M907 745c-4-12-24-10-22 5s26 10 22-5z" class="st39"/><path id="XMLID_850_" d="M865 742c-3-6-11-3-11 4-1 7 15 6 11-4z" class="st39"/><path id="XMLID_849_" d="M923 772c-3-4-9-4-9 1-1 4 2 5 6 5s3-4 3-6z" class="st39"/></g><g id="XMLID_844_"><path id="XMLID_847_" d="M914 732c5-4 2-13-6-10-7 3 0 14 6 10z" class="st39"/><path id="XMLID_846_" d="M905 695c6-4 0-13-9-11-8 1-2 20 9 11z" class="st39"/><path id="XMLID_845_" d="M880 725c2-2 1-5-2-5s-3 3-2 5 3 1 4 0z" class="st39"/></g></g><g id="XMLID_832_"><g id="XMLID_839_"><path id="XMLID_842_" d="M798 306c8 8 23-2 15-14s-25 4-15 14z" class="st39"/><path id="XMLID_841_" d="M753 283c5 5 11-2 8-9s-17 2-8 9z" class="st39"/><path id="XMLID_840_" d="M813 331c4 3 9-1 8-5s-6-4-9-2-1 6 1 7z" class="st39"/></g><g id="XMLID_833_"><path id="XMLID_838_" d="M781 323c-3 6 5 13 10 7 6-7-6-14-10-7z" class="st39"/><path id="XMLID_837_" d="M829 304c-2 3 3 6 7 3 3-3-4-10-7-3z" class="st39"/><path id="XMLID_834_" d="M783 275c-1 3 2 5 4 4s2-4 0-6c-2-1-4 1-4 2z" class="st39"/></g></g><g id="XMLID_858_"><g id="XMLID_874_"><path id="XMLID_877_" d="M385 380c-8 2-8 15 2 15 11 0 8-17-2-15z" class="st39"/><path id="XMLID_876_" d="M417 362c-4 1-3 8 2 9 6 1 7-11-2-9z" class="st39"/><path id="XMLID_875_" d="M364 379c-4 1-4 6 0 7 3 0 4-2 5-5 0-2-4-3-5-2z" class="st39"/></g><g id="XMLID_859_"><path id="XMLID_872_" d="M382 363c-3-5-10-3-9 3 2 6 11 2 9-3z" class="st39"/><path id="XMLID_871_" d="M374 400c-2-3-5-1-5 2s7 2 5-2z" class="st39"/><path id="XMLID_869_" d="M410 384c-1-2-4-1-4 1s2 2 3 2c2 0 2-3 1-3z" class="st39"/></g></g></g></g><g id="OBJECT_1"><g id="XMLID_327_"><g id="XMLID_321_"><g id="XMLID_320_"><path id="XMLID_314_" d="m849 485 5-3 9 13c4 5 3 12-2 16l-8 6-3-4 5-4c4-4 5-10 1-14l-7-10z" class="st40"/></g><g id="XMLID_325_"><path id="XMLID_326_" d="m866 474-5 4 10 12c4 5 12 6 17 2l8-6-3-4-6 4c-4 3-10 2-14-2l-7-10z" class="st40"/></g></g><g id="XMLID_328_"><g id="XMLID_331_"><path id="XMLID_332_" d="m903 523-4 4-10-13c-4-6-3-13 3-17l7-6 4 4-6 5c-4 3-4 9-1 13l7 10z" class="st40"/></g><g id="XMLID_329_"><path id="XMLID_330_" d="m887 534 5-3-11-13c-4-5-11-6-17-2l-7 6 3 5 6-4c4-3 10-2 13 2l8 9z" class="st40"/></g></g></g></g><g id="OBJECT_2"><g id="XMLID_301_"><linearGradient id="XMLID_42_" x1="995.3" x2="911.1" y1="242.8" y2="784.5" gradientUnits="userSpaceOnUse"><stop offset=".1" stop-color="#ee5a77"/><stop offset="1" stop-color="#801c56"/></linearGradient><path id="XMLID_256_" fill="url(#XMLID_42_)" d="m958 234 21 207 24 2 14-208z"/><linearGradient id="XMLID_43_" x1="1024.2" x2="943.6" y1="256.1" y2="774.1" gradientUnits="userSpaceOnUse"><stop offset=".1" stop-color="#ee5a77"/><stop offset="1" stop-color="#801c56"/></linearGradient><circle id="XMLID_261_" cx="990.2" cy="474.4" r="14.1" fill="url(#XMLID_43_)"/><linearGradient id="XMLID_44_" x1="1076.5" x2="995.9" y1="264.2" y2="782.2" gradientUnits="userSpaceOnUse"><stop offset=".1" stop-color="#ee5a77"/><stop offset="1" stop-color="#801c56"/></linearGradient><circle id="XMLID_278_" cx="1043.2" cy="478.2" r="12" fill="url(#XMLID_44_)"/><linearGradient id="XMLID_45_" x1="1093.5" x2="1012.9" y1="268" y2="786" gradientUnits="userSpaceOnUse"><stop offset=".1" stop-color="#ee5a77"/><stop offset="1" stop-color="#801c56"/></linearGradient><path id="XMLID_262_" fill="url(#XMLID_45_)" d="m1067 354 33 14-42 87-15-5z"/></g></g><g id="RIGHT_ARM_2"><g id="XMLID_801_"><g id="XMLID_793_"><linearGradient id="XMLID_46_" x1="1197.2" x2="1266.9" y1="459.9" y2="607.9" gradientUnits="userSpaceOnUse"><stop offset=".1" stop-color="#f7afaa"/><stop offset=".9" stop-color="#e58880"/></linearGradient><path id="XMLID_936_" fill="url(#XMLID_46_)" d="m1267 559-4 7c-4 6-12 13-21 15h-10l-30-52s-16-1-35-16c-16-12-24-21-26-28v-4c1-6 5-4 8-1l3 2c5 4 13 9 21 7 9-2 14-16 13-34-2-25-14-37-10-41v-1c4-3 13 5 18 16l7 24 1 2c1 0 3-12 2-30-1-17-5-31-2-34l1-1c4-1 11 12 13 29a733 733 0 0 1 4 37c0 1 4-4 6-10 3-6 4-22 4-29-1-4 0-7 1-7 2-1 3-1 4 1 2 4 5 12 5 24 0 13-5 26-4 27 0 1 5-6 7-17 2-10 4-17 6-18l2 2c1 3 3 10 1 21-3 16-6 28-14 42-7 13-6 19-4 23l33 44z"/><linearGradient id="XMLID_47_" x1="1176.5" x2="1265.7" y1="543" y2="491.9" gradientUnits="userSpaceOnUse"><stop offset=".1" stop-color="#f7afaa"/><stop offset=".9" stop-color="#e58880"/></linearGradient><path id="XMLID_922_" fill="url(#XMLID_47_)" d="m1267 559-4 7-10 2s-23-33-28-50c-5-18 13-35 21-56 6-15 5-28 5-33 1 3 3 10 1 21-3 16-6 28-14 42-7 13-6 19-4 23l33 44z"/><linearGradient id="XMLID_48_" x1="1188.6" x2="1233" y1="456.7" y2="431.2" gradientUnits="userSpaceOnUse"><stop offset=".1" stop-color="#f7afaa"/><stop offset=".9" stop-color="#e58880"/></linearGradient><path id="XMLID_918_" fill="url(#XMLID_48_)" d="M1233 421c0 10-1 21-3 30-3 9-10 10-10 7l-1-2c1 1 5-4 7-10s4-22 3-29c0-4 1-7 2-7 1 1 2 5 2 11z"/><linearGradient id="XMLID_49_" x1="1197.1" x2="1204.6" y1="376.8" y2="439.4" gradientUnits="userSpaceOnUse"><stop offset=".1" stop-color="#f7afaa"/><stop offset=".9" stop-color="#e58880"/></linearGradient><path id="XMLID_926_" fill="url(#XMLID_49_)" d="M1208 453c-1 7-5 8-7 2v-2l1 2c1 0 3-12 2-30-2-17-5-31-2-34 1 2 4 11 6 27 2 22 1 29 0 35z"/><linearGradient id="XMLID_50_" x1="1157.4" x2="1210.6" y1="430.3" y2="559" gradientUnits="userSpaceOnUse"><stop offset=".1" stop-color="#f7afaa"/><stop offset=".9" stop-color="#e58880"/></linearGradient><path id="XMLID_930_" fill="url(#XMLID_50_)" d="M1189 482c-4 11-16 12-23 10-6-1-14-9-17-12l3 2c5 4 12 9 21 7 8-3 14-17 12-34-1-25-13-38-9-42 3 4 9 12 12 24 3 16 4 33 1 45z"/><linearGradient id="XMLID_51_" x1="1182.4" x2="1194.2" y1="457.7" y2="556" gradientUnits="userSpaceOnUse"><stop offset=".1" stop-color="#f7afaa"/><stop offset=".9" stop-color="#e58880"/></linearGradient><path id="XMLID_931_" fill="url(#XMLID_51_)" d="M1242 581h-10l-30-52s-16-1-35-16c-16-13-24-21-26-28 4 5 10 13 22 21 21 15 39 16 39 16l40 59z"/><g id="XMLID_791_"><linearGradient id="XMLID_52_" x1="1236.4" x2="1260" y1="544.7" y2="586.1" gradientUnits="userSpaceOnUse"><stop offset=".1" stop-color="#ee5a77"/><stop offset="1" stop-color="#801c56"/></linearGradient><path id="XMLID_299_" fill="url(#XMLID_52_)" d="M1282 565s-30 3-49 32l-11-23-4-8s2-13 14-20c12-8 27-6 27-6l16 18 7 7z"/><linearGradient id="XMLID_53_" x1="1237" x2="1258" y1="538.5" y2="583.1" gradientUnits="userSpaceOnUse"><stop offset=".1" stop-color="#ee5a77"/><stop offset="1" stop-color="#801c56"/></linearGradient><path id="XMLID_296_" fill="url(#XMLID_53_)" d="M1282 565s-30 3-49 32l-11-23a69 69 0 0 1 53-16l7 7z"/></g></g><g id="XMLID_284_"><linearGradient id="XMLID_54_" x1="1264.5" x2="1368.9" y1="566.3" y2="758.6" gradientUnits="userSpaceOnUse"><stop offset=".1" stop-color="#f7b142"/><stop offset="1" stop-color="#ef794a"/></linearGradient><path id="XMLID_297_" fill="url(#XMLID_54_)" d="M1400 719c-2 16-13 26-29 32-6 3-14 5-22 6-26 4-48-23-61-39-19-24-28-47-43-82l-17-41s1-5 9-12l9-7c5-4 11-7 16-9l18-6 74 78c25 26 43 48 46 69v11z"/><linearGradient id="XMLID_55_" x1="1301.6" x2="1298.7" y1="517.2" y2="739.7" gradientUnits="userSpaceOnUse"><stop offset=".1" stop-color="#f7b142"/><stop offset="1" stop-color="#ef794a"/></linearGradient><path id="XMLID_294_" fill="url(#XMLID_55_)" d="m1372 751-23 6c-26 4-48-23-61-39-19-25-28-47-43-82l-17-41s1-5 9-12c6 19 26 81 67 120 32 29 51 42 68 48z"/><linearGradient id="XMLID_56_" x1="1371" x2="1295.5" y1="708.7" y2="567.2" gradientUnits="userSpaceOnUse"><stop offset=".1" stop-color="#f7b142"/><stop offset="1" stop-color="#fad58d"/></linearGradient><path id="XMLID_292_" fill="url(#XMLID_56_)" d="M1400 708c-8-14-22-31-54-63-36-37-71-67-84-78l18-6 74 78c25 26 43 49 46 69z"/></g></g></g><g id="RIGHT_ARM_1"><g id="XMLID_282_"><linearGradient id="XMLID_57_" x1="1385.1" x2="1199.6" y1="1160.2" y2="592.8" gradientUnits="userSpaceOnUse"><stop offset=".1" stop-color="#f7b142"/><stop offset="1" stop-color="#ef794a"/></linearGradient><path id="XMLID_285_" fill="url(#XMLID_57_)" d="M1392 739c-19 27-70 57-115 76-39 17-145 46-166-1l-3-8c-18-42-19-71 14-95 19-15 49-17 100-19 52-3 126-12 151-5 15 4 26 13 28 26 1 8-2 16-9 26z"/><linearGradient id="XMLID_58_" x1="1156" x2="1316.4" y1="696.3" y2="699.1" gradientTransform="rotate(2 1134 715)" gradientUnits="userSpaceOnUse"><stop offset=".1" stop-color="#f7b142"/><stop offset="1" stop-color="#f28948"/></linearGradient><path id="XMLID_854_" fill="url(#XMLID_58_)" d="M1184 698c-21 3-6 19 19 17 37-2 173-22 149-25-23-4-128 2-168 8z"/><linearGradient id="XMLID_59_" x1="1126.2" x2="1269.7" y1="626.6" y2="780" gradientUnits="userSpaceOnUse"><stop offset=".1" stop-color="#f7b142"/><stop offset="1" stop-color="#ef794a"/></linearGradient><path id="XMLID_280_" fill="url(#XMLID_59_)" d="M1392 739c-19 27-93 72-128 84-60 20-131 38-153-9l-12-27c27 1 123 9 188-15 66-24 100-48 114-59 1 8-2 16-9 26z"/></g></g><g id="BODY"><g id="XMLID_84_"><linearGradient id="XMLID_60_" x1="1161" x2="963.3" y1="1269" y2="664.2" gradientUnits="userSpaceOnUse"><stop offset=".1" stop-color="#f7b142"/><stop offset="1" stop-color="#ef794a"/></linearGradient><path id="XMLID_796_" fill="url(#XMLID_60_)" d="M1305 1171s-35 59-143 73c-54 7-112 6-146-1-53-11-81-31-81-31s31-93 36-142c6-49 3-63 3-63s-43-50-53-70c-12-23-27-68-15-108 7-26 3-40 64-63l15-4 48-14c71-27 70-39 96-47 17-5 44 14 69 63 12 24 24 54 34 92 4 15 7 41 9 71 5 67 5 150 5 150l59 94z"/><linearGradient id="XMLID_61_" x1="1185" x2="1242" y1="1173.5" y2="1069" gradientUnits="userSpaceOnUse"><stop offset=".1" stop-color="#f7b142"/><stop offset="1" stop-color="#fad58d"/></linearGradient><path id="XMLID_853_" fill="url(#XMLID_61_)" d="M1246 1086s-14 14-59 32c-46 18-95 16-88 22 8 7 91 0 130 6s67 17 67 17l-50-77z"/><linearGradient id="XMLID_62_" x1="1136.3" x2="1153.7" y1="814.8" y2="1156.3" gradientUnits="userSpaceOnUse"><stop offset=".1" stop-color="#f7b142"/><stop offset="1" stop-color="#ef794a"/></linearGradient><path id="XMLID_794_" fill="url(#XMLID_62_)" d="M1247 1077s-19 22-75 38-119 11-119 11 85-47 130-110c25-34 45-67 58-90 5 68 6 151 6 151z"/><linearGradient id="XMLID_63_" x1="1022.6" x2="958.7" y1="1279.4" y2="983.4" gradientUnits="userSpaceOnUse"><stop offset=".1" stop-color="#f7b142"/><stop offset="1" stop-color="#ef794a"/></linearGradient><path id="XMLID_864_" fill="url(#XMLID_63_)" d="M1016 1243c-53-11-81-31-81-31l11-36c10-31 22-77 25-106 6-49 3-63 3-63s-43-50-53-70l-3-6c-11-24-23-65-12-102 19-4 83-28 90 23 16 116 39 145 39 145s-17 67-24 150c-3 37 0 71 5 96z"/><linearGradient id="XMLID_64_" x1="1013.7" x2="1070.8" y1="598.9" y2="731.1" gradientUnits="userSpaceOnUse"><stop offset=".1" stop-color="#f7b142"/><stop offset="1" stop-color="#ef794a"/></linearGradient><path id="XMLID_788_" fill="url(#XMLID_64_)" d="M1193 811c-20 46-111 105-168 54-38-35-37-86-33-105l41-12c71-27 70-39 96-47 18-6 44 14 69 63 2 16 2 32-5 47z"/><linearGradient id="XMLID_65_" x1="907.8" x2="975.2" y1="1046.9" y2="1048.1" gradientUnits="userSpaceOnUse"><stop offset=".1" stop-color="#f7b142"/><stop offset="1" stop-color="#f49449"/></linearGradient><path id="XMLID_862_" fill="url(#XMLID_65_)" d="M992 1000s-5 9-11 49c-5 40-12 75-20 99-5 15-11 23-15 28 10-32 22-77 25-106 6-50 3-63 3-63s-43-50-53-70l-3-6v-7c-2-12 13-5 34 27s40 49 40 49z"/></g></g><g id="LEFT_ARM_1"><g id="XMLID_880_"><linearGradient id="XMLID_66_" x1="941.7" x2="857" y1="874.5" y2="1028.7" gradientTransform="rotate(13 856 887)" gradientUnits="userSpaceOnUse"><stop offset=".1" stop-color="#fdf9cb"/><stop offset="1" stop-color="#f0bf7c"/></linearGradient><path id="XMLID_881_" fill="url(#XMLID_66_)" d="m919 922-69 54 77-44c20-14 6-23-8-10z"/><linearGradient id="XMLID_67_" x1="976.9" x2="918.7" y1="956.4" y2="1062.2" gradientTransform="rotate(34 872 917)" gradientUnits="userSpaceOnUse"><stop offset=".1" stop-color="#fdf9cb"/><stop offset="1" stop-color="#f0bf7c"/></linearGradient><path id="XMLID_891_" fill="url(#XMLID_67_)" d="M915 1020c-6 3-57 17-58 18l61-9c16-4 9-13-3-9z"/><linearGradient id="XMLID_68_" x1="851.2" x2="779.1" y1="815.9" y2="947.1" gradientTransform="rotate(5 800 840)" gradientUnits="userSpaceOnUse"><stop offset=".1" stop-color="#fdf9cb"/><stop offset="1" stop-color="#f0bf7c"/></linearGradient><path id="XMLID_882_" fill="url(#XMLID_68_)" d="m829 848-44 53 55-42c22-21 3-29-11-11z"/><linearGradient id="XMLID_69_" x1="537.8" x2="482.2" y1="680.7" y2="782" gradientTransform="rotate(-92 526 811)" gradientUnits="userSpaceOnUse"><stop offset=".1" stop-color="#fdf9cb"/><stop offset="1" stop-color="#f0bf7c"/></linearGradient><path id="XMLID_887_" fill="url(#XMLID_69_)" d="m418 819 44 28-37-38c-18-15-22 0-7 10z"/><linearGradient id="XMLID_70_" x1="508.1" x2="417.2" y1="595.5" y2="761" gradientTransform="rotate(-106 520 816)" gradientUnits="userSpaceOnUse"><stop offset=".1" stop-color="#fdf9cb"/><stop offset="1" stop-color="#f0bf7c"/></linearGradient><path id="XMLID_888_" fill="url(#XMLID_70_)" d="m355 904 82 27c1 0-63-39-75-45-34-17-35 9-7 18z"/><linearGradient id="XMLID_71_" x1="407" x2="338.8" y1="578" y2="702.2" gradientTransform="rotate(-127 496 832)" gradientUnits="userSpaceOnUse"><stop offset=".1" stop-color="#fdf9cb"/><stop offset="1" stop-color="#f0bf7c"/></linearGradient><path id="XMLID_895_" fill="url(#XMLID_71_)" d="m383 1057 65-4-64-11c-29-2-22 16-1 15z"/><linearGradient id="XMLID_72_" x1="808" x2="684.3" y1="681.5" y2="906.8" gradientTransform="rotate(-20 788 806)" gradientUnits="userSpaceOnUse"><stop offset=".1" stop-color="#fdf9cb"/><stop offset="1" stop-color="#f0bf7c"/></linearGradient><path id="XMLID_883_" fill="url(#XMLID_72_)" d="m748 743-29 113 50-105c20-48-10-46-21-8z"/><linearGradient id="XMLID_73_" x1="677.8" x2="560.8" y1="531.2" y2="744.1" gradientTransform="rotate(-74 661 743)" gradientUnits="userSpaceOnUse"><stop offset=".1" stop-color="#fdf9cb"/><stop offset="1" stop-color="#f0bf7c"/></linearGradient><path id="XMLID_884_" fill="url(#XMLID_73_)" d="m499 700 68 103-55-112c-16-27-28-10-13 9z"/></g><g id="XMLID_287_"><linearGradient id="XMLID_74_" x1="582.5" x2="1067.1" y1="1038.8" y2="789.3" gradientUnits="userSpaceOnUse"><stop offset=".1" stop-color="#f7b142"/><stop offset="1" stop-color="#ef794a"/></linearGradient><path id="XMLID_290_" fill="url(#XMLID_74_)" d="M997 856v4c-3 37-31 71-112 88-88 18-129 19-144-10-2-2-2-4-3-7-2-6-1-12 4-20 26-44 168-118 188-127 24-10 56 5 65 51 2 7 2 14 2 21z"/><linearGradient id="XMLID_75_" x1="760.9" x2="856" y1="766.6" y2="881.9" gradientUnits="userSpaceOnUse"><stop offset=".1" stop-color="#f7b142"/><stop offset="1" stop-color="#ef794a"/></linearGradient><path id="XMLID_276_" fill="url(#XMLID_75_)" d="M997 856v4c-3 37-31 71-112 88-88 18-129 19-144-10-2-2-2-4-3-7-2-6-1-12 4-20 31 15 77 19 127 4 78-23 118-51 128-59z"/><linearGradient id="XMLID_76_" x1="804.6" x2="952.1" y1="808.9" y2="811.5" gradientTransform="rotate(160 888 814)" gradientUnits="userSpaceOnUse"><stop offset=".1" stop-color="#f7b142"/><stop offset="1" stop-color="#f49449"/></linearGradient><path id="XMLID_855_" fill="url(#XMLID_76_)" d="M942 801c17-10 6-22-15-12-30 13-146 80-124 75 21-5 108-45 139-63z"/></g></g><g id="LEFT_ARM_2"><g id="XMLID_798_"><g id="XMLID_795_"><g id="XMLID_917_"><linearGradient id="XMLID_77_" x1="871.3" x2="940.9" y1="472.9" y2="620.9" gradientTransform="matrix(0 1 1 0 623 -360)" gradientUnits="userSpaceOnUse"><stop offset=".1" stop-color="#f7afaa"/><stop offset=".9" stop-color="#e58880"/></linearGradient><path id="XMLID_912_" fill="url(#XMLID_77_)" d="M675 740h8c7-1 18-4 24-11l4-9-31-52s7-14 3-38c-4-20-7-31-12-36l-4-2c-6-3-5 2-4 7v3c1 6 2 15-4 22-6 6-21 4-36-5-21-13-26-30-32-29v1c-5 1-2 14 5 22l18 18 1 2c0 1-12-3-27-12-14-10-25-20-29-19l-1 1c-3 3 5 16 19 25a675 675 0 0 0 31 21c1 1-6 2-12 1s-21-7-27-11l-7-2c-2 1-2 2-1 4 3 4 8 10 19 16s25 8 25 9c1 1-7 2-18-1-10-4-16-5-18-4v2c2 3 7 8 18 11 16 6 28 8 43 8 16 0 21 4 23 8l22 50z"/><linearGradient id="XMLID_78_" x1="850.6" x2="939.8" y1="556" y2="504.9" gradientTransform="matrix(0 1 1 0 623 -360)" gradientUnits="userSpaceOnUse"><stop offset=".1" stop-color="#f7afaa"/><stop offset=".9" stop-color="#e58880"/></linearGradient><path id="XMLID_907_" fill="url(#XMLID_78_)" d="M675 740h8l7-8s-18-36-31-49c-13-12-37-5-59-8-16-2-27-8-31-12 1 3 7 8 18 11 16 6 27 9 43 9s20 4 23 7l22 50z"/><linearGradient id="XMLID_79_" x1="862.6" x2="907.1" y1="469.7" y2="444.2" gradientTransform="matrix(0 1 1 0 623 -360)" gradientUnits="userSpaceOnUse"><stop offset=".1" stop-color="#f7afaa"/><stop offset=".9" stop-color="#e58880"/></linearGradient><path id="XMLID_906_" fill="url(#XMLID_79_)" d="M571 644c8 5 18 10 28 12 9 2 13-4 11-6l-2-1c0 1-6 2-12 1-7-1-21-7-28-11-3-2-5-2-7-2 2 2 4 5 10 7z"/><linearGradient id="XMLID_80_" x1="871.2" x2="878.7" y1="389.8" y2="452.4" gradientTransform="matrix(0 1 1 0 623 -360)" gradientUnits="userSpaceOnUse"><stop offset=".1" stop-color="#f7afaa"/><stop offset=".9" stop-color="#e58880"/></linearGradient><path id="XMLID_899_" fill="url(#XMLID_80_)" d="M611 638c6 2 9-1 5-6l-2-1 1 2c0 1-12-3-27-13-14-9-25-19-29-18a147 147 0 0 0 52 36z"/><linearGradient id="XMLID_81_" x1="831.4" x2="884.6" y1="443.4" y2="572" gradientTransform="matrix(0 1 1 0 623 -360)" gradientUnits="userSpaceOnUse"><stop offset=".1" stop-color="#f7afaa"/><stop offset=".9" stop-color="#e58880"/></linearGradient><path id="XMLID_257_" fill="url(#XMLID_81_)" d="M645 634c12 2 18-8 20-15 2-6-1-17-2-20v4c1 5 2 15-4 21s-21 4-36-5c-21-13-26-30-32-28 2 4 6 14 15 22 13 10 27 19 39 21z"/><linearGradient id="XMLID_82_" x1="856.5" x2="868.2" y1="470.7" y2="569" gradientTransform="matrix(0 1 1 0 623 -360)" gradientUnits="userSpaceOnUse"><stop offset=".1" stop-color="#f7afaa"/><stop offset=".9" stop-color="#e58880"/></linearGradient><path id="XMLID_254_" fill="url(#XMLID_82_)" d="m707 729 4-9-31-52s7-14 3-38c-4-20-7-31-12-36 3 6 6 15 8 29 2 26-6 42-6 42l34 64z"/></g><g id="XMLID_792_"><linearGradient id="XMLID_83_" x1="674.8" x2="713.9" y1="696" y2="764.9" gradientUnits="userSpaceOnUse"><stop offset=".1" stop-color="#ee5a77"/><stop offset="1" stop-color="#801c56"/></linearGradient><path id="XMLID_293_" fill="url(#XMLID_83_)" d="M731 729s-30-5-60 25l-11-26-3-7s1-15 19-22c19-7 31-3 31-3l13 19 11 14z"/><linearGradient id="XMLID_85_" x1="681.5" x2="698.2" y1="690.4" y2="736.2" gradientUnits="userSpaceOnUse"><stop offset=".1" stop-color="#ee5a77"/><stop offset="1" stop-color="#801c56"/></linearGradient><path id="XMLID_289_" fill="url(#XMLID_85_)" d="M731 729s-30-5-60 25l-11-26a87 87 0 0 1 60-13l11 14z"/></g></g><g id="XMLID_782_"><linearGradient id="XMLID_86_" x1="618.3" x2="943.3" y1="637" y2="1147.8" gradientUnits="userSpaceOnUse"><stop offset=".1" stop-color="#f7b142"/><stop offset="1" stop-color="#ef794a"/></linearGradient><path id="XMLID_291_" fill="url(#XMLID_86_)" d="m826 944-10 10c-10 6-21 8-32 8-14-1-26-6-31-9-10-5-15-10-29-48l-55-148c1 0 1-9 11-19l10-8c13-9 24-10 30-10l8 1 44 53c28 36 46 58 59 95 3 8 17 46-5 75z"/><linearGradient id="XMLID_87_" x1="795.7" x2="730" y1="851.7" y2="663.1" gradientUnits="userSpaceOnUse"><stop offset=".1" stop-color="#f38f49"/><stop offset="1" stop-color="#fad58d"/></linearGradient><path id="XMLID_283_" fill="url(#XMLID_87_)" d="m826 944-10 10c1-8 2-32-17-90-18-56-59-118-79-144l8 1 44 53c28 36 46 58 59 95 3 8 17 46-5 75z"/><linearGradient id="XMLID_88_" x1="684.9" x2="750.7" y1="693.5" y2="952.7" gradientUnits="userSpaceOnUse"><stop offset=".1" stop-color="#f7b142"/><stop offset="1" stop-color="#ef794a"/></linearGradient><path id="XMLID_286_" fill="url(#XMLID_88_)" d="M784 962c-14-1-26-6-31-9-10-5-15-10-29-48l-55-148c1 0 1-9 11-19 12 43 46 162 76 196 10 12 19 22 28 28z"/></g></g></g><g id="HEAD"><g id="XMLID_3_"><g id="XMLID_803_"><g id="XMLID_255_"><linearGradient id="XMLID_89_" x1="946.2" x2="1078.3" y1="663.8" y2="663.8" gradientUnits="userSpaceOnUse"><stop offset=".1" stop-color="#f7afaa"/><stop offset=".9" stop-color="#e58880"/></linearGradient><path id="XMLID_812_" fill="url(#XMLID_89_)" d="M1058 740c-11 6-31 5-52-9a140 140 0 0 1-53-64c-9-23-8-40-2-53 6-10 15-18 25-22 59-24 85 9 97 46 12 36 3 93-15 102z"/><linearGradient id="XMLID_90_" x1="987.3" x2="1015.1" y1="578.8" y2="659.2" gradientUnits="userSpaceOnUse"><stop offset=".1" stop-color="#f7afaa"/><stop offset=".9" stop-color="#e58880"/></linearGradient><path id="XMLID_810_" fill="url(#XMLID_90_)" d="M1058 740c-11 6-31 5-52-9-1-8-3-17-7-27l-22-48-24 11c-9-23-8-41-2-53 6-11 15-18 25-22 59-24 85 9 97 46 12 36 3 93-15 102z"/></g><g id="XMLID_785_"><linearGradient id="XMLID_91_" x1="982.7" x2="983.9" y1="634.7" y2="714.3" gradientTransform="translate(25 -168)" gradientUnits="userSpaceOnUse"><stop offset=".1" stop-color="#f7afaa"/><stop offset=".9" stop-color="#e58880"/></linearGradient><path id="XMLID_252_" fill="url(#XMLID_91_)" d="M975 655s-6-13 5-17c12-3 19 10 20 27 3 24-11 18-11 18l-14-28z"/><linearGradient id="XMLID_92_" x1="977.2" x2="982.4" y1="623.2" y2="647.8" gradientTransform="translate(25 -168)" gradientUnits="userSpaceOnUse"><stop offset=".1" stop-color="#f7afaa"/><stop offset=".9" stop-color="#e58880"/></linearGradient><path id="XMLID_786_" fill="url(#XMLID_92_)" d="M980 657s-3-7 4-10c7-2 11 6 12 17 1 14-7 10-7 10l-9-17z"/></g></g><g id="XMLID_797_"><g id="XMLID_787_"><linearGradient id="XMLID_93_" x1="992.6" x2="1097.3" y1="524.1" y2="786.5" gradientUnits="userSpaceOnUse"><stop offset="0" stop-color="#5e5441"/><stop offset=".9" stop-color="#4f443b"/></linearGradient><path id="XMLID_281_" fill="url(#XMLID_93_)" d="M1113 857c-65 20-104-11-114-50s6-84 5-120l-3-17c-6-20-20-23-34-25-33-5-43-47 1-73 59-34 113-23 128 35 10 42 2 44 16 73 13 23 44 25 64 47 5 5 8 10 11 17 18 40-10 93-74 113z"/><linearGradient id="XMLID_94_" x1="980.9" x2="1076.7" y1="402.2" y2="719.9" gradientUnits="userSpaceOnUse"><stop offset="0" stop-color="#5e5441"/><stop offset="1" stop-color="#413830"/></linearGradient><path id="XMLID_279_" fill="url(#XMLID_94_)" d="M1113 857c-65 20-104-11-114-50s6-84 5-120l-3-17c7 5 15 17 14 51-1 55 6 100 59 106s92-24 101-62c3-14 3-27 1-38 5 5 8 10 11 17 18 40-10 93-74 113z"/></g><g id="XMLID_789_"><linearGradient id="XMLID_95_" x1="930.7" x2="951.8" y1="574.8" y2="674.9" gradientUnits="userSpaceOnUse"><stop offset="0" stop-color="#5e5441"/><stop offset="1" stop-color="#413830"/></linearGradient><path id="XMLID_259_" fill="url(#XMLID_95_)" d="M907 635c-11 18 9 31 38 26 29-4 41-20 40-25s-56-35-78-1z"/><linearGradient id="XMLID_96_" x1="961.8" x2="1086.1" y1="513.6" y2="825.1" gradientUnits="userSpaceOnUse"><stop offset="0" stop-color="#5e5441"/><stop offset=".9" stop-color="#4f443b"/></linearGradient><path id="XMLID_802_" fill="url(#XMLID_96_)" d="M1087 593c-4 22-44 36-65 44-9 4-19 7-30 9-17 2-41 7-70-11l-1-1a53 53 0 0 1-24-42c-3-26 6-45 25-57 35-22 45 30 84 13 70-30 83 29 81 45z"/><linearGradient id="XMLID_97_" x1="950.3" x2="971" y1="572.3" y2="670.4" gradientUnits="userSpaceOnUse"><stop offset="0" stop-color="#5e5441"/><stop offset="1" stop-color="#413830"/></linearGradient><path id="XMLID_800_" fill="url(#XMLID_97_)" d="M1022 637c-9 4-19 7-30 9-17 2-41 7-70-11l-1-1c-14-9-23-25-24-42 8 11 34 24 70 34 34 9 41 11 55 11z"/></g><linearGradient id="XMLID_98_" x1="920.6" x2="938.4" y1="582.9" y2="512.9" gradientUnits="userSpaceOnUse"><stop offset="0" stop-color="#5e5441"/><stop offset=".9" stop-color="#b0a05a"/></linearGradient><path id="XMLID_898_" fill="url(#XMLID_98_)" d="M918 538c-11 8-19 21-19 33s10 15 12 8 3-28 18-38 28-3 28-3-15-18-39 0z"/><linearGradient id="XMLID_99_" x1="1050.4" x2="1044.1" y1="586.8" y2="483.3" gradientUnits="userSpaceOnUse"><stop offset="0" stop-color="#5e5441"/><stop offset=".9" stop-color="#b0a05a"/></linearGradient><path id="XMLID_790_" fill="url(#XMLID_99_)" d="M1054 542c-14-3-29 0-34 4-6 4 8 10 28 7 12-1 30 10 30 10s-4-15-24-21z"/></g></g></g></svg>