<svg xmlns="http://www.w3.org/2000/svg" preserveAspectRatio="xMinYMin slice" id="ejXQvpy3TUO1" shape-rendering="geometricPrecision" text-rendering="geometricPrecision" viewBox="0 0 1920 1080"><style>@keyframes ejXQvpy3TUO6_to__to{0%,to{transform:translate(629.442596px,127.541901px)}50%{transform:translate(645.381042px,113.04976px)}}@keyframes ejXQvpy3TUO7_to__to{0%,to{transform:translate(239.145046px,149.79187px)}50%{transform:translate(321.07539px,211.865481px)}}@keyframes ejXQvpy3TUO8_to__to{0%,to{transform:translate(1641.565796px,167.727142px)}50%{transform:translate(1616.562408px,211.525168px)}}@keyframes ejXQvpy3TUO10_to__to{0%,to{transform:translate(941px,671.744537px)}50%{transform:translate(940.519417px,553.777832px)}}@keyframes ejXQvpy3TUO33_to__to{0%,to{transform:translate(686.307312px,49.518185px)}50%{transform:translate(741.245758px,58.488886px)}}@keyframes ejXQvpy3TUO34_to__to{0%,to{transform:translate(1588.059326px,53.460335px)}50%{transform:translate(1538.395905px,95.143845px)}}@keyframes ejXQvpy3TUO35_to__to{0%,to{transform:translate(785.5672px,96.027695px)}50%{transform:translate(840.505646px,104.998397px)}}@keyframes ejXQvpy3TUO71_to__to{0%,to{transform:translate(367.829697px,42.61351px)}50%{transform:translate(404.212946px,71.958999px)}}@keyframes ejXQvpy3TUO72_to__to{0%,to{transform:translate(1482.224731px,-57.232635px)}50%{transform:translate(1445.051757px,-21.618245px)}}@keyframes ejXQvpy3TUO73_to__to{0%,to{transform:translate(562.5px,109.526344px)}50%{transform:translate(598.883247px,138.871834px)}}@keyframes ejXQvpy3TUO74_to__to{0%,to{transform:translate(1265.652588px,59.999451px)}50%{transform:translate(1228.479615px,95.613841px)}}@keyframes ejXQvpy3TUO109_to__to{0%,to{transform:translate(148.99411px,-22.506302px)}50%{transform:translate(160.62px,-22.51px)}}@keyframes ejXQvpy3TUO110_to__to{0%,to{transform:translate(1902.165344px,18.369919px)}50%{transform:translate(2000.695845px,16.826669px)}}@keyframes ejXQvpy3TUO112_to__to{0%,to{transform:translate(960.5px,384.5px)}50%{transform:translate(843.832487px,454.057013px)}}@keyframes ejXQvpy3TUO113_to__to{0%,to{transform:translate(999px,416px)}50%{transform:translate(882.332487px,485.557013px)}}@keyframes ejXQvpy3TUO114_to__to{0%,to{transform:translate(974px,306px)}50%{transform:translate(857.332487px,375.557013px)}}@keyframes ejXQvpy3TUO115_to__to{0%,to{transform:translate(933px,323px)}50%{transform:translate(816.332487px,392.557013px)}}@keyframes ejXQvpy3TUO116_to__to{0%,to{transform:translate(203.949997px,545.330032px)}50%{transform:translate(273.780754px,505.090032px)}}@keyframes ejXQvpy3TUO116_ts__ts{0%,to{transform:scale(1,1)}50%{transform:scale(1.244574,1.293772)}}@keyframes ejXQvpy3TUO117_to__to{0%,to{transform:translate(451.999991px,382.912657px)}50%{transform:translate(374.499991px,476.992657px)}}@keyframes ejXQvpy3TUO118_to__to{0%,to{transform:translate(175.340004px,621.340057px)}50%{transform:translate(245.17076px,581.100062px)}}@keyframes ejXQvpy3TUO118_ts__ts{0%,to{transform:scale(1,1)}50%{transform:scale(1.244574,1.293772)}}</style><defs><linearGradient id="ejXQvpy3TUO4-fill" x1="960" x2="960" y1="783" y2="-787" gradientUnits="userSpaceOnUse" spreadMethod="pad"><stop id="ejXQvpy3TUO4-fill-0" offset="19%" stop-color="#e4f5d5"/><stop id="ejXQvpy3TUO4-fill-1" offset="88%" stop-color="#00a7db"/></linearGradient><linearGradient id="ejXQvpy3TUO11-fill" x1="1153.7" x2="804.7" y1="-47.8" y2="1036.7" gradientUnits="userSpaceOnUse" spreadMethod="pad"><stop id="ejXQvpy3TUO11-fill-0" offset="12%" stop-color="rgba(207,235,176,0.36)"/><stop id="ejXQvpy3TUO11-fill-1" offset="100%" stop-color="#6d888a"/></linearGradient><linearGradient id="ejXQvpy3TUO13-fill" x1="1087.8" x2="829.6" y1="458.7" y2="1251.2" gradientUnits="userSpaceOnUse" spreadMethod="pad"><stop id="ejXQvpy3TUO13-fill-0" offset="13%" stop-color="#a1dbba"/><stop id="ejXQvpy3TUO13-fill-1" offset="90%" stop-color="#424e69"/></linearGradient><linearGradient id="ejXQvpy3TUO16-fill" x1="792" x2="403.8" y1="-65.3" y2="375.8" gradientUnits="userSpaceOnUse" spreadMethod="pad"><stop id="ejXQvpy3TUO16-fill-0" offset="12%" stop-color="#cfebb0"/><stop id="ejXQvpy3TUO16-fill-1" offset="94%" stop-color="#799f99"/></linearGradient><linearGradient id="ejXQvpy3TUO17-fill" x1="1039.4" x2="708.2" y1="185" y2="346.2" gradientUnits="userSpaceOnUse" spreadMethod="pad"><stop id="ejXQvpy3TUO17-fill-0" offset="12%" stop-color="#cfebb0"/><stop id="ejXQvpy3TUO17-fill-1" offset="94%" stop-color="#799f99"/></linearGradient><linearGradient id="ejXQvpy3TUO18-fill" x1="1390.6" x2="977.8" y1="23.6" y2="436.9" gradientUnits="userSpaceOnUse" spreadMethod="pad"><stop id="ejXQvpy3TUO18-fill-0" offset="12%" stop-color="#cfebb0"/><stop id="ejXQvpy3TUO18-fill-1" offset="94%" stop-color="#799f99"/></linearGradient><linearGradient id="ejXQvpy3TUO19-fill" x1="1088.7" x2="1316.8" y1="-12.3" y2="414.3" gradientUnits="userSpaceOnUse" spreadMethod="pad"><stop id="ejXQvpy3TUO19-fill-0" offset="12%" stop-color="#cfebb0"/><stop id="ejXQvpy3TUO19-fill-1" offset="94%" stop-color="#799f99"/></linearGradient><linearGradient id="ejXQvpy3TUO20-fill" x1="1129.7" x2="1657.6" y1="177" y2="384.7" gradientUnits="userSpaceOnUse" spreadMethod="pad"><stop id="ejXQvpy3TUO20-fill-0" offset="12%" stop-color="#cfebb0"/><stop id="ejXQvpy3TUO20-fill-1" offset="94%" stop-color="#799f99"/></linearGradient><linearGradient id="ejXQvpy3TUO21-fill" x1="1188.3" x2="1273.5" y1="109.5" y2="109.5" gradientUnits="userSpaceOnUse" spreadMethod="pad"><stop id="ejXQvpy3TUO21-fill-0" offset="12%" stop-color="rgba(207,235,176,0.36)"/><stop id="ejXQvpy3TUO21-fill-1" offset="94%" stop-color="#799f99"/></linearGradient><linearGradient id="ejXQvpy3TUO22-fill" x1="1296.8" x2="1340.9" y1="327" y2="327" gradientUnits="userSpaceOnUse" spreadMethod="pad"><stop id="ejXQvpy3TUO22-fill-0" offset="12%" stop-color="rgba(207,235,176,0.36)"/><stop id="ejXQvpy3TUO22-fill-1" offset="94%" stop-color="#799f99"/></linearGradient><linearGradient id="ejXQvpy3TUO23-fill" x1="1499" x2="1573" y1="347.5" y2="347.5" gradientUnits="userSpaceOnUse" spreadMethod="pad"><stop id="ejXQvpy3TUO23-fill-0" offset="12%" stop-color="rgba(207,235,176,0.36)"/><stop id="ejXQvpy3TUO23-fill-1" offset="94%" stop-color="#799f99"/></linearGradient><linearGradient id="ejXQvpy3TUO24-fill" x1="818.4" x2="920.4" y1="369.5" y2="369.5" gradientUnits="userSpaceOnUse" spreadMethod="pad"><stop id="ejXQvpy3TUO24-fill-0" offset="12%" stop-color="rgba(207,235,176,0.36)"/><stop id="ejXQvpy3TUO24-fill-1" offset="94%" stop-color="#799f99"/></linearGradient><linearGradient id="ejXQvpy3TUO25-fill" x1="628.4" x2="805.4" y1="352" y2="352" gradientUnits="userSpaceOnUse" spreadMethod="pad"><stop id="ejXQvpy3TUO25-fill-0" offset="12%" stop-color="rgba(207,235,176,0.36)"/><stop id="ejXQvpy3TUO25-fill-1" offset="94%" stop-color="#799f99"/></linearGradient><linearGradient id="ejXQvpy3TUO28-fill" x1="-460.3" x2="1441" y1="1344.3" y2="615.3" gradientUnits="userSpaceOnUse" spreadMethod="pad"><stop id="ejXQvpy3TUO28-fill-0" offset="23%" stop-color="#537a6c"/><stop id="ejXQvpy3TUO28-fill-1" offset="95%" stop-color="#72a078"/></linearGradient><linearGradient id="ejXQvpy3TUO29-fill" x1="-115.4" x2="705.5" y1="940.4" y2="625.6" gradientUnits="userSpaceOnUse" spreadMethod="pad"><stop id="ejXQvpy3TUO29-fill-0" offset="23%" stop-color="#679686"/><stop id="ejXQvpy3TUO29-fill-1" offset="95%" stop-color="#8cc493"/></linearGradient><linearGradient id="ejXQvpy3TUO30-fill" x1="891" x2="1477.8" y1="937.2" y2="712.2" gradientUnits="userSpaceOnUse" spreadMethod="pad"><stop id="ejXQvpy3TUO30-fill-0" offset="23%" stop-color="#679686"/><stop id="ejXQvpy3TUO30-fill-1" offset="95%" stop-color="#8cc493"/></linearGradient><linearGradient id="ejXQvpy3TUO31-fill" x1="782" x2="960.7" y1="843.2" y2="774.6" gradientUnits="userSpaceOnUse" spreadMethod="pad"><stop id="ejXQvpy3TUO31-fill-0" offset="23%" stop-color="#679686"/><stop id="ejXQvpy3TUO31-fill-1" offset="95%" stop-color="#8cc493"/></linearGradient><linearGradient id="ejXQvpy3TUO33-fill" x1="273.4" x2="905.2" y1="134.6" y2="22.7" gradientUnits="userSpaceOnUse" spreadMethod="pad"><stop id="ejXQvpy3TUO33-fill-0" offset="31%" stop-color="#23314d"/><stop id="ejXQvpy3TUO33-fill-1" offset="60%" stop-color="#77aa78"/><stop id="ejXQvpy3TUO33-fill-2" offset="96%" stop-color="#d6e09d"/></linearGradient><linearGradient id="ejXQvpy3TUO34-fill" x1="1978.3" x2="1276.8" y1="-78.4" y2="171.6" gradientUnits="userSpaceOnUse" spreadMethod="pad"><stop id="ejXQvpy3TUO34-fill-0" offset="31%" stop-color="#23314d"/><stop id="ejXQvpy3TUO34-fill-1" offset="60%" stop-color="#77aa78"/><stop id="ejXQvpy3TUO34-fill-2" offset="96%" stop-color="#d6e09d"/></linearGradient><linearGradient id="ejXQvpy3TUO35-fill" x1="575.5" x2="801.9" y1="155.8" y2="99" gradientUnits="userSpaceOnUse" spreadMethod="pad"><stop id="ejXQvpy3TUO35-fill-0" offset="20%" stop-color="#77aa78"/><stop id="ejXQvpy3TUO35-fill-1" offset="96%" stop-color="#d6e09d"/></linearGradient><linearGradient id="ejXQvpy3TUO37-fill" x1="531.5" x2="200.9" y1="79.4" y2="614" gradientUnits="userSpaceOnUse" spreadMethod="pad"><stop id="ejXQvpy3TUO37-fill-0" offset="11%" stop-color="#23314d"/><stop id="ejXQvpy3TUO37-fill-1" offset="68%" stop-color="#48576e"/></linearGradient><linearGradient id="ejXQvpy3TUO38-fill" x1="733" x2="402.4" y1="204.1" y2="738.6" gradientUnits="userSpaceOnUse" spreadMethod="pad"><stop id="ejXQvpy3TUO38-fill-0" offset="11%" stop-color="#23314d"/><stop id="ejXQvpy3TUO38-fill-1" offset="68%" stop-color="#48576e"/></linearGradient><linearGradient id="ejXQvpy3TUO39-fill" x1="778" x2="1138" y1="330.5" y2="330.5" gradientUnits="userSpaceOnUse" spreadMethod="pad"><stop id="ejXQvpy3TUO39-fill-0" offset="11%" stop-color="#23314d"/><stop id="ejXQvpy3TUO39-fill-1" offset="68%" stop-color="#48576e"/></linearGradient><linearGradient id="ejXQvpy3TUO46-fill" x1="1416.2" x2="1398.9" y1="560.1" y2="34.4" gradientUnits="userSpaceOnUse" spreadMethod="pad"><stop id="ejXQvpy3TUO46-fill-0" offset="11%" stop-color="#23314d"/><stop id="ejXQvpy3TUO46-fill-1" offset="68%" stop-color="#48576e"/></linearGradient><linearGradient id="ejXQvpy3TUO47-fill" x1="1402" x2="1449" y1="590" y2="590" gradientUnits="userSpaceOnUse" spreadMethod="pad"><stop id="ejXQvpy3TUO47-fill-0" offset="5%" stop-color="#151e2e"/><stop id="ejXQvpy3TUO47-fill-1" offset="100%" stop-color="#23314d"/></linearGradient><linearGradient id="ejXQvpy3TUO48-fill" x1="1388.5" x2="1420" y1="286.5" y2="286.5" gradientUnits="userSpaceOnUse" spreadMethod="pad"><stop id="ejXQvpy3TUO48-fill-0" offset="5%" stop-color="#151e2e"/><stop id="ejXQvpy3TUO48-fill-1" offset="100%" stop-color="#23314d"/></linearGradient><linearGradient id="ejXQvpy3TUO49-fill" x1="1376" x2="1449" y1="730" y2="730" gradientUnits="userSpaceOnUse" spreadMethod="pad"><stop id="ejXQvpy3TUO49-fill-0" offset="5%" stop-color="#151e2e"/><stop id="ejXQvpy3TUO49-fill-1" offset="100%" stop-color="#23314d"/></linearGradient><linearGradient id="ejXQvpy3TUO54-fill" x1="590.4" x2="1471.4" y1="1768.3" y2="-121.5" gradientUnits="userSpaceOnUse" spreadMethod="pad"><stop id="ejXQvpy3TUO54-fill-0" offset="11%" stop-color="#23314d"/><stop id="ejXQvpy3TUO54-fill-1" offset="46%" stop-color="#557e5c"/><stop id="ejXQvpy3TUO54-fill-2" offset="82%" stop-color="#80aaa6"/></linearGradient><linearGradient id="ejXQvpy3TUO55-fill" x1="763.6" x2="1078.8" y1="1248.2" y2="461.8" gradientUnits="userSpaceOnUse" spreadMethod="pad"><stop id="ejXQvpy3TUO55-fill-0" offset="23%" stop-color="#324a35"/><stop id="ejXQvpy3TUO55-fill-1" offset="89%" stop-color="rgba(117,122,90,0.5)"/></linearGradient><linearGradient id="ejXQvpy3TUO56-fill" x1="1247.9" x2="1561.4" y1="1286.5" y2="504.2" gradientUnits="userSpaceOnUse" spreadMethod="pad"><stop id="ejXQvpy3TUO56-fill-0" offset="23%" stop-color="#324a35"/><stop id="ejXQvpy3TUO56-fill-1" offset="89%" stop-color="rgba(117,122,90,0.5)"/></linearGradient><linearGradient id="ejXQvpy3TUO57-fill" x1="53.6" x2="397.5" y1="1425.1" y2="567" gradientUnits="userSpaceOnUse" spreadMethod="pad"><stop id="ejXQvpy3TUO57-fill-0" offset="23%" stop-color="#324a35"/><stop id="ejXQvpy3TUO57-fill-1" offset="89%" stop-color="rgba(117,122,90,0.1)"/></linearGradient><linearGradient id="ejXQvpy3TUO58-fill" x1="1079.8" x2="1473.6" y1="1266.2" y2="283.6" gradientUnits="userSpaceOnUse" spreadMethod="pad"><stop id="ejXQvpy3TUO58-fill-0" offset="23%" stop-color="#557e5c"/><stop id="ejXQvpy3TUO58-fill-1" offset="89%" stop-color="rgba(218,227,168,0.5)"/></linearGradient><linearGradient id="ejXQvpy3TUO59-fill" x1="172.1" x2="344.1" y1="1004.1" y2="575" gradientUnits="userSpaceOnUse" spreadMethod="pad"><stop id="ejXQvpy3TUO59-fill-0" offset="23%" stop-color="#557e5c"/><stop id="ejXQvpy3TUO59-fill-1" offset="89%" stop-color="rgba(218,227,168,0.5)"/></linearGradient><linearGradient id="ejXQvpy3TUO60-fill" x1="1355.1" x2="1402.8" y1="991.7" y2="872.8" gradientUnits="userSpaceOnUse" spreadMethod="pad"><stop id="ejXQvpy3TUO60-fill-0" offset="23%" stop-color="#557e5c"/><stop id="ejXQvpy3TUO60-fill-1" offset="89%" stop-color="rgba(218,227,168,0.5)"/></linearGradient><linearGradient id="ejXQvpy3TUO63-fill" x1="1117" x2="1253" y1="661.5" y2="661.5" gradientUnits="userSpaceOnUse" spreadMethod="pad"><stop id="ejXQvpy3TUO63-fill-0" offset="5%" stop-color="#151e2e"/><stop id="ejXQvpy3TUO63-fill-1" offset="100%" stop-color="#23314d"/></linearGradient><linearGradient id="ejXQvpy3TUO68-fill" x1="485.9" x2="530.2" y1="669.5" y2="669.5" gradientUnits="userSpaceOnUse" spreadMethod="pad"><stop id="ejXQvpy3TUO68-fill-0" offset="5%" stop-color="#151e2e"/><stop id="ejXQvpy3TUO68-fill-1" offset="100%" stop-color="#23314d"/></linearGradient><linearGradient id="ejXQvpy3TUO71-fill" x1="-565.3" x2="1134.7" y1="216.9" y2="-84.2" gradientUnits="userSpaceOnUse" spreadMethod="pad"><stop id="ejXQvpy3TUO71-fill-0" offset="31%" stop-color="#23314d"/><stop id="ejXQvpy3TUO71-fill-1" offset="50%" stop-color="#77aa78"/><stop id="ejXQvpy3TUO71-fill-2" offset="96%" stop-color="#d6e09d"/></linearGradient><linearGradient id="ejXQvpy3TUO72-fill" x1="1907.3" x2="1015.9" y1="-570.1" y2="431.9" gradientUnits="userSpaceOnUse" spreadMethod="pad"><stop id="ejXQvpy3TUO72-fill-0" offset="31%" stop-color="#23314d"/><stop id="ejXQvpy3TUO72-fill-1" offset="50%" stop-color="#77aa78"/><stop id="ejXQvpy3TUO72-fill-2" offset="96%" stop-color="#d6e09d"/></linearGradient><linearGradient id="ejXQvpy3TUO73-fill" x1="190.1" x2="775" y1="175.3" y2="85.3" gradientUnits="userSpaceOnUse" spreadMethod="pad"><stop id="ejXQvpy3TUO73-fill-0" offset="20%" stop-color="#77aa78"/><stop id="ejXQvpy3TUO73-fill-1" offset="96%" stop-color="#d6e09d"/></linearGradient><linearGradient id="ejXQvpy3TUO74-fill" x1="1517.2" x2="1057.3" y1="48.2" y2="65.9" gradientUnits="userSpaceOnUse" spreadMethod="pad"><stop id="ejXQvpy3TUO74-fill-0" offset="20%" stop-color="#77aa78"/><stop id="ejXQvpy3TUO74-fill-1" offset="96%" stop-color="#d6e09d"/></linearGradient><linearGradient id="ejXQvpy3TUO77-fill" x1="877" x2="1051" y1="660.9" y2="660.9" gradientUnits="userSpaceOnUse" spreadMethod="pad"><stop id="ejXQvpy3TUO77-fill-0" offset="5%" stop-color="#151e2e"/><stop id="ejXQvpy3TUO77-fill-1" offset="100%" stop-color="#23314d"/></linearGradient><linearGradient id="ejXQvpy3TUO78-fill" x1="775" x2="880.1" y1="154.3" y2="154.3" gradientUnits="userSpaceOnUse" spreadMethod="pad"><stop id="ejXQvpy3TUO78-fill-0" offset="5%" stop-color="#151e2e"/><stop id="ejXQvpy3TUO78-fill-1" offset="100%" stop-color="#23314d"/></linearGradient><linearGradient id="ejXQvpy3TUO79-fill" x1="909.4" x2="918.9" y1="665.5" y2="665.5" gradientUnits="userSpaceOnUse" spreadMethod="pad"><stop id="ejXQvpy3TUO79-fill-0" offset="5%" stop-color="#151e2e"/><stop id="ejXQvpy3TUO79-fill-1" offset="100%" stop-color="#23314d"/></linearGradient><linearGradient id="ejXQvpy3TUO82-fill" x1="1564.9" x2="1608.5" y1="1008" y2="-29" gradientUnits="userSpaceOnUse" spreadMethod="pad"><stop id="ejXQvpy3TUO82-fill-0" offset="6%" stop-color="#1a263a"/><stop id="ejXQvpy3TUO82-fill-1" offset="100%" stop-color="#2a3c5c"/></linearGradient><linearGradient id="ejXQvpy3TUO83-fill" x1="1687.5" x2="1726.2" y1="1197.9" y2="279" gradientUnits="userSpaceOnUse" spreadMethod="pad"><stop id="ejXQvpy3TUO83-fill-0" offset="5%" stop-color="#151e2e"/><stop id="ejXQvpy3TUO83-fill-1" offset="100%" stop-color="#23314d"/></linearGradient><linearGradient id="ejXQvpy3TUO84-fill" x1="1554" x2="1673.4" y1="-660.5" y2="212.7" gradientUnits="userSpaceOnUse" spreadMethod="pad"><stop id="ejXQvpy3TUO84-fill-0" offset="5%" stop-color="#151e2e"/><stop id="ejXQvpy3TUO84-fill-1" offset="100%" stop-color="#23314d"/></linearGradient><linearGradient id="ejXQvpy3TUO85-fill" x1="1437" x2="1548" y1="-660.7" y2="150.7" gradientUnits="userSpaceOnUse" spreadMethod="pad"><stop id="ejXQvpy3TUO85-fill-0" offset="5%" stop-color="#151e2e"/><stop id="ejXQvpy3TUO85-fill-1" offset="100%" stop-color="#23314d"/></linearGradient><linearGradient id="ejXQvpy3TUO86-fill" x1="1776.9" x2="1834.1" y1="1201.4" y2="-158.2" gradientUnits="userSpaceOnUse" spreadMethod="pad"><stop id="ejXQvpy3TUO86-fill-0" offset="5%" stop-color="#151e2e"/><stop id="ejXQvpy3TUO86-fill-1" offset="100%" stop-color="#23314d"/></linearGradient><linearGradient id="ejXQvpy3TUO87-fill" x1="1795.1" x2="1808.1" y1="389" y2="227.7" gradientUnits="userSpaceOnUse" spreadMethod="pad"><stop id="ejXQvpy3TUO87-fill-0" offset="5%" stop-color="#151e2e"/><stop id="ejXQvpy3TUO87-fill-1" offset="100%" stop-color="#23314d"/></linearGradient><linearGradient id="ejXQvpy3TUO88-fill" x1="1482.3" x2="1495.1" y1="359.1" y2="54.1" gradientUnits="userSpaceOnUse" spreadMethod="pad"><stop id="ejXQvpy3TUO88-fill-0" offset="6%" stop-color="#37507a"/><stop id="ejXQvpy3TUO88-fill-1" offset="100%" stop-color="#3b5482"/></linearGradient><linearGradient id="ejXQvpy3TUO89-fill" x1="1531.3" x2="1534.5" y1="275.1" y2="197.3" gradientUnits="userSpaceOnUse" spreadMethod="pad"><stop id="ejXQvpy3TUO89-fill-0" offset="6%" stop-color="#37507a"/><stop id="ejXQvpy3TUO89-fill-1" offset="100%" stop-color="#3b5482"/></linearGradient><linearGradient id="ejXQvpy3TUO90-fill" x1="1581.8" x2="1603.1" y1="1034.8" y2="528" gradientUnits="userSpaceOnUse" spreadMethod="pad"><stop id="ejXQvpy3TUO90-fill-0" offset="6%" stop-color="#37507a"/><stop id="ejXQvpy3TUO90-fill-1" offset="100%" stop-color="#3b5482"/></linearGradient><linearGradient id="ejXQvpy3TUO91-fill" x1="1566.6" x2="1555.1" y1="364.4" y2="327.4" gradientUnits="userSpaceOnUse" spreadMethod="pad"><stop id="ejXQvpy3TUO91-fill-0" offset="6%" stop-color="#37507a"/><stop id="ejXQvpy3TUO91-fill-1" offset="100%" stop-color="#3b5482"/></linearGradient><linearGradient id="ejXQvpy3TUO92-fill" x1="1604.1" x2="1606.8" y1="1003.7" y2="939" gradientUnits="userSpaceOnUse" spreadMethod="pad"><stop id="ejXQvpy3TUO92-fill-0" offset="6%" stop-color="#37507a"/><stop id="ejXQvpy3TUO92-fill-1" offset="100%" stop-color="#3b5482"/></linearGradient><linearGradient id="ejXQvpy3TUO93-fill" x1="1612.7" x2="1615.8" y1="656.4" y2="582.1" gradientUnits="userSpaceOnUse" spreadMethod="pad"><stop id="ejXQvpy3TUO93-fill-0" offset="6%" stop-color="#37507a"/><stop id="ejXQvpy3TUO93-fill-1" offset="100%" stop-color="#3b5482"/></linearGradient><linearGradient id="ejXQvpy3TUO94-fill" x1="1621" x2="1629.3" y1="208.3" y2="12" gradientUnits="userSpaceOnUse" spreadMethod="pad"><stop id="ejXQvpy3TUO94-fill-0" offset="6%" stop-color="#37507a"/><stop id="ejXQvpy3TUO94-fill-1" offset="100%" stop-color="#3b5482"/></linearGradient><linearGradient id="ejXQvpy3TUO96-fill" x1="-112.4" x2="529" y1="1017" y2="4.4" gradientUnits="userSpaceOnUse" spreadMethod="pad"><stop id="ejXQvpy3TUO96-fill-0" offset="5%" stop-color="#151e2e"/><stop id="ejXQvpy3TUO96-fill-1" offset="100%" stop-color="#2a3f5e"/></linearGradient><linearGradient id="ejXQvpy3TUO97-fill" x1="-296.2" x2="544.1" y1="791.2" y2="385" gradientUnits="userSpaceOnUse" spreadMethod="pad"><stop id="ejXQvpy3TUO97-fill-0" offset="5%" stop-color="#151e2e"/><stop id="ejXQvpy3TUO97-fill-1" offset="100%" stop-color="#23314d"/></linearGradient><linearGradient id="ejXQvpy3TUO98-fill" x1="136.1" x2="343.6" y1="242.8" y2="142.5" gradientUnits="userSpaceOnUse" spreadMethod="pad"><stop id="ejXQvpy3TUO98-fill-0" offset="5%" stop-color="#151e2e"/><stop id="ejXQvpy3TUO98-fill-1" offset="100%" stop-color="#23314d"/></linearGradient><linearGradient id="ejXQvpy3TUO99-fill" x1="132.7" x2="485.9" y1="320.4" y2="149.7" gradientUnits="userSpaceOnUse" spreadMethod="pad"><stop id="ejXQvpy3TUO99-fill-0" offset="5%" stop-color="#151e2e"/><stop id="ejXQvpy3TUO99-fill-1" offset="100%" stop-color="#23314d"/></linearGradient><linearGradient id="ejXQvpy3TUO100-fill" x1="233.9" x2="545.8" y1="436.4" y2="-55.9" gradientUnits="userSpaceOnUse" spreadMethod="pad"><stop id="ejXQvpy3TUO100-fill-0" offset="6%" stop-color="#37507a"/><stop id="ejXQvpy3TUO100-fill-1" offset="100%" stop-color="#3b5482"/></linearGradient><linearGradient id="ejXQvpy3TUO101-fill" x1="432.6" x2="455.7" y1="74.8" y2="38.3" gradientUnits="userSpaceOnUse" spreadMethod="pad"><stop id="ejXQvpy3TUO101-fill-0" offset="6%" stop-color="#37507a"/><stop id="ejXQvpy3TUO101-fill-1" offset="100%" stop-color="#3b5482"/></linearGradient><linearGradient id="ejXQvpy3TUO102-fill" x1="363.7" x2="384.2" y1="258.2" y2="225.9" gradientUnits="userSpaceOnUse" spreadMethod="pad"><stop id="ejXQvpy3TUO102-fill-0" offset="6%" stop-color="#37507a"/><stop id="ejXQvpy3TUO102-fill-1" offset="100%" stop-color="#3b5482"/></linearGradient><linearGradient id="ejXQvpy3TUO103-fill" x1="123.9" x2="397" y1="1053.4" y2="622.4" gradientUnits="userSpaceOnUse" spreadMethod="pad"><stop id="ejXQvpy3TUO103-fill-0" offset="6%" stop-color="#37507a"/><stop id="ejXQvpy3TUO103-fill-1" offset="100%" stop-color="#3b5482"/></linearGradient><linearGradient id="ejXQvpy3TUO104-fill" x1="233.7" x2="253" y1="819.7" y2="789.2" gradientUnits="userSpaceOnUse" spreadMethod="pad"><stop id="ejXQvpy3TUO104-fill-0" offset="6%" stop-color="#37507a"/><stop id="ejXQvpy3TUO104-fill-1" offset="100%" stop-color="#3b5482"/></linearGradient><linearGradient id="ejXQvpy3TUO105-fill" x1="243.4" x2="263.4" y1="718.5" y2="687" gradientUnits="userSpaceOnUse" spreadMethod="pad"><stop id="ejXQvpy3TUO105-fill-0" offset="6%" stop-color="#37507a"/><stop id="ejXQvpy3TUO105-fill-1" offset="100%" stop-color="#3b5482"/></linearGradient><linearGradient id="ejXQvpy3TUO106-fill" x1="245.3" x2="273.4" y1="567.7" y2="523.3" gradientUnits="userSpaceOnUse" spreadMethod="pad"><stop id="ejXQvpy3TUO106-fill-0" offset="6%" stop-color="#37507a"/><stop id="ejXQvpy3TUO106-fill-1" offset="100%" stop-color="#3b5482"/></linearGradient><linearGradient id="ejXQvpy3TUO107-fill" x1="191.4" x2="288.6" y1="272.1" y2="118.6" gradientUnits="userSpaceOnUse" spreadMethod="pad"><stop id="ejXQvpy3TUO107-fill-0" offset="6%" stop-color="#37507a"/><stop id="ejXQvpy3TUO107-fill-1" offset="100%" stop-color="#3b5482"/></linearGradient><linearGradient id="ejXQvpy3TUO109-fill" x1="-653.7" x2="1264.3" y1="112.5" y2="-182.7" gradientUnits="userSpaceOnUse" spreadMethod="pad"><stop id="ejXQvpy3TUO109-fill-0" offset="15%" stop-color="#23314d"/><stop id="ejXQvpy3TUO109-fill-1" offset="60%" stop-color="#77aa78"/><stop id="ejXQvpy3TUO109-fill-2" offset="96%" stop-color="#d6e09d"/></linearGradient><linearGradient id="ejXQvpy3TUO110-fill" x1="2423.6" x2="1527.3" y1="-83.8" y2="82.7" gradientUnits="userSpaceOnUse" spreadMethod="pad"><stop id="ejXQvpy3TUO110-fill-0" offset="15%" stop-color="#23314d"/><stop id="ejXQvpy3TUO110-fill-1" offset="60%" stop-color="#77aa78"/><stop id="ejXQvpy3TUO110-fill-2" offset="96%" stop-color="#d6e09d"/></linearGradient><radialGradient id="ejXQvpy3TUO40-fill" cx="0" cy="0" r="356.6" gradientTransform="matrix(1 0 0 2 2007 448)" gradientUnits="userSpaceOnUse" spreadMethod="pad"><stop id="ejXQvpy3TUO40-fill-0" offset="7%" stop-color="#bab98d"/><stop id="ejXQvpy3TUO40-fill-1" offset="63%" stop-color="#37445b"/></radialGradient><radialGradient id="ejXQvpy3TUO41-fill" cx="0" cy="0" r="130.5" gradientTransform="matrix(1 0 0 2 676 184)" gradientUnits="userSpaceOnUse" spreadMethod="pad"><stop id="ejXQvpy3TUO41-fill-0" offset="7%" stop-color="#bab98d"/><stop id="ejXQvpy3TUO41-fill-1" offset="63%" stop-color="#37445b"/></radialGradient><radialGradient id="ejXQvpy3TUO42-fill" cx="0" cy="0" r="169.6" gradientTransform="matrix(1 0 0 2 674 592)" gradientUnits="userSpaceOnUse" spreadMethod="pad"><stop id="ejXQvpy3TUO42-fill-0" offset="7%" stop-color="#bab98d"/><stop id="ejXQvpy3TUO42-fill-1" offset="63%" stop-color="rgba(55,68,91,0.4)"/></radialGradient><radialGradient id="ejXQvpy3TUO43-fill" cx="0" cy="0" r="168.9" gradientTransform="matrix(1 0 0 2 408 256)" gradientUnits="userSpaceOnUse" spreadMethod="pad"><stop id="ejXQvpy3TUO43-fill-0" offset="7%" stop-color="#bab98d"/><stop id="ejXQvpy3TUO43-fill-1" offset="63%" stop-color="rgba(55,68,91,0.4)"/></radialGradient><radialGradient id="ejXQvpy3TUO44-fill" cx="0" cy="0" r="77.5" gradientTransform="matrix(1 0 0 2 413 614)" gradientUnits="userSpaceOnUse" spreadMethod="pad"><stop id="ejXQvpy3TUO44-fill-0" offset="7%" stop-color="#bab98d"/><stop id="ejXQvpy3TUO44-fill-1" offset="63%" stop-color="rgba(55,68,91,0.4)"/></radialGradient><radialGradient id="ejXQvpy3TUO50-fill" cx="0" cy="0" r="498.6" gradientTransform="rotate(23 16690 4655)" gradientUnits="userSpaceOnUse" spreadMethod="pad"><stop id="ejXQvpy3TUO50-fill-0" offset="7%" stop-color="#bab98d"/><stop id="ejXQvpy3TUO50-fill-1" offset="63%" stop-color="#37445b"/></radialGradient><radialGradient id="ejXQvpy3TUO51-fill" cx="0" cy="0" r="247.5" gradientTransform="translate(1430 210)" gradientUnits="userSpaceOnUse" spreadMethod="pad"><stop id="ejXQvpy3TUO51-fill-0" offset="7%" stop-color="#bab98d"/><stop id="ejXQvpy3TUO51-fill-1" offset="63%" stop-color="#37445b"/></radialGradient><radialGradient id="ejXQvpy3TUO62-fill" cx="0" cy="0" r="597.3" gradientTransform="translate(1199 491)" gradientUnits="userSpaceOnUse" spreadMethod="pad"><stop id="ejXQvpy3TUO62-fill-0" offset="7%" stop-color="#bab98d"/><stop id="ejXQvpy3TUO62-fill-1" offset="49%" stop-color="#37445b"/><stop id="ejXQvpy3TUO62-fill-2" offset="59%" stop-color="#323e53"/><stop id="ejXQvpy3TUO62-fill-3" offset="80%" stop-color="#2a3546"/><stop id="ejXQvpy3TUO62-fill-4" offset="100%" stop-color="#283242"/></radialGradient><radialGradient id="ejXQvpy3TUO64-fill" cx="0" cy="0" r="114.7" gradientTransform="matrix(1 0 0 2 1182 485)" gradientUnits="userSpaceOnUse" spreadMethod="pad"><stop id="ejXQvpy3TUO64-fill-0" offset="7%" stop-color="#bab98d"/><stop id="ejXQvpy3TUO64-fill-1" offset="63%" stop-color="#37445b"/></radialGradient><radialGradient id="ejXQvpy3TUO65-fill" cx="0" cy="0" r="89.9" gradientTransform="matrix(1 0 0 3 1118 250)" gradientUnits="userSpaceOnUse" spreadMethod="pad"><stop id="ejXQvpy3TUO65-fill-0" offset="7%" stop-color="#bab98d"/><stop id="ejXQvpy3TUO65-fill-1" offset="63%" stop-color="#37445b"/></radialGradient><radialGradient id="ejXQvpy3TUO67-fill" cx="0" cy="0" r="627.7" gradientTransform="translate(558 533)" gradientUnits="userSpaceOnUse" spreadMethod="pad"><stop id="ejXQvpy3TUO67-fill-0" offset="6%" stop-color="#bab98d"/><stop id="ejXQvpy3TUO67-fill-1" offset="55%" stop-color="#37445b"/><stop id="ejXQvpy3TUO67-fill-2" offset="87%" stop-color="#2d384a"/><stop id="ejXQvpy3TUO67-fill-3" offset="100%" stop-color="#283242"/></radialGradient><radialGradient id="ejXQvpy3TUO69-fill" cx="0" cy="0" r="617.4" gradientTransform="translate(588 414)" gradientUnits="userSpaceOnUse" spreadMethod="pad"><stop id="ejXQvpy3TUO69-fill-0" offset="31%" stop-color="#bab98d"/><stop id="ejXQvpy3TUO69-fill-1" offset="55%" stop-color="#37445b"/><stop id="ejXQvpy3TUO69-fill-2" offset="87%" stop-color="#2d384a"/><stop id="ejXQvpy3TUO69-fill-3" offset="100%" stop-color="#283242"/></radialGradient><radialGradient id="ejXQvpy3TUO76-fill" cx="0" cy="0" r="872.4" gradientTransform="translate(1052 469)" gradientUnits="userSpaceOnUse" spreadMethod="pad"><stop id="ejXQvpy3TUO76-fill-0" offset="7%" stop-color="#bab98d"/><stop id="ejXQvpy3TUO76-fill-1" offset="49%" stop-color="#37445b"/><stop id="ejXQvpy3TUO76-fill-2" offset="59%" stop-color="#323e53"/><stop id="ejXQvpy3TUO76-fill-3" offset="80%" stop-color="#2a3546"/><stop id="ejXQvpy3TUO76-fill-4" offset="100%" stop-color="#283242"/></radialGradient><radialGradient id="ejXQvpy3TUO80-fill" cx="0" cy="0" r="509.6" gradientTransform="translate(998 520)" gradientUnits="userSpaceOnUse" spreadMethod="pad"><stop id="ejXQvpy3TUO80-fill-0" offset="13%" stop-color="#bab98d"/><stop id="ejXQvpy3TUO80-fill-1" offset="59%" stop-color="#37445b"/><stop id="ejXQvpy3TUO80-fill-2" offset="82%" stop-color="#2c3749"/><stop id="ejXQvpy3TUO80-fill-3" offset="99%" stop-color="#283242"/></radialGradient><filter id="ejXQvpy3TUO117-filter" width="400%" height="400%" x="-150%" y="-150%"><feGaussianBlur id="ejXQvpy3TUO117-filter-blur-0" result="result" stdDeviation="8,0"/><feComponentTransfer id="ejXQvpy3TUO117-filter-brightness-0" result="result"><feFuncR id="ejXQvpy3TUO117-filter-brightness-0-R" slope="5.6" type="linear"/><feFuncG id="ejXQvpy3TUO117-filter-brightness-0-G" slope="5.6" type="linear"/><feFuncB id="ejXQvpy3TUO117-filter-brightness-0-B" slope="5.6" type="linear"/></feComponentTransfer></filter></defs><g><g><rect width="1920" height="1080" fill="url(#ejXQvpy3TUO4-fill)" rx="0" ry="0"/></g><g><g style="animation:ejXQvpy3TUO6_to__to 5000ms linear infinite normal forwards" transform="translate(629 128)"><path fill="#f5f9f2" d="M-283-42c51 31 106 57 163 78 76 29 154 52 233 71-26 5-46 11-46 19-3 33 283 89 291 66 2-7-22-23-96-57 24-32 31-73 15-105-27-52-110-61-126-40-8 11-1 31 11 51Q71-125 33-114 7-106 5-21q-170-192-192-176-15 11 32 108-104-67-116-53-9 10 25 58c-87-22-109-21-111-15-5 11 45 41 74 57Z"/></g><g style="animation:ejXQvpy3TUO7_to__to 5000ms linear infinite normal forwards" transform="translate(239 150)"><path fill="#f5f9f2" d="M-261-67a2521 2521 0 0 0 402 217c38 15 92 35 157 53Q247 71 217 75q-18 3-28 52Q102-24 77-15q-16 6-7 74Q-35-160-66-150q-18 6-12 85c-10-21-66-146-102-138-24 6-30 67-31 107-17-13-75-55-85-45-9 9 21 54 35 74Z"/></g><g style="animation:ejXQvpy3TUO8_to__to 5000ms linear infinite normal forwards" transform="translate(1642 168)"><path fill="#f5f9f2" d="M-374 204A1942 1942 0 0 0 344-80c37-94 32-117 23-123-18-11-73 42-127 102q0-80-24-87-34-10-120 144a67 67 0 0 0-84-17 66 66 0 0 0-31 73c-10-45-34-84-65-90-41-7-103 48-117 148q-1-117-28-123-41-9-145 257Z"/></g></g></g><g><g style="animation:ejXQvpy3TUO10_to__to 5000ms linear infinite normal forwards" transform="translate(941 672)"><g transform="translate(-941 -554)"><path fill="url(#ejXQvpy3TUO11-fill)" d="M-76 561c-45-93 3-201 88-230 74-25 165 14 201 96 3-5 46-70 110-69 66 1 134 73 131 171l107 73c27-40 75-60 119-49 51 13 88 63 83 120 103-71 232-90 351-53 13-13 112-107 252-89 85 11 141 57 163 77 20-22 81-84 182-103 138-25 241 51 258 64l5 201A6089 6089 0 0 1-76 561Z"/></g></g><g><path fill="url(#ejXQvpy3TUO13-fill)" d="M-66 727c-21-74 5-145 26-188 82-12 147-7 192 0 64 10 94 25 217 48l92 16c104 17 182 28 211 32 196 27 219 41 345 57 69 9 191 23 338 16s204-30 482-81c124-23 225-38 289-48l-59 267a2748 2748 0 0 1-1126 201c-207-7-926-31-1007-320Z"/></g><g><path fill="#80aaa6" d="m50-34 9 595c32-20 43-22 47-18s0 15-2 15c-8 0-4-277 4-588Z"/><path fill="url(#ejXQvpy3TUO16-fill)" d="m487-43-57 669 32 8 50-349L677-27l-20-33-145 258-25-241Z"/><path fill="url(#ejXQvpy3TUO17-fill)" d="m751-22-16 360-26-187-12 24 22 229-16 280 25 11 32-268 20-248 37-135-13-8-35 123 23-212Z"/><path fill="url(#ejXQvpy3TUO18-fill)" d="M1039-34c4 12 40 574 40 574v189l38-7-15-435 88-377-33 30-70 229-17-249Z"/><path fill="url(#ejXQvpy3TUO19-fill)" d="M1253-34c-1 13 32 581 32 581l-16 174h36l9-301-15-435Z"/><path fill="url(#ejXQvpy3TUO20-fill)" d="M1424-34c3 16 51 566 51 566v197l66-8-14-152-25-306 32-343Z"/><path fill="url(#ejXQvpy3TUO21-fill)" d="M1187-76c-2-1-17 43-75 240l-10 131 32-141c36-155 55-229 53-230Z"/><path fill="url(#ejXQvpy3TUO22-fill)" d="M1253-34c3 0 17 65 19 124l3 42c-1 18-5 33 0 35s12-10 16-8 4 14-8 58v13l1 48c9 84 13 131 12 131s-7-49-10-49-1 64 5 184l-19 144 14-139-19-327c-9-154-18-256-14-256Z"/><path fill="url(#ejXQvpy3TUO23-fill)" d="M1424-34c32 78 35 126 31 157-1 10-5 34-2 66 2 19 5 23 12 58 7 33 15 82 11 83-3 1-12-26-14-25-3 1 13 49 20 106 4 37 3 63 3 81-1 47 1 119 13 234l-23 3c1-42 2-106-1-183-4-101-11-173-24-302l-26-278Z"/><path fill="url(#ejXQvpy3TUO24-fill)" d="M817 44a551 551 0 0 1-44 126l-5 30s-1 27-4 50c-4 32-11 57-8 58 1 0 3-5 5-5 4 1-1 34-2 38-5 34-7 69-11 104-7 55-5 56-11 102-4 34-11 83-22 142l13 6q16-120 29-245 15-140 25-274l35-132Z"/><path fill="url(#ejXQvpy3TUO25-fill)" d="M626 70c-29 45-54 81-73 106-15 21-41 55-39 57 2 1 19-18 21-17 2 2-32 44-29 47 1 1 9-6 11-5 2 2-8 12-14 29-4 9-5 16-6 25-3 23 0 28-4 47-2 11-4 9-6 19-4 18-1 27-2 44 0 13-2 20-6 38-9 46-6 57-14 101-4 24-9 47-16 70l13 3 50-349Z"/></g></g><g><g><path fill="url(#ejXQvpy3TUO28-fill)" d="M0 603c123 2 246 13 367 34 171 29 225 58 351 87 175 40 265 29 704 20 121-2 304-5 530-6 15 106-11 168-32 202-176 285-944 118-1429 12C239 897 39 837-80 799L0 603Z"/><path fill="url(#ejXQvpy3TUO29-fill)" d="M271 622c46 2 82 10 152 25 136 30 168 48 264 70 152 35 268 34 268 37 0 5-287-21-290 0-2 15 147 45 146 51-2 8-211-37-499-82-198-31-277-37-277-55 0-22 120-51 236-46Z" opacity=".4"/><path fill="url(#ejXQvpy3TUO30-fill)" d="M1059 752c0-7 117-5 210-5 221 0 362-13 363-6 1 9-207 28-206 42 1 12 152 8 152 12 0 8-554 24-555 12 0-6 128-14 128-29 0-13-92-19-92-26Z" opacity=".6"/><path fill="url(#ejXQvpy3TUO31-fill)" d="M871 773c-16 1-57 4-57 9 0 12 199 33 201 21 1-7-68-33-144-30Z" opacity=".4"/></g><g><g style="animation:ejXQvpy3TUO33_to__to 5000ms linear infinite normal forwards" transform="translate(686 50)"><path fill="url(#ejXQvpy3TUO33-fill)" d="M432 90c4 22 89 30 259 46 104 10 149 11 161-12 11-21-9-53-28-77 93-14 117-27 117-37 1-29-184-86-352-30C517 4 425 56 432 90Z" transform="translate(-686 -50)"/></g><g style="animation:ejXQvpy3TUO34_to__to 5000ms linear infinite normal forwards" transform="translate(1588 53)"><path fill="url(#ejXQvpy3TUO34-fill)" d="M1402-39c-30 16-121 74-110 108 6 18 37 24 65 26-49 32-56 50-53 60 9 38 159 31 275 25 97-5 236-12 239-40 1-10-15-27-102-54l169-80c-115-54-327-131-483-45Z" transform="translate(-1588 -53)"/></g><g style="animation:ejXQvpy3TUO35_to__to 5000ms linear infinite normal forwards" transform="translate(786 96)"><path fill="url(#ejXQvpy3TUO35-fill)" d="M824 47c8 16 7 27 6 33-9 42-86 58-113 58h-6c0 1 48 12 99 4 23-4 40-6 47-19 10-17-3-48-33-76Z" transform="translate(-786 -96)"/></g></g><g><path fill="url(#ejXQvpy3TUO37-fill)" d="m387-40-50 15c-1 4 3 144 7 301l-62-99 64 167 10 358 52-4-6-204 24-65v-37l-25 61Z"/><path fill="url(#ejXQvpy3TUO38-fill)" d="m730 130-31 104-33 51 11-325h-65l-3 184-31-89 31 120-5 298-5-15c-3 0-13-119-13-119l-8 9c-1 4 12 147 12 147l14 34-4 237 50 12 15-468 47-78Z"/><path fill="url(#ejXQvpy3TUO39-fill)" d="M893-53c-4 15-115 831-115 831h68l77-592 215-303-44 24-160 222 64-222Z"/><path fill="url(#ejXQvpy3TUO40-fill)" d="m1711-13-141 580-18 263 69-15 51-360 245-508h-64l-97 214 16-251-61 77z"/><path fill="url(#ejXQvpy3TUO41-fill)" d="M677-40c-17 95-33 188-27 189 3 1 10-25 14-24 11 2-24 201-15 203 2 0 7-11 17-43l11-325Z"/><path fill="url(#ejXQvpy3TUO42-fill)" d="M665 329c-12 45-14 75-14 94v32l-1 47-6 41c-3 25-4 34-2 35s7-13 9-12-2 17-5 40l-2 25c-4 37-11 42-10 67 0 15 3 15 3 29 0 16-3 31-9 46l22 5Z"/><path fill="url(#ejXQvpy3TUO43-fill)" d="M388-6c-19 200-24 281-19 282 4 0 12-44 16-43 8 1-31 200-3 208 6 2 12-5 18-11Z"/><path fill="url(#ejXQvpy3TUO44-fill)" d="M402 494a60 60 0 0 0-12 38c-2 26-3 41-1 41s4-15 6-15-1 16 1 41c1 16 3 21 2 34l-3 20v30l-1 16 14-1Z"/><g><path fill="url(#ejXQvpy3TUO46-fill)" d="m1314-40 2 16 43 393c2 22 20 458 20 458h70l-37-407 63-262v-320l-31 45-10 297s-42 141-39 127-36-387-36-387"/><path fill="url(#ejXQvpy3TUO47-fill)" d="M1428 353q-2-1-26 71l17 403 30-4-37-404q18-65 16-66Z" opacity=".5"/><path fill="url(#ejXQvpy3TUO48-fill)" d="M1395 307c-7 27-7 33-6 33a252 252 0 0 0 31-107l-25 74Z" opacity=".3"/><path fill="url(#ejXQvpy3TUO49-fill)" d="M1432 633c-13 75-24 94-31 94-8 0-12-22-18-21s-7 26-7 49l3 72h70l-17-194Z" opacity=".2"/><path fill="url(#ejXQvpy3TUO50-fill)" d="M1317-43c8 7 15 15 20 24 9 17 9 33 9 40 2 56 16 112 13 113s-7-27-10-26c-4 1-6 58 10 120 8 35 22 69 17 71-3 2-10-15-15-13s-6 15 3 83l10 63c9 53 21 96 20 96s-9-37-13-36 1 42 4 106c2 57-1 62 1 100 3 43 9 87 18 129h-23Z"/><path fill="url(#ejXQvpy3TUO51-fill)" d="m1439 35-5 145-39 127c16-38 32-73 37-71s-3 38-2 38l2-8 21-95c3-19 7-61-14-136Z" opacity=".6"/></g></g></g><g transform="translate(-13 37)"><g><path fill="url(#ejXQvpy3TUO54-fill)" d="M0 753c90 19 200 40 326 58 83 12 225 34 405 42 267 11 413 5 610 6 143 1 349 5 601 24l18 229-520 3-1486-13L0 753Z"/><path fill="url(#ejXQvpy3TUO55-fill)" d="M566 859c-93 7-145 16-145 24 0 17 259 19 260 46 1 21-158 42-157 50 1 13 381-15 859-56h-13c-38-1-71-11-98-24-331-51-560-50-706-40Z" opacity=".3"/><path fill="url(#ejXQvpy3TUO56-fill)" d="M1284 880c64-3 135 1 275 9 114 7 165 12 165 20 1 14-145 24-145 45 0 19 119 27 119 39 0 29-676 49-677 30-1-12 258-30 257-56-1-24-212-29-212-50 0-16 124-32 218-37Z" opacity=".1"/><path fill="url(#ejXQvpy3TUO57-fill)" d="M-52 904c241-6 394-3 395 14 1 18-175 38-174 63 2 40 450 28 452 63 3 47-794 200-843 64-18-50 68-129 170-204Z"/><path fill="url(#ejXQvpy3TUO58-fill)" d="M580 843c0 3 148 6 149 26 1 10-39 17-38 24 1 18 245-2 521 5 181 5 201 17 344 14 117-2 233-13 348-32l-370-18c-679-30-954-23-954-19Z"/><path fill="url(#ejXQvpy3TUO59-fill)" d="M0 753c117 25 241 47 371 65q87 12 170 21c-31-1-62 0-93 4-45 6-65 14-107 12-33-1-65-8-65-12 0-5 39-3 39-8 1-8-90-46-179-21-38 11-49 25-89 27-37 2-91-8-96-32-5-25 44-53 49-56Z" opacity=".2"/><path fill="url(#ejXQvpy3TUO60-fill)" d="M1294 940c0 10 160 17 161 7 1-5-40-16-75-18-41-3-86 6-86 11Z" opacity=".4"/></g><g><path fill="url(#ejXQvpy3TUO62-fill)" d="m1062-43 119 980h72l-72-675 40-82-32-8-31 47-40-299-56 37z"/><path fill="url(#ejXQvpy3TUO63-fill)" d="M1117 386q23 216 49 431l15 120h72c-7-42-14-55-19-55-9 0-14 27-19 26-8-1 4-86-1-87-4-1-12 54-21 54-11 0-21-92-20-168v-48c-3-45-11-78-16-97-11-45-24-101-40-176Z"/><path fill="url(#ejXQvpy3TUO64-fill)" d="M1181 262c1 44 1 85-3 85-5 0-13-47-14-47l12 85c10 68 13 101 20 156 15 123 40 267 43 267s-7-112-58-546Z" opacity=".5"/><path fill="url(#ejXQvpy3TUO65-fill)" d="m1128-3 30 222 31-47-29 65a96 96 0 0 1-15-36c-2-12-1-18-3-37-1-12-3-16-5-28-7-37-7-63-8-63-2 0-1 36-3 36s-6-31-7-63c0-17 0-34 2-51Z" opacity=".5"/></g><g><path fill="url(#ejXQvpy3TUO67-fill)" d="M486-104c3 9 0 1027 0 1027 1 2 14 20 37 21 26 1 40-20 41-21L551-88Z"/><path fill="url(#ejXQvpy3TUO68-fill)" d="M487 395a292 292 0 0 1 20 118l-4 185-1 59c-1 99-1 133 5 134s12-31 18-30 6 39 4 83l-43-21V774l1-313v-66Z" opacity=".4"/><path fill="url(#ejXQvpy3TUO69-fill)" d="M544-90c-33 273-34 332-28 333s18-61 26-60c10 1 7 95-5 309-10 177-18 303-11 304 6 1 16-77 22-76s2 84-8 221l24-18L554 5l-10-95Z" opacity=".6"/></g><g><g style="animation:ejXQvpy3TUO71_to__to 5000ms linear infinite normal forwards" transform="translate(368 43)"><path fill="url(#ejXQvpy3TUO71-fill)" d="M61-34c-4 5-70 84-43 142 24 52 118 75 233 48q285 106 323 49 23-35-45-129C684 29 726-6 724-31c-6-83-501-195-663-3Z" transform="translate(-368 -43)"/></g><g style="animation:ejXQvpy3TUO72_to__to 5000ms linear infinite normal forwards" transform="translate(1482 -57)"><path fill="url(#ejXQvpy3TUO72-fill)" d="M1210-52c-48 56-87 115-68 147 60 104 698-113 685-195-4-22-56-40-194-46-18-27-38-45-56-57-100-66-261-33-411 74Z" transform="translate(-1482 57)"/></g><g style="animation:ejXQvpy3TUO73_to__to 5000ms linear infinite normal forwards" transform="translate(563 110)"><path fill="url(#ejXQvpy3TUO73-fill)" d="M712-6a458 458 0 0 1-213 79c14 10 27 22 36 37 4 6 26 42 18 66-10 30-68 49-140 32 48 18 88 18 112 16 23-2 38-4 48-15 19-22 7-72-31-127 28-1 97-8 147-59 9-9 16-19 23-29Z" transform="translate(-562 -110)"/></g><g style="animation:ejXQvpy3TUO74_to__to 5000ms linear infinite normal forwards" transform="translate(1266 60)"><path fill="url(#ejXQvpy3TUO74-fill)" d="M1171-2s-10 15-10 36c1 14 5 29 12 41 17 29 107 41 223 24-63 19-116 23-154 23-49 0-89-1-102-24-20-35 30-100 31-100Z" transform="translate(-1266 -60)"/></g></g><g><path fill="url(#ejXQvpy3TUO76-fill)" d="M773-31c4 40 1 71-2 92-2 13-6 32 5 43 7 7 17 7 25 8 16 3 38 13 61 50a7488 7488 0 0 1 34 572c-1 96-6 177-11 235a138 138 0 0 0 166-1 10166 10166 0 0 0-59-1072l-122 6 1 204-68-32V-31Z"/><path fill="url(#ejXQvpy3TUO77-fill)" d="M889 508a2968 2968 0 0 1-4 461 140 140 0 0 0 166-1l-3-120c-27 37-32 67-32 87 0 8 1 22-3 23-7 2-18-45-39-47-16-1-25 26-34 24-26-5-3-224-12-225-3 0-6 24-11 24-11-1-12-136-12-158-1-68 1-75-1-108-3-48-12-96-27-142l3 44Z" opacity=".4"/><path fill="url(#ejXQvpy3TUO78-fill)" d="M785 109c7 3 11 2 20 4 6 1 11 3 16 6 11 5 17 12 24 20l17 23 5 50c12-46 15-63 12-64-2-1-7 7-11 5l-3-4-8-12c-6-10-20-28-23-26-2 1 3 9 1 11-3 2-11-8-28-17-12-6-22-9-23-8 0 1 3 3 2 4-1 2-10-2-11 0-1 1 4 5 10 8Z" opacity=".3"/><path fill="url(#ejXQvpy3TUO79-fill)" d="M918 716c3 0-3-101-6-101-2 0-5 37 1 77l5 24Z" opacity=".1"/><path fill="url(#ejXQvpy3TUO80-fill)" d="M984-104c-2 52-4 94-7 124-3 34-7 71-3 72s13-46 20-45c13 1 14 138 14 210 0 63 0 139 11 202l5 32c4 33 5 67 2 100-5 69 3 61-2 188-3 84-8 144-4 144 4 1 13-63 19-63 5 0 7 44 6 112a5088 5088 0 0 0 3-248c-2-103-6-170-15-327-6-114-8-164-14-214l-7-69-6-78c-2-32-8-79-22-140Z" opacity=".5"/></g><g><path fill="url(#ejXQvpy3TUO82-fill)" d="m1473 130 28 81c25 70 35 95 54 152a616 616 0 0 1 40 222c1 41-1 50-3 153l-2 122c0 71 4 87 4 137 0 53-3 106-10 159l224-11c-7-67-10-135-9-202 2-97 10-120 18-260 6-113 1-106 8-233 6-110 15-209 16-215 12-128 16-118 15-157-1-63-11-92-22-214l-6-76-212 35-2 348c-24-22-44-47-61-74-23-37-29-63-43-97-13-33-36-79-77-131l-74 26Z"/><path fill="url(#ejXQvpy3TUO83-fill)" d="M1584 1156c4-35 10-87 14-151 5-67 5-103 16-105 23-5 65 128 81 123 11-3-9-70 10-164 7-33 18-71 24-70 7 1 2 64 4 64 4 0 12-114 12-114 14-191 7-204 17-274 17-118 58-219 67-217 7 2-9 72-21 204-18 197 5 188-13 345-10 88-25 150-15 253 3 32 8 64 15 96Z"/><path fill="url(#ejXQvpy3TUO84-fill)" d="m1613 150 4 62c3 46 3 66 7 66 7 1 16-73 28-73 14 0 22 96 26 96s-23-114-3-253c10-72 29-122 15-129-7-4-24 5-72 66-3 30-8 99-5 165Z" opacity=".5"/><path fill="url(#ejXQvpy3TUO85-fill)" d="M1444-107c-5 3 56 107 45 114-6 4-30-26-36-22s17 33 34 84c11 33 9 41 22 75 11 27 25 54 29 53 6-2-16-79-13-80s11 63 57 91c16 9 38 20 45 13 8-7-2-32-13-48l-12-14c-18-19-29-37-47-66-4-7-14-23-25-45-25-49-24-63-44-99-18-32-39-58-42-56Z"/><path fill="url(#ejXQvpy3TUO86-fill)" d="M1821-211c-5 1-3 98 3 171 5 71 14 127 7 128s-22-58-29-57c-6 1 3 43 9 135 4 52 4 77 9 111l2 19c1 32-11 67-11 67-18 52-35 117-32 118 2 1 12-24 16-23s-1 29-4 65c-4 55 1 94-1 94-3 0-8-63-11-63s1 87 2 121c3 87 5 104 4 143l-1 31c-3 43-1 59-4 59-5 1-13-50-16-50-6 1 4 143 15 288l29-1c-6-48-9-96-10-144-2-105 9-132 17-283 5-95 1-96 8-229 2-41 4-86 9-145 6-81 10-97 14-159 4-53 7-106 6-167-3-122-25-230-31-229Z"/><path fill="url(#ejXQvpy3TUO87-fill)" d="M1802 257c-1 0 1 10-1 26s-5 18-7 32c-2 17 2 34 4 34 1 0 2-1 8-33l4-23c1-19-6-36-8-36Z"/><path fill="url(#ejXQvpy3TUO88-fill)" d="M1409-6c11 9 21 20 30 32 12 17 11 22 23 42 16 28 25 28 42 54 8 13 15 27 20 42-16-22-34-42-54-60 15 24 26 51 32 79 9 41 27 72 40 105 10 26 22 65 27 118l-57-157-38-103c-23-60-46-111-65-152Z"/><path fill="url(#ejXQvpy3TUO89-fill)" d="M1515 182c3 16 7 31 14 45 5 11 12 29 21 60 4-21 1-35-3-45-3-8-6-12-17-32l-15-28Z"/><path fill="url(#ejXQvpy3TUO90-fill)" d="M1578 433a375 375 0 0 1 34 126c-1 0-7-32-10-32-2 0 0 21 0 66v19l3 46v22c0 38-7 59-3 60 5 2 19-29 22-28s-18 43-22 100c-1 15 0 13 1 45 2 74-11 87-4 144 3 21 6 36 3 61-2 16-7 31-13 45 3-26 5-53 4-79-1-32-4-39-5-75-1-26 1-27 2-84l1-85 2-83V534l-3-39-12-62Z"/><path fill="url(#ejXQvpy3TUO91-fill)" d="m1546 323 7 8c3 5 4 10 5 13 5 14 17 24 17 23l-8-16-5-12c-3-5-7-11-16-16Z"/><path fill="url(#ejXQvpy3TUO92-fill)" d="m1605 927-3 27v32l6 27v-55c0-10-1-21-3-31Z"/><path fill="url(#ejXQvpy3TUO93-fill)" d="M1608 568a1574 1574 0 0 1 7 43c1 11-1 13-1 28l1 28a111 111 0 0 0 6-56c-2-15-6-29-13-43Z"/><path fill="url(#ejXQvpy3TUO94-fill)" d="m1615-25-1 52v72c-1 31-2 33-1 51l3 47 2 39c2 0 7-28 8-59v-28c0-20 20-75 16-77-2-1-15 22-18 21s3-15 4-37l-2-28c-2-18-6-36-11-53Z"/></g><g><path fill="url(#ejXQvpy3TUO96-fill)" d="M75-23a6968 6968 0 0 1-6 654L56 815c-6 81-14 198-19 346l225 9a18710 18710 0 0 1 8-531l9-150a3349 3349 0 0 0 241-628l-69-10a2956 2956 0 0 1-126 304c-25 49-53 98-84 144-5-58-4-115 1-173 5-57 13-85 21-151 8-61 12-123 13-185Z"/><path fill="url(#ejXQvpy3TUO97-fill)" d="M102-48c30 8-14 246 5 250 10 2 27-57 34-55 9 2-10 104-26 194-50 290-41 333-27 338 13 4 27-24 38-19 23 10-30 130-9 276 8 56 27 121 45 120 26-1 31-150 54-150 19 0 40 102 45 183 2 27 2 54 1 81l-225-9q26-370 34-740 5-222 4-444c9-14 20-27 27-25Z"/><path fill="url(#ejXQvpy3TUO98-fill)" d="M238 309c-1-25-2-62-1-107 2-69 8-148 7-148s-2 58-15 60c-10 1-18-35-25-34-18 3-5 256 19 257 5 0 10-12 15-28Z" opacity=".3"/><path fill="url(#ejXQvpy3TUO99-fill)" d="M354 107c-2-1-25 38-51 89-23 45-37 65-48 82l-29 44c23-20 42-35 46-31 9 8-49 87-45 90 3 2 47-40 87-105 46-74 70-149 62-153-6-3-28 33-34 30s14-45 12-46Z" opacity=".3"/><path fill="url(#ejXQvpy3TUO100-fill)" d="M520-139s-29 52-49 112c-7 21-11 32-13 45-3 16-2 25-8 41l-9 23-8 19-4 15c-3 14-8 27-14 41-14 33-32 56-30 57 1 1 12-13 14-12 0 0 1 2-5 14l-9 18c-8 14-7 18-16 40l-12 26c-17 36-32 59-30 60 1 1 9-12 11-11s-9 30-27 59c-10 15-13 18-21 33-10 19-15 37-14 38 2 1 13-22 14-21 2 1-12 31-11 31s48-93 99-215a3430 3430 0 0 0 142-413Z"/><path fill="url(#ejXQvpy3TUO101-fill)" d="M452 31c-1 0-6 10-10 21-4 14-5 28-4 28l6-19 5-16 3-14Z"/><path fill="url(#ejXQvpy3TUO102-fill)" d="M385 222c-1-1-7 9-10 14-7 11-12 23-11 24s6-8 9-12c8-12 13-25 12-26Z"/><path fill="url(#ejXQvpy3TUO103-fill)" d="M279 489c-2 0-6 61-15 112l-4 35c-1 18 1 28 1 39 1 27-7 34-12 64-4 24 1 17 1 91 0 31-1 41 1 62l3 34a1754 1754 0 0 0 5 234c2-45 4-115 5-200 2-125 0-143 2-228 4-141 15-243 13-243Z"/><path fill="url(#ejXQvpy3TUO104-fill)" d="M241 801c-1 13 1 26 2 26 2 0 4-47 2-47l-4 21Z"/><path fill="url(#ejXQvpy3TUO105-fill)" d="M262 682c-1 0-8 10-12 19-4 10-5 21-4 21 3 0 19-39 16-40Z"/><path fill="url(#ejXQvpy3TUO106-fill)" d="M265 512c-5 0-15 63-10 64 3 1 12-18 13-37 1-12-1-27-3-27Z"/><path fill="url(#ejXQvpy3TUO107-fill)" d="M248 72a14971 14971 0 0 0-26 94c2 1 9-19 11-18s-3 12-4 31v24c-2 15-7 17-7 28 0 10 4 9 5 22 1 9-1 13 1 22l4 12c5 14 5 22 6 22 3 0 1-47 1-47-1-38 0-97 9-190Z"/></g><g><g style="animation:ejXQvpy3TUO109_to__to 5000ms linear infinite normal forwards" transform="translate(149 -23)"><path fill="url(#ejXQvpy3TUO109-fill)" d="M-157 65a138 138 0 0 0 247 35c16 16 47 42 93 54 82 22 191-4 204-59 2-9 6-35-30-77 93-71 107-114 99-140-24-91-349-138-522 9-23 20-113 96-91 178Z" transform="translate(-149 23)"/></g><g style="animation:ejXQvpy3TUO110_to__to 5000ms linear infinite normal forwards" transform="translate(1902 18)"><path fill="url(#ejXQvpy3TUO110-fill)" d="M1652-142c-14 8-76 45-72 91 3 36 46 68 106 81 15 35 46 90 106 129 162 106 419 15 432-72 17-117-394-334-572-229Z" transform="translate(-1902 -18)"/></g></g><g><g style="animation:ejXQvpy3TUO112_to__to 5000ms linear infinite normal forwards" transform="translate(961 385)"><circle r="48.5" fill="#f5fde6" opacity=".1" transform="rotate(-11)"/></g><g style="animation:ejXQvpy3TUO113_to__to 5000ms linear infinite normal forwards" transform="translate(999 416)"><circle r="32" fill="#f5fde6" opacity=".1" transform="rotate(-11)"/></g><g style="animation:ejXQvpy3TUO114_to__to 5000ms linear infinite normal forwards" transform="translate(974 306)"><circle r="7" fill="#f5fde6" opacity=".5" transform="rotate(-11)"/></g><g style="animation:ejXQvpy3TUO115_to__to 5000ms linear infinite normal forwards" transform="translate(933 323)"><circle r="5" fill="#f5fde6" opacity=".4" transform="rotate(-11)"/></g><g style="animation:ejXQvpy3TUO116_to__to 5000ms linear infinite normal forwards" transform="translate(204 545)"><g style="animation:ejXQvpy3TUO116_ts__ts 5000ms linear infinite normal forwards"><ellipse fill="#f5fde6" opacity=".2" rx="75" ry="76.6"/></g></g><g style="animation:ejXQvpy3TUO117_to__to 5000ms linear infinite normal forwards" transform="translate(452 383)"><ellipse fill="#deefbf" filter="url(#ejXQvpy3TUO117-filter)" opacity=".2" rx="75" ry="76.6" transform="scale(3)"/></g><g style="animation:ejXQvpy3TUO118_to__to 5000ms linear infinite normal forwards" transform="translate(175 621)"><g style="animation:ejXQvpy3TUO118_ts__ts 5000ms linear infinite normal forwards"><ellipse fill="#f5fde6" opacity=".1" rx="34.9" ry="35.7"/></g></g></g></g></svg>
