<svg xmlns="http://www.w3.org/2000/svg" width="198" height="146" fill="none"><path fill="#fff" fill-rule="evenodd" d="M58.2 68.5a1 1 0 1 1 .7 2 1 1 0 0 1-.7-2" clip-rule="evenodd"/><path fill="#9C9C9C" fill-rule="evenodd" d="M4.3 88.6c5 7.2 10.8 4.5 17 5.3l4.8 14.5c2 7.6-1.5 17 .8 18.3 2.5-.8.7-6.8 2.8-10.7 5.1 5.6 3.3 10.4 12.5 13.5 1.6 4 2.4 19.2 8.6 14.6.1-2.4-2.6-3.1-3.6-5.7-.8-1.7-1.3-6.2-1.6-8.3 11.5-.6 8-2.2 13.2-3.7.8 1.8 2.8 5.2 3.2 6.9.7 2.7-1.3 5 .6 6.9 8.3-.4-2.1-13.4-1.3-16.9.6-2.8 1.9-3.2 2.2-7.8.2-3.1-3.5-10.3-3.4-12 4.6 2.7 6.3 7.6 8.1 6.5-6.6-9.3-10.9-15-15.2-25.2 10.3-.2 30.5-13.5 11.5-23.7-11.6-5.6-24 3.1-20 17.8-6.1.8-8.5.2-15.5 1.8-13.8-29.1-36.6-6.4-24.7 7.9" clip-rule="evenodd"/><path stroke="#000" stroke-width="1.8" d="M4.3 88.6c5 7.2 10.8 4.5 17 5.3l4.8 14.5c2 7.6-1.5 17 .8 18.3 2.5-.8.7-6.8 2.8-10.7 5.1 5.6 3.3 10.4 12.5 13.5 1.6 4 2.4 19.2 8.6 14.6.1-2.4-2.6-3.1-3.6-5.7-.8-1.7-1.3-6.2-1.6-8.3 11.5-.6 8-2.2 13.2-3.7.8 1.8 2.8 5.2 3.2 6.9.7 2.7-1.3 5 .6 6.9 8.3-.4-2.1-13.4-1.3-16.9.6-2.8 1.9-3.2 2.2-7.8.2-3.1-3.5-10.3-3.4-12 4.6 2.7 6.3 7.6 8.1 6.5-6.6-9.3-10.9-15-15.2-25.2 10.3-.2 30.5-13.5 11.5-23.7-11.6-5.6-24 3.1-20 17.8-6.1.8-8.5.2-15.5 1.8-13.8-29.1-36.6-6.4-24.7 7.9"/><path fill="#E2006C" fill-rule="evenodd" stroke="#000" stroke-width="1.8" d="M9.4 72.7C.6 78.9 12.8 95.2 22 87.8c8.5-6.8-3.5-21.4-12.5-15.1ZM52.5 67.9c-5.4 4-3.9 19.1 8.6 10 9.9-7.2-.9-15.7-8.6-10Z" clip-rule="evenodd"/><path fill="#FCFCFC" fill-rule="evenodd" d="M34.6 92.3c-5.8 3.5-1.8 11.5 5 7.4 6-3.5 0-10.4-5-7.4Z" clip-rule="evenodd"/><path fill="#1A1A18" fill-rule="evenodd" d="m35.7 95.7 2 2.5c.1-1.1.5-2.7.5-3.4-.9-.3-1.8-.6-2.5 1" clip-rule="evenodd"/><path fill="#fff" fill-rule="evenodd" d="M47 88.2a2 2 0 1 1 1.2 3.8 2 2 0 0 1-1.3-3.8M27.3 93a2 2 0 1 1 1.3 3.8 2 2 0 0 1-1.3-3.8" clip-rule="evenodd"/><path fill="#000004" fill-rule="evenodd" stroke="#1A1A18" stroke-miterlimit="22.9" stroke-width=".8" d="M47.6 89.7a.5.5 0 1 1 .3 1 .5.5 0 0 1-.3-1ZM28 94.6a.5.5 0 1 1 .3 1 .5.5 0 0 1-.3-1Z" clip-rule="evenodd"/><path fill="#fff" fill-rule="evenodd" d="M10.2 76a1.3 1.3 0 1 1 .8 2.5 1.3 1.3 0 0 1-.8-2.6M17.8 75.2a1 1 0 1 1 .6 2 1 1 0 0 1-.6-2ZM15.7 80.3a1 1 0 1 1 .6 2 1 1 0 0 1-.6-2ZM21.4 80a1 1 0 1 1 .6 2 1 1 0 0 1-.6-2ZM16.8 85.6a1 1 0 1 1 .7 2 1 1 0 0 1-.7-2M10.5 82.4a1 1 0 1 1 .6 2 1 1 0 0 1-.6-2ZM54 69.4a1 1 0 1 1 .7 2 1 1 0 0 1-.7-2M52.9 76.2a1 1 0 1 1 .6 2 1 1 0 0 1-.6-2M57.6 74.4a1 1 0 1 1 .6 2 1 1 0 0 1-.6-2" clip-rule="evenodd"/><path fill="#000004" fill-rule="evenodd" d="m19.5 103 12.4-3.6.1.3-12.4 3.6-.1-.3ZM19.8 104.2l12.3-4 .1.3-12.3 4-.1-.3ZM20.3 105.6l12-4.7.2.3-12 4.7-.2-.3ZM54.7 90.2l-11.9 5.2.2.3 11.8-5.2-.1-.3ZM55.2 91.3l-12 4.9.1.3 12-4.8v-.4ZM55.7 92.7 43.4 97l.2.3 12.2-4.1v-.4Z" clip-rule="evenodd"/><path fill="#575656" fill-rule="evenodd" d="M155.9 71.6c-1.2 5.6 2.7 7.3 5.2 10.6l-4.8 8.9c-2.8 4.3-8.8 7-8.4 8.7 1.5.8 3.6-2.8 6.4-3.5-.4 5-3.5 6.2-.8 12-1.2 2.6-8.2 10-3.1 10.8 1.2-1 .3-2.6 1-4.3.6-1.1 2.5-3.4 3.3-4.5 5.6 5.2 4.7 2.8 7.8 4.6-.5 1.2-1.2 3.7-1.8 4.7-1 1.6-3 1.6-3 3.4 3.9 3.8 5.4-7 7.4-8.3 1.6-1 2.4-.5 4.8-2.5 1.6-1.3 3.3-6.3 4.2-7 .8 3.4-.8 6.4.6 6.8 1.4-7.4 2.2-12 5.1-18.7 4.8 4.8 20.4 8.5 16.7-5.3-2.6-8.1-12.5-10-17.7-1.5-3.2-2.6-4-4-8-6.6 7.8-19.9-13.4-20.5-14.9-8.3" clip-rule="evenodd"/><path stroke="#000" stroke-width="1.8" d="M155.9 71.6c-1.2 5.6 2.7 7.3 5.2 10.6l-4.8 8.9c-2.8 4.3-8.8 7-8.4 8.7 1.5.8 3.6-2.8 6.4-3.5-.4 5-3.5 6.2-.8 12-1.2 2.6-8.2 10-3.1 10.8 1.2-1 .3-2.6 1-4.3.6-1.1 2.5-3.4 3.3-4.5 5.6 5.2 4.7 2.8 7.8 4.6-.5 1.2-1.2 3.7-1.8 4.7-1 1.6-3 1.6-3 3.4 3.9 3.8 5.4-7 7.4-8.3 1.6-1 2.4-.5 4.8-2.5 1.6-1.3 3.3-6.3 4.2-7 .8 3.4-.8 6.4.6 6.8 1.4-7.4 2.2-12 5.1-18.7 4.8 4.8 20.4 8.5 16.7-5.3-2.6-8.1-12.5-10-17.7-1.5-3.2-2.6-4-4-8-6.6 7.8-19.9-13.4-20.5-14.9-8.3"/><path fill="#E3000F" fill-rule="evenodd" stroke="#000" stroke-width="1.8" d="M164.3 65.8c-7-.7-8 12.8-.3 13 7.2.2 7.5-12.3.3-13ZM187.7 85.3c-4.3-.8-11 6.9-.9 8.7 8 1.4 7.2-7.5 1-8.7Z" clip-rule="evenodd"/><path fill="#FCFCFC" fill-rule="evenodd" d="M168 87.8c-4.4-1.1-6.4 4.4-1.4 5.8 4.4 1.2 5-4.8 1.3-5.8Z" clip-rule="evenodd"/><path fill="#1A1A18" fill-rule="evenodd" d="m166.8 90-.3 2 1.8-1.3c-.2-.6-.5-1.1-1.5-.8Z" clip-rule="evenodd"/><path fill="#fff" fill-rule="evenodd" d="M175.5 91.9a1.3 1.3 0 1 1-1.3 2.3 1.3 1.3 0 0 1 1.3-2.3ZM164.2 84.7A1.3 1.3 0 1 1 163 87a1.3 1.3 0 0 1 1.2-2.3Z" clip-rule="evenodd"/><path fill="#000004" fill-rule="evenodd" stroke="#1A1A18" stroke-miterlimit="22.9" stroke-width=".8" d="M175 92.9a.3.3 0 1 1-.3.6.3.3 0 0 1 .3-.6ZM163.8 85.7a.3.3 0 1 1-.4.6.3.3 0 0 1 .4-.6Z" clip-rule="evenodd"/><path fill="#fff" fill-rule="evenodd" d="M163.3 67.8a.9.9 0 1 1-.7 1.6.9.9 0 0 1 .7-1.6ZM167.4 70.7a.7.7 0 1 1-.5 1.3.7.7 0 0 1 .5-1.3ZM164.2 72.3a.7.7 0 1 1-.6 1.3.7.7 0 0 1 .6-1.3ZM167.2 74.6a.7.7 0 1 1-.6 1.3.7.7 0 0 1 .6-1.3ZM162.4 75.5a.7.7 0 1 1-.5 1.3.7.7 0 0 1 .5-1.3M160.7 71.1a.7.7 0 1 1-.6 1.3.7.7 0 0 1 .6-1.3ZM187.7 86.7a.7.7 0 1 1-.7 1.2.7.7 0 0 1 .7-1.2ZM183.9 89.3a.7.7 0 1 1-.7 1.2.7.7 0 0 1 .7-1.2M186.9 90.7a.7.7 0 1 1-.7 1.3.7.7 0 0 1 .7-1.3Z" clip-rule="evenodd"/><path fill="#000004" fill-rule="evenodd" d="m155.9 85.4 7.4 4.3-.1.2-7.4-4.3.1-.2ZM155.5 86.1l7.5 4.1-.1.2-7.5-4V86ZM155 87l7.8 3.7-.1.2-7.8-3.7.1-.2ZM178 96.5l-7.9-3.3v.2l7.8 3.3.1-.2ZM177.7 97.3l-7.8-3.6v.2l7.7 3.6.1-.2ZM177.3 98.2l-7.6-4-.1.2 7.6 4v-.2Z" clip-rule="evenodd"/><path fill="#fff" fill-rule="evenodd" d="M189.8 89.5a.7.7 0 1 1-.6 1.2.7.7 0 0 1 .6-1.2" clip-rule="evenodd"/><path fill="#575656" fill-rule="evenodd" d="M94.2 13.8c.7 6.7 5.7 7 9.6 9.9l-2 11.6c-1.5 5.9-7.3 11-6.3 12.8 2 .3 3-4.4 6-6.3 1.3 5.7-1.7 8.3 3.5 13.8-.4 3.3-5.5 14 .4 13.1 1-1.6-.6-3-.4-5.2.2-1.5 1.5-4.7 2-6.3 8 3.8 6.3 1.5 10.4 2.3-.1 1.6 0 4.6-.3 6-.6 2-2.8 2.9-2.2 4.8 5.8 2.9 3.5-9.8 5.3-11.9 1.4-1.7 2.5-1.5 4.4-4.5 1.3-2 1.4-8.3 2-9.4 2.2 3.5 1.6 7.5 3.3 7.4-1.1-8.7-2-14.2-1.2-22.8 7.1 3.7 25.8 2 16.6-11.9-5.9-8-17.5-6.6-20.2 4.8-4.4-1.7-5.9-3-11.2-4.5 1.3-25-22.5-17.8-19.7-3.7" clip-rule="evenodd"/><path stroke="#000" stroke-width="1.8" d="M94.2 13.8c.7 6.7 5.7 7 9.6 9.9l-2 11.6c-1.5 5.9-7.3 11-6.3 12.8 2 .3 3-4.4 6-6.3 1.3 5.7-1.7 8.3 3.5 13.8-.4 3.3-5.5 14 .4 13.1 1-1.6-.6-3-.4-5.2.2-1.5 1.5-4.7 2-6.3 8 3.8 6.3 1.5 10.4 2.3-.1 1.6 0 4.6-.3 6-.6 2-2.8 2.9-2.2 4.8 5.8 2.9 3.5-9.8 5.3-11.9 1.4-1.7 2.5-1.5 4.4-4.5 1.3-2 1.4-8.3 2-9.4 2.2 3.5 1.6 7.5 3.3 7.4-1.1-8.7-2-14.2-1.2-22.8 7.1 3.7 25.8 2 16.6-11.9-5.9-8-17.5-6.6-20.2 4.8-4.4-1.7-5.9-3-11.2-4.5 1.3-25-22.5-17.8-19.7-3.7"/><path fill="#009EE3" fill-rule="evenodd" stroke="#000" stroke-width="1.8" d="M103.5 4.9c-8.3 1-6 16.5 3 14.9 8.2-1.6 5.4-16-3-15Z" clip-rule="evenodd"/><path fill="#009EE3" fill-rule="evenodd" d="M134.6 17.4c-5.2.7-9.7 11.7 2.2 10 9.4-1.3 5.1-11-2.2-10" clip-rule="evenodd"/><path stroke="#000" stroke-width="1.8" d="M134.6 17.4c-5.2.7-9.7 11.7 2.2 10 9.4-1.3 5.1-11-2.2-10"/><path fill="#FCFCFC" fill-rule="evenodd" d="M113.5 27.5c-5.3.3-5.5 7.1.6 6.9 5.4-.3 3.8-7.2-.6-7Z" clip-rule="evenodd"/><path fill="#1A1A18" fill-rule="evenodd" d="m113 30.2.4 2.4 1.6-2c-.5-.7-1-1.2-2-.4" clip-rule="evenodd"/><path fill="#fff" fill-rule="evenodd" d="M123.3 29.2a1.6 1.6 0 1 1-.5 3 1.6 1.6 0 0 1 .5-3M108.2 25.3a1.6 1.6 0 1 1-.5 3 1.6 1.6 0 0 1 .5-3Z" clip-rule="evenodd"/><path fill="#000004" fill-rule="evenodd" stroke="#1A1A18" stroke-miterlimit="22.9" stroke-width=".8" d="M123.2 30.5c.3 0 .4.2.4.4a.4.4 0 1 1-.4-.4ZM108 26.6a.4.4 0 1 1 0 .8.4.4 0 0 1 0-.8Z" clip-rule="evenodd"/><path fill="#fff" fill-rule="evenodd" d="M102.8 7.4a1 1 0 1 1-.4 2 1 1 0 0 1 .4-2ZM108.3 9.6a.8.8 0 1 1-.3 1.6.8.8 0 0 1 .3-1.6M105 12.3a.8.8 0 1 1-.3 1.6.8.8 0 0 1 .3-1.6M109 14.2a.8.8 0 1 1-.3 1.6.8.8 0 0 1 .3-1.6M103.8 16.4a.8.8 0 1 1-.3 1.6.8.8 0 0 1 .3-1.6M100.6 11.9a.8.8 0 1 1-.2 1.6.8.8 0 0 1 .2-1.6ZM135 19a.8.8 0 1 1-.2 1.6.8.8 0 0 1 .3-1.6M131.8 23.2a.8.8 0 1 1-.3 1.6.8.8 0 0 1 .3-1.6ZM135.6 23.8a.8.8 0 1 1-.2 1.6.8.8 0 0 1 .2-1.6" clip-rule="evenodd"/><path fill="#000004" fill-rule="evenodd" d="m99.2 29.2 9.8 2.1v.3l-9.8-2.2v-.2ZM99 30.1l9.8 1.8v.3l-9.9-1.8V30ZM98.8 31.3l10 1.2v.3l-10-1.3v-.2ZM127.9 33.4l-10-.8v.3l10 .8v-.3ZM127.8 34.4l-10-1.1v.2l10 1.2v-.3ZM127.7 35.5l-10-1.6v.2l10 1.7v-.3Z" clip-rule="evenodd"/><path fill="#fff" fill-rule="evenodd" d="M138.4 21.3a.8.8 0 1 1-.2 1.6.8.8 0 0 1 .2-1.6Z" clip-rule="evenodd"/><path fill="#FFED00" fill-rule="evenodd" stroke="#000" stroke-width="1.8" d="M148.6 80.4c-4.3 0-44.9 4.6-52.7 5.8-5.2.7-2.3 0-5.1 4a8.8 8.8 0 0 1-13.8 1c-2.8-2.7-1.5-2.7-6.7-2.1-17.9 2-14 3.8-13.8 45.5 0 11.9 6 8.5 28.7 6.1 11.3-1.2 24-2.9 35.6-3.6-2.4-3-7-6.2-5.6-13.1 1-5.3 5.1-8.9 10.7-9.7 12.7-1.8 19 10.1 11.8 21 21.7-2.4 16.7 2 16.8-41.6 0-7.2 1.7-13-5.7-13.3h-.2Zm-9.2 5.5c8.3-.3 11.8 12.2 3.7 15.8-9.7 4.1-19.8-9-7.5-14.8 1.4-.6 2.7-.9 3.8-1Zm-27.7 6.5h.2c4 .1 7 4.2 4 10-10 3.2-13-5.6-8-8.8a7 7 0 0 1 3.8-1.2ZM78 113.9h.3c9.8.3 13.7 15.3 2.7 18.7-12.7 4-20.2-12.7-7.2-17.8 1.5-.6 3-1 4.2-1Zm27 .5h.8c1 .2 1.6.6 2.2 1.3.6.6 1 1.6 1.2 2.5.3.8.2 1.6 0 2.5a6 6 0 0 1-1.1 2.3c-.6.6-1.2 1-2 1.1-.8.2-1.8.2-3-.2-1.3-.5-2.8-1.4-3.7-2-1-.7-1.2-1-1.3-1.3a3 3 0 0 1 0-1.6 4 4 0 0 1 1.1-2.2c.8-.7 2-1.5 3.3-2 .9-.3 1.8-.4 2.6-.4Z" clip-rule="evenodd"/><path fill="#FFED00" fill-rule="evenodd" d="M152.1 75.9c.2-4.5-5-5.5-8.3-7.4l-10.3-6-21-12C99.8 43.2 104.7 47 84.2 63c-2.9 2.3-26 21.6-24.6 23.8 1.7 2.6 26.5-2 30.4-2.5 10.2-1.3 56.2-6.1 62-8.5" clip-rule="evenodd"/><path stroke="#000" stroke-width="1.8" d="M152.1 75.9c.2-4.5-5-5.5-8.3-7.4l-10.3-6-21-12C99.8 43.2 104.7 47 84.2 63c-2.9 2.3-26 21.6-24.6 23.8 1.7 2.6 26.5-2 30.4-2.5 10.2-1.3 56.2-6.1 62-8.5"/></svg>
