<svg xmlns="http://www.w3.org/2000/svg" width="243" height="182" fill="none"><g filter="url(#a)"><path fill="#F7F7F7" stroke="#000" stroke-width="2.1" d="M61.5 25.6c6 0 10.9-4.8 10.9-10.7 0-6-5-10.8-11-10.8S50.6 9 50.6 15c0 5.9 5 10.7 11 10.7Z"/><path fill="#000" stroke="#000" stroke-width="2.1" d="M59.1 11.5c.6 0 1-.5 1-1 0-.6-.4-1.1-1-1.1a1 1 0 0 0-1 1c0 .6.5 1.1 1 1.1ZM65.8 15.8a1.2 1.2 0 1 0 0-2.3 1.2 1.2 0 0 0 0 2.3Z"/><path stroke="#000" stroke-width="2.1" d="M55 16c.6 1 1.3 2.1 2 2.9a4 4 0 0 0 2.7 1c1 .1 2.3 0 3.6-.2M51.9 9c0-1.6-.1-3.3-.4-4.7A14 14 0 0 0 50.4 1M51.9 9l-6-6.4M51.9 9C50.5 8.5 49 8 47.8 7.6c-1.3-.2-2.4-.1-3.5 0M51.9 9c-1.4.4-2.8.8-4 1.3-1 .5-1.8 1.3-2.6 2M71.6 18.7l3.3 7.2M71.6 18.7c2 .4 4 .9 5.2 1.4 1.3.5 1.9 1 2.5 1.5M71.6 18.7c1.2-1.2 2.5-2.3 3.6-3.1 1-.9 2-1.4 3-2M54.3 28.5l-26.2-10M28 18.5l-1-7.7M28 18.5a7.3 7.3 0 0 0-2.8-1.8c-1.2-.4-2.7-.3-4.2-.3M28 18.5l-5 3.3M63.2 32.4h26.9M90 32.3c.4-1.6.6-3.2 1-4.3.4-1 .8-1.5 1.3-2M90 32.3l5.7-1.2 2.8-.3M90 32.3l3.8 2.8c1 .8 2 1.2 3 1.7"/><path fill="#ED7B34" stroke="#000" stroke-width="2.1" d="M54.9 24.7c-.6.8-1.5 2.4-2 4.4a23 23 0 0 0-.7 7A137 137 0 0 0 54 50.8c.3 1.4.5 1.8.7 2.2L72 46l-5.4-10-3.7-6.2a32 32 0 0 1-1.7-3.1c-.3-.7-.3-1-1-1.2l-2.7-.7-1.6-.6c-.3-.2-.5-.3-1 .5Z"/><path stroke="#000" stroke-width="2.1" d="M63.8 93.8c0-8.7.2-17.4.4-26M82.4 58.2l22.3 17.6"/><path fill="#FDCA01" stroke="#000" stroke-width="2.1" d="M54.6 53c.8 4.3 1.5 8.5 1.9 11.6.3 3.2.3 5.4.4 6.6.1 1.2.3 1.5 1.5 1 1.2-.4 3.4-1.6 7.6-3.7 4.2-2 10.2-5 14.2-6.8 4-2 5.8-2.8 6.6-3.7.7-.8.3-1.7-1.2-2.9l-6.6-4a94.4 94.4 0 0 1-7-5.1l-17.4 7Z"/><path fill="#ED7B34" stroke="#000" stroke-width="2.1" d="M63.4 93.3c-.4-.5-1.2-1.4-2.5-2a7.7 7.7 0 0 0-4.7 0 6.7 6.7 0 0 0-3.6 2.6 5.8 5.8 0 0 0-.9 3.3c0 1 .2 1.7.7 1.8.5.1 1.2-.3 2.4-1l4.7-2.3 3.1-1.4 1-.5-.2-.5Z"/><path fill="#FDCA01" d="M104.7 75.8c-.2-1-.3-1.8-.3-2.8 0-1 .3-2.3 1-3.2.7-1 1.8-1.7 3-2.2 1-.5 2-.8 3-.7 1.1 0 2.1.3 2.6.6.5.4.5.8 0 1.4l-3.1 2.6c-1.5 1.2-3.4 2.8-4.5 3.5-1.1.8-1.4.8-1.7.8"/><path stroke="#000" stroke-width="2.1" d="M104.7 75.8c-.2-1-.3-1.8-.3-2.8 0-1 .3-2.3 1-3.2.7-1 1.8-1.7 3-2.2 1-.5 2-.8 3-.7 1.1 0 2.1.3 2.6.6.5.4.5.8 0 1.4l-3.1 2.6c-1.5 1.2-3.4 2.8-4.5 3.5-1.1.8-1.4.8-1.7.8"/><path fill="#fff" stroke="#000" stroke-width="2.1" d="M138.2 70.3c5.8 0 10.6-5 10.6-11s-4.8-10.9-10.6-10.9c-6 0-10.7 5-10.7 11s4.8 10.9 10.7 10.9Z"/><path fill="#000" stroke="#000" stroke-width="2.1" d="M135.8 57.6c.7 0 1.3-.6 1.3-1.2 0-.7-.6-1.2-1.3-1.2-.6 0-1.2.5-1.2 1.2 0 .6.6 1.2 1.2 1.2ZM143.2 59.2c.7 0 1.2-.5 1.2-1.3 0-.7-.5-1.3-1.2-1.3s-1.2.6-1.2 1.3c0 .8.5 1.3 1.2 1.3Z"/><path stroke="#000" stroke-width="2.1" d="M133.8 61.5c1.2 1.3 2.4 2.6 3.8 3 1.5.5 3.2.2 5-.2M138.1 48.4l-12.3-7.2M138.1 48.4v-9M138.1 48.4l6.3-6M131.7 73.2 110 56.4M110 56.4V52c-.2-1.3-.7-2.3-1-3.3M110 56.4c-2-.5-4.1-1-5.4-1.5a6.7 6.7 0 0 1-2.2-1.3M110 56.4l-3.7 2.3c-1 .6-1.7.9-2.5 1.2M139.4 74.4l25.9-13M165.3 61.4c.2-1.4.4-2.7.8-3.8.4-1 1-1.9 1.5-2.6M165.3 61.4l4.4-1 3.5-.4M165.3 61.4l3.5 3a9 9 0 0 0 1.8 1.2M126 111.2l-8.3 24.8M142.7 111l4.2 25.3"/><path fill="#018FD7" stroke="#000" stroke-width="2.1" d="M132.2 69.7c-.5.9-1.5 2.5-3.4 6.6-1.8 4-4.4 10.5-7 17l24.2 1c-1.6-7-3.2-14-4.3-18-1.1-4-1.7-5-2.2-5.5-.5-.6-1-.6-1.7-.7l-2.7-.3c-.9-.2-1.4-.5-1.7-.7l-.6-.2-.6.8Z"/><path fill="#A1DAF7" stroke="#000" stroke-width="2.1" d="M121.8 93.3c-2.5 5.1-5 10.3-6.3 13.3-1.2 3-1 3.8.3 4.4 1.3.6 4 1 7.5 1.2l12.8.7c4.5.2 9 .5 11.3.4 2.2-.2 2.3-.8 1.9-2.6-.4-1.8-1.3-4.8-1.9-7.7-.6-3-1-5.9-1.4-8.8l-24.2-1Z"/><path fill="#018FD7" stroke="#000" stroke-width="2.1" d="M117.2 135.5c-.5-.5-1.4-1.4-2.7-2-1.3-.7-2.9-1-4.3-.8a6 6 0 0 0-3.4 2c-.8.9-1 1.9-1 2.4.2.5.9.5 2.3.4 1.4 0 3.7 0 5.4-.2 1.7-.1 3-.3 3.6-.5.6-.3.6-.5.6-.8l-.5-.5Z"/><path fill="#A1DAF7" stroke="#000" stroke-width="2.1" d="M147.3 136.4c.3.6 1 1.4 2.3 1.8 1.4.5 3.5.6 5.2.6 1.6 0 3-.2 3.5-.8.5-.5.2-1.4-.5-2.2a6.4 6.4 0 0 0-3-2 9.3 9.3 0 0 0-4.2-.2c-1.3.3-2.3.8-2.9 1.3-.6.5-.7 1-.4 1.5Z"/><path fill="#fff" stroke="#000" stroke-width="2.1" d="m171.7 69.8-.2-5c.1-1.4.4-2 .8-2.1.4-.1 1 .2 1.7.8.6.7 1.2 1.8 1.8 3 .5 1 .9 2.3.3 3-.6 1-2.1 1.4-3 1.6-1 .1-1.2 0-1.4-1.3ZM185.6 72.7a28.8 28.8 0 0 1 7.5-.7c1.2 0 1.7.4 2 .9.2.4.1 1-.7 1.8-.9.7-2.6 1.5-3.8 2-1.3.6-2 .8-2.9.3a7 7 0 0 1-2-2.4l-.6-1.5c0-.3 0-.3.5-.4Z"/><path fill="#fff" stroke="#000" stroke-width="2.1" d="M178.2 87.7c5.6 0 10.1-4.1 10.1-9.2 0-5-4.5-9.2-10-9.2-5.6 0-10.1 4.1-10.1 9.2s4.5 9.2 10 9.2Z"/><path fill="#000" stroke="#000" stroke-width="2.1" d="M177.6 74.7c.5 0 .9-.4.9-.9 0-.4-.4-.8-.9-.8s-.9.4-.9.8c0 .5.4.9 1 .9Z"/><path fill="#fff" stroke="#000" stroke-width="3" d="M182.6 80.3c1.2 0 2.2-1 2.2-2.3 0-1.2-1-2.2-2.2-2.2-1.2 0-2.1 1-2.1 2.2 0 1.3 1 2.3 2.1 2.3Z"/><path stroke="#000" stroke-width="2.1" d="M172 80.7c.9 1 1.7 2 2.8 2.6 1 .6 2.4.8 3.6 1"/><path stroke="#000" d="m175.8 79.8-.1-1.5h1.3"/><path stroke="#000" stroke-width="2.1" d="M179.7 101.2c-4.4 2.8-9 5.6-11.4 6.8-2.5 1.3-3.1 1-3.9.5l-2.6-2.1M194 121.4a92 92 0 0 1-3.4 13.7c-1.3 3.2-2.8 4.4-4.3 5.5M206.5 119.2c4.2 1 8.3 2 10.8 2.9 2.5.9 3.4 1.7 4.3 2.5"/><path fill="#ED7B34" stroke="#000" stroke-width="2.1" d="M177.7 88.2c-.4.5-1.2 1.6-1.4 3.8-.2 2.3.3 5.7 1.3 8.7a55.8 55.8 0 0 0 13.7 20.6c3.1 2.7 6 3.4 8.4 3.6 2.4 0 4.1-.4 5.4-1.2a5.9 5.9 0 0 0 2.6-3.1c.5-1.3.5-2.7.2-5-.4-2.4-1-5.7-2.2-8.8a34.4 34.4 0 0 0-12-14.9 47.5 47.5 0 0 0-7-4c-1.8-.8-2.7-1-4-1-1.1.1-2.5.5-3.4.7h-1l-.6.6Z"/><path stroke="#000" stroke-width="2.1" d="M180.8 95.5c-4.6 1.7-9.2 3.4-12 4-3 .8-4.1.4-5-.3-1-.7-1.8-1.9-2.5-3M199.5 120.5l.6 10.4c.3 2.9.5 4.8 0 6.4-.6 1.5-2 2.7-3.4 3.8"/></g><defs><filter id="a" width="241.4" height="181.4" x="1" y=".6" color-interpolation-filters="sRGB" filterUnits="userSpaceOnUse"><feFlood flood-opacity="0" result="BackgroundImageFix"/><feColorMatrix in="SourceAlpha" result="hardAlpha" values="0 0 0 0 0 0 0 0 0 0 0 0 0 0 0 0 0 0 127 0"/><feMorphology in="SourceAlpha" radius="5" result="effect1_dropShadow_224_773"/><feOffset dy="20"/><feGaussianBlur stdDeviation="12.5"/><feComposite in2="hardAlpha" operator="out"/><feColorMatrix values="0 0 0 0 0 0 0 0 0 0 0 0 0 0 0 0 0 0 0.1 0"/><feBlend in2="BackgroundImageFix" result="effect1_dropShadow_224_773"/><feBlend in="SourceGraphic" in2="effect1_dropShadow_224_773" result="shape"/></filter></defs></svg>
