<svg aria-hidden="true" style="position:absolute;width:0;height:0;overflow:hidden" xmlns="http://www.w3.org/2000/svg">
  <defs>
    <symbol id="arrow-left" viewBox="0 0 24 24">
      <path d="m10.875 19.3l-6.6-6.6q-.15-.15-.213-.325T4 12q0-.2.063-.375t.212-.325l6.6-6.6q.275-.275.688-.287t.712.287q.3.275.313.688T12.3 6.1L7.4 11h11.175q.425 0 .713.288t.287.712q0 .425-.287.713t-.713.287H7.4l4.9 4.9q.275.275.288.7t-.288.7q-.275.3-.7.3t-.725-.3Z" />
    </symbol>
    <symbol id="arrow-right" viewBox="0 0 24 24">
      <path d="M11.3 19.3q-.275-.275-.288-.7t.263-.7l4.9-4.9H5q-.425 0-.713-.288T4 12q0-.425.288-.713T5 11h11.175l-4.9-4.9q-.275-.275-.263-.7t.288-.7q.275-.275.7-.275t.7.275l6.6 6.6q.15.125.213.313t.062.387q0 .2-.062.375t-.213.325l-6.6 6.6q-.275.275-.7.275t-.7-.275Z" />
    </symbol>
    <symbol id="arrow-double-right" viewBox="0 0 24 24">
      <path d="M5.7 17.3q-.28-.28-.28-.7t.28-.7L9.57 12 5.7 8.1q-.28-.28-.29-.69t.29-.71q.28-.28.7-.28t.7.28l4.6 4.6q.15.15.21.33t.06.37q0 .2-.06.38t-.21.32l-4.6 4.6q-.28.27-.69.29t-.71-.29Zm6.6 0q-.28-.28-.28-.7t.28-.7l3.88-3.9-3.88-3.9q-.28-.28-.29-.69t.29-.71q.28-.28.7-.28t.7.28l4.6 4.6q.15.15.21.33t.06.37q0 .2-.06.38t-.21.32l-4.6 4.6q-.27.27-.69.29t-.71-.29Z" />
    </symbol>
  </defs>
</svg>
