<svg xmlns="http://www.w3.org/2000/svg" xml:space="preserve" width="132.911" height="133.333" viewBox="0 0 35.166 35.278"><path fill="#1e293f" d="M20.253 25.656s5.22-14.46-15.227-22.085c0 0-9.108 20.752 12.876 24.578 0 0-6.972-8.31-7.431-13.553 0 0 6.234 9.43 9.782 11.06m-3.493 5.97c-7.622-.338-13.484-7.715-13.094-16.475.075-1.695.385-3.316.882-4.829a20.893 20.893 0 0 1 .086-3.744C1.967 9.461.22 13.474.019 17.982c-.41 9.19 5.741 16.928 13.736 17.283 5.378.24 10.217-2.925 12.936-7.817-2.622 2.739-6.136 4.347-9.931 4.179"/><path fill="#85d999" d="M21.411.013c-3.359-.15-6.507 1.029-9.06 3.127.626.357 1.217.722 1.773 1.092 1.36-.438 2.8-.647 4.283-.58 1.999.088 3.864.685 5.54 1.64-2.109.85-3.842 1.848-5.263 2.926 1.863 2.31 2.905 4.59 3.43 6.685a78.603 78.603 0 0 0 1.976-1.906c-.307 1.053-.92 2.182-1.693 3.308.538 3.503-.279 6.334-.796 7.677 13.667-4.035 9.974-20.74 9.974-20.74-.623.101-1.214.218-1.798.338-2.3-2.107-5.184-3.426-8.366-3.567zM34.063 10.084c-.282 2.506-.99 5.403-2.593 7.938.049.691.062 1.393.03 2.105-.216 4.866-2.318 9.132-5.447 11.908 5.087-2.414 8.796-8.034 9.094-14.74a18.68 18.68 0 0 0-1.084-7.211"/></svg>