<svg xmlns="http://www.w3.org/2000/svg" xmlns:xlink="http://www.w3.org/1999/xlink" fill="none" viewBox="0 0 1422 833"><g filter="url(#a)"><g clip-path="url(#b)"><g clip-path="url(#c)"><path fill="url(#d)" d="M1465 0H0v824h1465V0Z"/><path fill="url(#e)" d="M867 34h247v246H867z"/><path fill="#B7F9F9" d="M92-90 256 20c209 140 274 189 381 232 0 0 94 38 211 59 304 53 579-48 711-106l-13-101c-39 37-82 69-129 95a756 756 0 0 1-484 70 996 996 0 0 1-246-70C578 155 403 68 226-111L92-90Z" opacity=".4"/><path fill="#B7F9F9" d="M-17 15a7513 7513 0 0 1 474 250A5652 5652 0 0 0-8-92l-9 107Z" opacity=".3"/><path fill="#F5F9F2" d="M264 66c40 23 81 43 124 59 59 22 118 40 178 54-19 4-34 8-35 15-2 25 217 68 222 50 2-5-17-18-73-43 19-25 24-57 11-80-20-41-84-47-96-31-6 8 0 23 9 39-47-85-79-124-99-118-13 3-20 27-21 71C398-16 349-61 337-53c-7 6 1 33 25 83-53-34-82-48-89-41-4 5 2 20 19 45-66-18-83-17-84-12-4 8 35 31 56 44Zm-281-3a1923 1923 0 0 0 307 166c29 11 70 26 120 40-26-67-47-100-62-97-9 1-16 14-21 39-45-77-73-113-86-108-8 3-10 22-5 56C183 48 148-5 132 0c-9 3-12 25-9 65-7-16-50-112-78-105-18 4-23 50-24 81C8 31-35-1-43 7c-8 7 16 41 26 56Zm985 221a1482 1482 0 0 0 547-217c28-72 25-90 18-94-14-8-56 32-97 78 0-41-7-63-18-66-18-6-49 31-92 110a51 51 0 0 0-64-13 51 51 0 0 0-24 55c-8-34-26-64-49-68-32-6-79 36-89 113-1-60-8-91-22-94-21-5-58 60-110 196Z"/><path fill="url(#f)" d="M-58 428c-34-71 3-153 67-175 57-20 126 10 154 73 2-4 35-54 83-53 51 1 103 56 100 131l82 55c20-30 57-45 91-37 39 9 67 48 63 91a309 309 0 0 1 268-40c10-10 86-81 192-68 65 8 108 44 125 59a244 244 0 0 1 335-30l4 153A4646 4646 0 0 1-58 428Z"/><path fill="url(#g)" d="M-50 555c-16-56 4-111 19-144 63-9 113-5 147 0 49 8 72 19 166 37l70 12c79 13 139 21 161 24 149 21 167 32 263 44 53 7 146 18 258 12 112-5 156-23 368-62 94-17 172-29 220-36l-45 203a2097 2097 0 0 1-859 154c-158-6-706-24-768-244Z"/><path fill="#80AAA6" d="m38-26 7 454c25-15 33-16 36-14 3 3 0 12-2 12-6-1-3-212 3-449l-44-3Z"/><path fill="url(#h)" d="m372-33-44 511 25 6 38-267L517-21l-16-25-110 197-19-184Z"/><path fill="url(#i)" d="m573-17-12 275-20-143-9 19 17 174-13 214 19 8 25-204 15-189 28-103-10-7-26 94 17-161-31 23Z"/><path fill="url(#j)" d="M793-26c3 9 30 438 30 438v144l29-5-11-332 67-288-25 23-54 175-13-190-23 35Z"/><path fill="url(#k)" d="M956-26c-1 10 24 443 24 443l-12 133h28l7-230-12-331-35-15Z"/><path fill="url(#l)" d="m1087-26 38 432v150l51-6-11-116-19-233 24-262-83 35Z"/><path fill="url(#m)" d="M906-58c-2 0-13 33-58 183l-7 100 24-108C893-1 908-57 906-58Z"/><path fill="url(#n)" d="M956-26c2 0 13 50 15 95 0 17 2 25 2 32-1 14-4 25 0 26 3 2 9-7 12-6s3 11-6 45v9a1100 1100 0 0 0 10 137c-1 0-6-38-8-37-2 0-1 48 4 140l-14 110 10-106-14-250c-7-117-14-195-11-195Z"/><path fill="url(#o)" d="M1087-26c24 59 26 96 23 120-1 7-4 26-1 50 1 15 3 18 9 44 5 25 12 63 8 64-2 0-9-20-10-19-3 0 10 37 15 81 3 27 2 48 2 61-1 36 1 92 10 179l-18 2c1-32 2-80 0-139-3-78-9-132-19-231l-19-212Z"/><path fill="url(#p)" d="M623 34a420 420 0 0 1-33 96c-3 9-4 23-4 23l-3 38c-3 24-8 43-6 44 1 0 2-4 4-4 3 1-1 26-2 29-4 26-5 53-8 80-6 42-4 42-9 77-3 26-8 63-16 109l9 4a7567 7567 0 0 0 42-396l26-100Z"/><path fill="url(#q)" d="M478 53c-22 35-42 62-56 81-11 16-31 42-30 44 1 1 15-14 16-13 2 1-24 34-22 36 1 1 7-5 8-4 2 1-5 9-10 22-3 7-4 12-5 19-2 17 1 21-3 36-2 8-3 6-4 14-3 14-2 21-2 34 0 10-2 15-5 29-6 35-4 43-10 77-3 18-7 36-12 53l10 3 38-267 87-164Z"/><path fill="url(#r)" d="M0 460c94 1 188 10 280 26 131 22 172 44 268 66 133 31 202 22 537 16 93-2 232-4 404-5 12 81-8 128-24 154-134 218-720 90-1090 9-193-42-345-87-436-116L0 460Z"/><path fill="url(#s)" d="M207 475c35 1 62 7 116 19 104 22 128 36 201 53 116 27 205 26 205 28-1 4-219-15-222 0-1 12 113 34 112 39-1 6-162-28-381-62-151-24-211-29-211-42-1-17 91-39 180-35Z" opacity=".4"/><path fill="url(#t)" d="M808 574c0-6 90-4 160-4 169 0 277-10 277-5 1 7-158 22-157 32 1 9 116 7 116 10 0 6-423 18-423 9-1-5 97-11 97-22 0-10-70-15-70-20Z" opacity=".6"/><path fill="url(#u)" d="M665 590c-12 0-44 3-44 7 0 9 152 25 153 16 2-6-52-26-109-23Z" opacity=".4"/><path fill="url(#v)" d="M330 69c3 16 68 23 197 35 79 7 114 8 123-9 8-16-7-41-21-59 70-10 89-20 89-28 1-23-140-66-269-23-54 18-125 58-119 84Z"/><path fill="url(#w)" d="M1070-30c-23 13-92 57-84 83 4 13 28 18 49 19-37 25-42 38-40 46 7 29 121 24 210 19 74-3 180-8 182-30 1-8-11-21-78-41l129-61c-87-41-249-101-368-35Z"/><path fill="url(#x)" d="M629 36c6 12 5 20 4 25-6 32-65 44-86 44h-4c-1 1 36 10 75 3 18-3 31-5 36-14 7-13-3-37-25-58Z"/><path fill="url(#y)" d="m295-31-38 12c-1 3 2 110 5 230l-47-76 49 128 8 273 39-3-4-156 18-50v-28l-19 47-11-377Z"/><path fill="url(#z)" d="m557 99-24 80-25 38 9-248h-50l-2 141-24-68 24 92-4 227-4-12c-2 0-10-90-10-90l-6 7c-1 3 9 112 9 112l11 25-3 181 38 10 12-357 35-60 14-78Z"/><path fill="url(#A)" d="M681-40c-3 11-87 634-87 634h52l58-452L868-89l-33 18L713 98l48-169-80 31Z"/><path fill="url(#B)" d="m1306-10-108 443-14 200 53-11 39-275 187-387h-49l-74 163 12-192-46 59Z"/><path fill="url(#C)" d="M517-31c-14 73-26 144-21 145 2 0 8-19 11-19 8 2-19 154-12 155 2 1 6-8 13-33l9-248Z"/><path fill="url(#D)" d="M507 251c-8 35-10 57-10 72v24l-1 36-5 31c-2 20-3 27-1 27s5-10 7-9l-4 30-2 19c-3 29-8 33-7 52l2 22c0 12-2 24-7 35l17 4 11-343Z"/><path fill="url(#E)" d="M296-5c-15 153-18 215-14 216 2 0 9-34 12-33 6 1-24 152-3 158 5 2 10-3 14-8L296-5Z"/><path fill="url(#F)" d="M307 377a46 46 0 0 0-9 29c-2 20-2 31-1 31l4-11c2 0 0 12 1 31 1 12 3 16 2 26l-3 15v35h10l-4-156Z"/><path fill="url(#G)" d="m1003-31 1 13 33 300 15 349h54l-29-311 48-199v-245l-23 35-8 226s-32 108-30 97c3-10-27-295-27-295"/><path fill="url(#H)" d="M1090 269c-1 0-8 18-20 54l13 308 23-3-29-308c9-34 14-50 13-51Z" opacity=".5"/><path fill="url(#I)" d="M1064 234c-5 21-5 25-4 25a192 192 0 0 0 24-82l-20 57Z" opacity=".3"/><path fill="url(#J)" d="M1093 483c-11 57-18 72-24 72s-9-17-14-16c-4 0-5 19-5 37l2 55h54l-13-148Z" opacity=".2"/><path fill="url(#K)" d="M1005-33c6 5 11 11 15 19 7 12 7 24 7 30 1 43 13 86 10 86-2 1-6-20-8-20-3 1-4 45 8 92 6 26 16 52 13 54-2 1-8-11-12-10-3 1-4 12 3 64l7 48c7 40 16 73 16 73-1 0-7-28-10-28-3 1 1 32 3 81 1 44-1 48 1 77 2 33 6 66 13 98h-17l-49-664Z"/><path fill="url(#L)" d="m1098 27-4 110-30 97c13-28 25-55 29-54 3 1-3 29-2 29l2-6c4-24 13-57 16-73 2-14 5-46-11-103Z" opacity=".6"/><path fill="url(#M)" d="M0 575c69 14 153 30 249 44 63 9 172 26 309 32 203 8 315 4 465 4 110 1 267 4 459 19l14 174-397 3-1134-10L0 575Z"/><path fill="url(#N)" d="M432 655c-71 5-111 13-111 19 0 13 197 14 199 35 1 16-121 32-120 38 1 10 291-12 655-43a180 180 0 0 1-84-18c-253-39-428-38-539-31Z" opacity=".3"/><path fill="url(#O)" d="M980 671c49-2 103 1 210 7 87 5 125 9 125 16 1 10-110 18-110 34 0 14 91 20 91 30-1 22-516 37-517 23 0-10 197-23 196-43 0-18-162-22-162-38 0-13 95-25 167-29Z" opacity=".1"/><path fill="url(#P)" d="M-40 690c184-5 301-2 302 10 1 14-134 29-133 48 1 31 343 22 345 49 2 35-606 152-643 48-14-38 51-98 129-155Z"/><path fill="url(#Q)" d="M443 643c-1 2 112 5 113 20 1 8-29 13-29 18 1 14 187-2 398 4 138 4 153 13 262 11 89-2 178-10 266-25l-283-13c-518-23-727-18-727-15Z"/><path fill="url(#R)" d="M0 575a4139 4139 0 0 0 413 65c-24-1-48 0-71 3-35 4-50 11-82 9-25-1-50-6-49-9 0-3 29-2 29-6 1-6-68-35-136-16-29 8-38 19-68 21-29 1-70-6-73-25-4-19 33-40 37-42Z" opacity=".2"/><path fill="url(#S)" d="M987 717c1 8 122 13 123 6 1-4-30-12-57-14-32-2-66 4-66 8Z" opacity=".4"/><path fill="url(#T)" d="m810-33 91 748h55l-55-515 31-63-25-6-23 36-31-228-43 28Z"/><path fill="url(#U)" d="M852 295a18933 18933 0 0 0 49 420h55c-5-32-10-42-14-42-7 0-11 20-15 20-6-1 3-66-1-67-3 0-9 42-16 42-8-1-16-70-15-129v-36c-2-35-9-60-12-74-9-34-18-77-31-134Z"/><path fill="url(#V)" d="M901 200c1 33 1 64-2 65-4 0-10-36-11-36l9 65c8 51 10 77 16 119 11 93 30 204 32 203 3 0-5-85-44-416Z" opacity=".5"/><path fill="url(#W)" d="m861-2 23 169 23-36-22 50c-7-11-10-21-11-28-2-9-1-13-3-28l-3-21c-6-28-5-48-7-48-1 0 0 27-2 27a322 322 0 0 1-4-87l6 2Z" opacity=".5"/><path fill="url(#X)" d="M371-79c2 7 0 783 0 783 1 2 10 16 28 16 20 1 31-15 31-16l-9-771-50-12Z"/><path fill="url(#Y)" d="M372 301a223 223 0 0 1 15 90l-3 142-1 45c-1 75-1 101 4 102 4 0 9-24 14-23 4 1 4 29 3 63l-33-16V591l1-239v-51Z" opacity=".4"/><path fill="url(#Z)" d="M415-69c-25 209-26 254-21 254 4 1 13-46 20-45s5 72-4 235c-8 135-14 232-9 232 5 1 13-58 17-58 5 1 2 65-6 169l18-14-7-700-8-73Z" opacity=".6"/><path fill="url(#aa)" d="M47-26C43-22-7 38 14 82c18 40 89 57 178 37 145 54 227 66 246 37 12-17 0-50-34-98C522 22 554-4 552-24c-4-63-382-148-505-2Z"/><path fill="url(#ab)" d="M923-40c-36 43-66 88-52 112 46 80 533-86 523-148-3-17-43-31-148-35-14-21-29-35-43-44-76-50-199-25-313 57l33 58Z"/><path fill="url(#ac)" d="M543-5a349 349 0 0 1-162 61c11 7 20 17 27 28 3 5 20 32 14 50-8 23-52 38-107 25 37 14 67 14 86 12 17-2 29-3 36-12 15-16 6-55-23-96 21-1 73-6 112-45l17-23Z"/><path fill="url(#ad)" d="M893-2c1 1-7 12-7 28 0 11 3 22 9 31 13 23 81 32 170 19-48 14-89 17-117 17-38 0-68 0-78-18-15-27 23-77 23-77Z"/><path fill="url(#ae)" d="M590-24c2 31 1 54-2 71-1 10-4 24 4 32 5 6 13 5 19 6 12 2 29 11 47 39a5714 5714 0 0 1 26 436c-1 74-5 135-9 179 15 11 32 18 50 20 40 5 70-15 77-20a7756 7756 0 0 0-45-818l-93 4 1 156-52-25v-80h-23Z"/><path fill="url(#af)" d="M678 388a2265 2265 0 0 1-3 351 107 107 0 0 0 127 0l-2-92c-21 29-25 51-25 66 0 6 1 17-2 18-6 1-14-35-30-36-12-1-19 20-26 18-19-4-2-170-9-171-2-1-5 18-8 18-8 0-9-104-9-121-1-51 1-57-1-82-3-37-10-73-21-108l2 33 7 106Z" opacity=".4"/><path fill="url(#ag)" d="M599 83c6 3 9 2 15 3l12 5c9 4 13 9 19 15 5 5 9 11 13 18l4 38c9-35 11-48 9-49s-6 5-9 4l-2-3-6-9c-5-8-16-21-18-20-1 0 3 7 1 8-2 2-8-6-21-13-9-5-17-7-18-6l2 3c-1 2-8-1-9 0 0 1 3 4 8 6Z" opacity=".3"/><path fill="url(#ah)" d="M700 546c3 0-2-77-4-77s-4 29 1 59l3 18Z" opacity=".1"/><path fill="url(#ai)" d="M751-79c-1 39-4 72-6 94-2 26-5 55-2 55 4 1 10-35 15-34 10 1 11 105 11 160 0 48 0 106 9 154l3 25c3 25 4 50 2 76-4 53 2 46-2 143-2 64-6 110-3 110 4 1 10-48 15-48 4 0 5 34 4 86a3883 3883 0 0 0 2-190c-1-78-4-129-11-249-5-87-6-125-10-163l-6-53-4-60c-2-24-7-60-17-106Z" opacity=".5"/><path fill="url(#aj)" d="m1124 99 21 62 42 116c12 37 18 55 22 73 6 33 7 58 8 96 1 32 0 38-2 117l-2 93c1 55 3 66 3 105 0 40-2 81-7 121l171-8c-6-52-8-103-7-155 1-74 8-91 13-198 5-86 1-81 7-178 4-84 11-159 12-164 9-97 12-90 11-119-1-48-8-71-17-164l-4-58-162 27-1 265c-19-16-34-35-47-56-17-28-22-48-33-74-10-25-27-60-59-100l-56 20 87 179Z"/><path fill="url(#ak)" d="M1209 882c3-27 7-67 10-115 4-51 4-78 13-80 17-4 49 97 61 94 9-3-6-54 8-126 5-25 14-54 18-53 6 1 2 49 3 49 3 0 9-87 9-87 11-146 6-156 13-209 14-91 45-167 52-166 5 1-7 55-16 156-14 150 4 144-10 263-8 68-19 115-12 193 3 25 6 49 12 73l-161 8Z"/><path fill="url(#al)" d="m1231 114 3 48c2 35 2 50 5 50 6 1 12-56 22-56 10 1 17 74 19 74 3-1-17-88-2-193 8-55 22-93 12-99-6-3-19 4-55 51-2 23-6 75-4 125Z" opacity=".5"/><path fill="url(#am)" d="M1102-82c-4 3 42 82 34 87-5 3-23-20-27-16-5 3 13 25 26 64 8 25 6 31 16 57 9 20 20 41 23 40 4-1-13-60-10-61 2 0 8 49 43 70 12 7 29 15 34 10 6-6-1-25-9-37l-10-11c-14-14-22-28-35-50l-20-34c-19-38-18-49-33-76-14-25-30-44-32-43Z"/><path fill="url(#an)" d="M1389-161c-4 0-1 75 3 130 4 54 10 97 5 98s-17-44-22-43c-4 1 2 33 7 103 3 39 3 58 7 84l1 15c1 25-8 51-8 51-14 39-27 89-25 90s9-19 13-18c3 1-1 23-3 50-4 42 0 72-1 72-2 0-7-48-9-48s1 66 2 92c3 66 4 79 3 109l-1 24c-2 32-1 45-3 45-3 0-9-39-12-38-4 0 3 109 11 219h23c-5-37-7-74-8-110-2-80 7-101 13-216 4-72 1-74 6-175 2-31 3-65 7-111l11-121c2-40 5-81 4-127-2-93-19-175-24-175Z"/><path fill="url(#ao)" d="M1375 196c-1 0 1 7-1 20-1 12-4 14-5 24-2 13 1 26 3 26l6-25 3-17c1-15-5-28-6-28Z"/><path fill="url(#ap)" d="M1075-5c9 8 16 16 23 25 9 13 9 17 18 32 12 21 19 21 32 41 6 10 11 21 15 32-12-17-26-32-41-46 11 19 20 39 24 61 7 31 20 54 31 80 8 20 17 50 20 90l-43-120-29-79c-18-45-35-84-50-116Z"/><path fill="url(#aq)" d="M1156 139c2 12 6 23 11 34 3 8 9 22 16 46 2-16 0-27-3-34l-13-25-11-21Z"/><path fill="url(#ar)" d="M1204 330a286 286 0 0 1 26 96c-1 1-5-24-8-24v65l3 35v17c-1 29-6 44-3 46 4 1 15-23 17-22 3 1-14 33-17 77l1 34c2 56-8 66-3 110 2 16 5 27 2 46-1 12-5 24-10 35 3-20 4-41 3-61 0-24-3-29-3-57-1-20 0-20 1-64l1-65 1-63V407a499 499 0 0 0-11-77Z"/><path fill="url(#as)" d="m1179 246 6 6 4 10c4 11 13 19 13 18l-6-12-4-9c-2-4-6-8-13-13Z"/><path fill="url(#at)" d="m1225 707-3 21v24l5 21v-42l-2-24Z"/><path fill="url(#au)" d="m1227 433 2 13 3 20v43a85 85 0 0 0 5-43c-2-11-5-22-10-33Z"/><path fill="url(#av)" d="M1232-19v95c-1 23-2 25-1 38l2 36 2 30c1 0 5-22 6-45v-21c0-16 15-58 12-59-2-1-11 17-14 16-2-1 3-12 3-28l-1-22c-2-13-5-27-9-40Z"/><path fill="url(#aw)" d="M57-18a5316 5316 0 0 1-4 499L43 622c-5 62-11 151-15 264l172 7a14254 14254 0 0 1 6-405l7-115a2555 2555 0 0 0 184-479l-53-8a2256 2256 0 0 1-96 232c-19 38-41 75-64 110-4-44-3-88 1-132s9-65 16-115c6-47 9-94 10-141L57-18Z"/><path fill="url(#ax)" d="M78-37c23 7-11 188 4 191 7 2 20-43 26-42 6 2-8 79-20 148-39 221-32 254-21 258 10 3 20-18 29-14 18 7-23 98-7 210 6 43 21 92 35 92 20-1 23-115 41-115 15 0 30 78 34 140 2 20 2 41 1 62l-172-7A12243 12243 0 0 0 57-18c7-11 15-20 21-19Z"/><path fill="url(#ay)" d="M182 236c-1-19-2-47-1-82 1-52 6-113 5-113s-2 45-11 46c-8 1-14-27-19-26-14 2-4 195 14 196 4 0 8-9 12-21Z" opacity=".3"/><path fill="url(#az)" d="M270 82c-2-1-19 29-39 68-17 34-28 49-36 62l-23 34c18-16 32-27 36-24 6 6-38 66-35 69 2 1 36-31 67-80 35-57 53-114 47-117-4-2-22 25-26 23-4-3 11-35 9-35Z" opacity=".3"/><path fill="url(#aA)" d="M397-106c-1 0-22 39-38 85l-10 35c-2 12-1 19-6 31l-7 18-6 14-3 12c-2 10-6 20-10 31-11 25-25 42-23 43 1 1 9-10 10-9 1 0 1 1-3 11l-7 14c-6 10-5 13-12 30l-10 20c-13 27-24 45-22 46l8-9c2 1-7 24-21 45l-16 25c-7 15-12 29-10 29 1 1 9-16 10-16 2 1-9 24-8 24s37-71 75-164a2617 2617 0 0 0 109-315Z"/><path fill="url(#aB)" d="M345 24c-1-1-5 7-8 16-3 11-4 21-3 21l5-14 4-13 2-10Z"/><path fill="url(#aC)" d="m294 169-8 11c-5 8-9 18-8 18 1 1 5-6 7-9 5-9 10-19 9-20Z"/><path fill="url(#aD)" d="M213 373c-1 0-5 46-12 86l-3 26 1 30c1 21-5 26-9 49-3 18 1 12 1 69 0 24-1 31 1 48l2 26-1 32c-1 15-1 51 5 146 1-34 3-87 3-153 2-95 0-109 2-174 3-107 12-185 10-185Z"/><path fill="url(#aE)" d="M184 611c-1 10 1 20 1 20 2 0 4-36 2-36-1 0-3 9-3 16Z"/><path fill="url(#aF)" d="M200 520c-1 0-6 8-9 15s-4 16-3 16c2 0 14-30 12-31Z"/><path fill="url(#aG)" d="M202 391c-3-1-11 48-7 48 2 1 8-13 9-28 1-9 0-20-2-20Z"/><path fill="url(#aH)" d="M189 55a11752 11752 0 0 0-20 72c2 0 7-15 9-14 1 0-3 9-3 24v18c-2 11-6 13-6 21 1 8 4 7 4 17 1 7-1 10 1 17l3 9 5 17c2 0 0-36 0-36-1-29 0-74 7-145Z"/><path fill="url(#aI)" d="M-119 50A105 105 0 0 0 69 76c12 12 36 32 71 41 62 17 145-3 155-45 2-6 5-27-23-58 71-55 82-87 76-107-19-69-267-105-398 7-18 15-86 73-69 136Z"/><path fill="url(#aJ)" d="M1261-108c-11 6-59 34-55 69 2 27 35 52 80 62 12 27 36 69 81 98 124 81 320 12 330-55 13-89-300-255-436-174Z"/><path fill="url(#aK)" d="M729 75h247v247H729z" opacity=".1"/><path fill="#F5FDE6" d="M733 330a37 37 0 1 0 0-74 37 37 0 0 0 0 74Z" opacity=".1"/><path fill="#F5FDE6" d="M762 342a24 24 0 1 0 0-49 24 24 0 0 0 0 49Z" opacity=".1"/><path fill="#F5FDE6" d="M743 239a5 5 0 1 0 0-11 5 5 0 0 0 0 11Z" opacity=".5"/><path fill="#F5FDE6" d="M712 250a4 4 0 1 0 0-7 4 4 0 0 0 0 7Z" opacity=".4"/><path fill="url(#aL)" d="M115 131h380v387H115z" opacity=".2"/><path fill="#F5FDE6" d="M156 475c31 0 57-27 57-59s-26-58-57-58c-32 0-58 26-58 58s26 59 58 59Z" opacity=".2"/><path fill="#F5FDE6" d="M134 501c14 0 26-12 26-27s-12-27-26-27c-15 0-27 12-27 27s12 27 27 27Z" opacity=".1"/><path fill="url(#aM)" d="M133 255h73v73h-73z" opacity=".6"/><path fill="url(#aN)" d="M108 292h69v69h-69z" opacity=".6"/><path fill="url(#aO)" d="M521 177h67v67h-67z" opacity=".8"/><path fill="url(#aP)" d="M559 120h66v66h-66z" opacity=".8"/><path fill="url(#aQ)" d="M857 154h66v66h-66z" opacity=".8"/></g><path fill="#25334F" d="M683 398c51-126-106-206 97-459l244-15 518 15v919H750c-60-68-123-97-155-164-40-85 36-170 88-296Z"/><path fill="#fff" d="M919 325v-24h4v10h12v-10h3v24h-3v-10h-12v10h-4Zm33 0-5-1-3-3-1-5 1-5 3-3 4-1h3a7 7 0 0 1 5 5v5h-14v-3h11l-1-2a4 4 0 0 0-4-2h-2l-2 2v8l2 2h4l2-1 1-1 3 1-1 2-3 2h-3Zm12 0v-18h3v3l2-2 3-1a15 15 0 0 1 1 0v3h-4a4 4 0 0 0-2 4v11h-3Zm12 0v-2l10-13h-10v-3h14v3l-9 12h10v3h-15Zm23-24v24h-4v-24h4Zm5 24v-18h3v18h-3Zm1-21h-1l-1-2 1-1 1-1 2 1 1 1-1 2h-2Zm15 21-5-1-3-3-1-5 1-5 3-3 5-1 3 1 3 2 1 3h-3l-2-2-2-1h-3l-2 3v6l2 3h5l1-1 1-2h3a7 7 0 0 1-4 6h-3Zm15-11v11h-4v-24h4v9l2-2 3-1 3 1 3 2v15h-3v-11l-1-3-3-1h-2l-2 2v2Zm30 11-6-24h4l4 19 5-19h4l5 19 5-19h4l-7 24h-4l-5-18-5 18h-4Zm28 0v-18h4v18h-4Zm2-21h-2v-3l2-1 1 1 1 1-1 2h-1Zm10-3v24h-3v-24h3Zm9 0v24h-4v-24h4Zm8 18v-4l8-8h4l-8 9h-1l-3 3Zm-3 6v-24h3v24h-3Zm11 0-6-9 2-2 8 11h-4Zm14 0-4-1-3-3-1-5 1-5a8 8 0 0 1 7-4l5 1 3 3 1 5-1 5a8 8 0 0 1-8 4Zm0-3h3l2-3v-6l-2-2-3-1-3 1-1 2-1 3 1 3 1 3h3Zm13 3v-18h3v3l2-2 3-1 3 1 2 2 2-2 4-1 4 1 1 5v12h-3v-12l-1-2-3-1-2 1-1 3v11h-4v-12l-1-2-2-1h-2a4 4 0 0 0-2 4v11h-3Zm29 0v-18h4v3l2-2 3-1 3 1 2 2 2-2 3-1 4 1 2 5v12h-4v-12l-1-2-2-1-3 1-1 3v11h-3v-12l-1-2-2-1h-2l-2 2v13h-4Zm38 0-5-1-3-3-1-5 1-5 3-3 4-1h3a7 7 0 0 1 5 5v5h-14v-3h11l-1-2a4 4 0 0 0-4-2 5 5 0 0 0-4 2v8l2 2h4a4 4 0 0 0 3-2l3 1-1 2-3 2h-3Zm15-11v11h-3v-18h3v3l2-2 3-1 4 1 2 2 1 4v11h-4v-11l-1-3-3-1h-2l-1 2-1 2Zm26 11v-24h3v9h1l1-1 1-2h3l4 1 2 3 1 5-1 5-2 3-4 1h-3l-1-1-1-2h-1v3h-3Zm3-9 1 3 2 3h5l1-3 1-3-1-3-1-2-3-1-3 1-1 2-1 3Zm25 9-4-1-3-3-1-5 1-5 3-3 4-1h3a7 7 0 0 1 4 5l1 4v1h-14v-3h11l-1-2a4 4 0 0 0-4-2h-2l-2 2-1 3v2l1 3 2 2h4l2-1 1-1 3 1-2 2-2 2h-4Zm12 0v-18h4v18h-4Zm2-21h-1l-1-2 1-1 1-1 2 1v3h-2Zm23 21a7 7 0 0 1-7-4l-1-5 1-5 3-3 4-1h2l2 2 1 1v-9h4v24h-4v-3l-1 2-2 1h-2Zm0-3h3l2-3v-6l-2-2-3-1-2 1-2 2v6l2 3h2Zm22 3-5-1-3-3-1-5 1-5 3-3 4-1h3a7 7 0 0 1 5 5v5h-14v-3h11l-1-2a4 4 0 0 0-4-2h-2l-2 2v8l2 2h5l1-1 1-1 3 1-1 2-3 2h-3Zm15-11v11h-3v-18h3v3l2-2 4-1 3 1 2 2 1 4v11h-4v-11l-1-3-3-1h-2l-1 2-1 2ZM778 438l-14-19v19h-10v-42h10v18l14-18h12l-16 21 17 21h-13Zm23-37c-1 0-3 0-4-2l-2-3 2-4c1-2 3-2 4-2 2 0 4 0 5 2l2 4-2 3c-1 2-3 2-5 2Zm6 4v33h-11v-33h11Zm28-1c4 0 7 1 9 4 3 3 4 6 4 10v20h-10v-18l-2-5c-1-2-3-2-5-2s-3 0-4 2c-2 1-2 3-2 5v18h-10v-33h10v4l4-4 6-1Zm19 17c0-3 0-6 2-9l5-6a14 14 0 0 1 13-1l5 4v-15h10v44h-10v-5l-4 4-7 1a14 14 0 0 1-12-8c-2-2-2-5-2-9Zm25 0-2-6-6-2-5 2-2 6 2 6c2 2 3 3 5 3l6-3 2-6Zm50 0-1 3h-23l2 5 4 1c3 0 5-1 6-3h11l-3 6-6 4-7 1c-3 0-6 0-9-2l-6-6-2-9 2-9 6-6 9-2 8 2c3 1 5 3 6 6 2 2 3 5 3 9Zm-11-3-2-4-4-2-5 2-2 4h13Zm27-8 4-4 6-2v11h-3l-5 2c-2 1-2 3-2 5v16h-10v-33h10v5Zm34 19v9h-5c-3 0-6-1-8-3-3-2-4-5-4-9v-13h-4v-8h4v-9h11v9h6v8h-6v16h6Zm5-8c0-3 0-6 2-9l5-6 8-2 6 1 4 4v-4h10v33h-10v-5l-4 4-7 1c-2 0-5 0-7-2-2-1-4-3-5-6-2-2-2-5-2-9Zm25 0-2-6-5-2-6 2-2 6 2 6c2 2 3 3 6 3 2 0 3-1 5-3l2-6Zm31-17 6 1 4 4v-4h10v33l-1 8-6 6-9 3c-5 0-9-2-12-4s-5-6-6-10h10l3 3 4 2 5-2c2-1 2-3 2-6v-5a12 12 0 0 1-10 5 14 14 0 0 1-13-8l-2-9 2-9 5-6 8-2Zm10 17-2-6-5-2-5 2c-2 2-2 4-2 6 0 3 0 5 2 6 1 2 3 3 5 3s4-1 5-3l2-6Zm50 0v3h-23c0 2 0 3 2 5l4 1c3 0 4-1 5-3h11l-3 6-5 4-8 1c-3 0-6 0-8-2-3-1-5-3-6-6-2-2-3-5-3-9l3-9 6-6 8-2 9 2 6 6 2 9Zm-10-3-2-4-5-2-4 2-2 4h13Zm30 20-8-1-6-4-2-6h10l2 3 4 1 2-1 2-2-2-2-5-1-6-2-4-3-2-6 2-5c1-1 2-3 5-4l7-1c4 0 7 1 10 3 2 2 4 5 4 8h-9l-2-2-3-1h-3l-1 2 1 2 5 2 6 2c2 0 3 1 4 3 2 1 2 3 2 5l-1 6-5 3-7 1Zm34 0-8-1-6-4-2-6h10l2 3 4 1 3-1 1-2-2-2-5-1-6-2-4-3-2-6 2-5 5-4 7-1c4 0 7 1 10 3 2 2 4 5 4 8h-9l-2-2-3-1h-3l-1 2 1 2 5 2 6 2c2 0 3 1 4 3 2 1 2 3 2 5l-1 6-5 3-7 1Zm39-9v9h-5c-4 0-7-1-9-3s-3-5-3-9v-13h-4v-8h4v-9h10v9h7v8h-7v13l1 3h6Zm4-8 2-9 5-6 8-2 6 1 4 4v-4h10v33h-10v-5l-4 4-6 1c-3 0-5 0-8-2-2-1-4-3-5-6l-2-9Zm25 0-2-6-5-2-5 2c-2 2-2 4-2 6 0 3 0 5 2 6 1 2 3 3 5 3s4-1 5-3l2-6Zm-12-20-3-1-1-4 1-3 3-1a4 4 0 0 1 4 4l-1 4-3 1Zm12 0-3-1-1-4 1-3 3-1a4 4 0 0 1 4 4l-1 4-3 1Zm16 20 2-9 6-6a14 14 0 0 1 13-1l4 4v-15h11v44h-11v-5c0 2-2 3-4 4l-6 1a14 14 0 0 1-13-8l-2-9Zm25 0c0-2 0-4-2-6l-5-2-5 2-2 6 2 6c1 2 3 3 5 3s4-1 5-3c2-1 2-3 2-6Zm37 8v9h-5c-4 0-6-1-9-3-2-2-3-5-3-9v-13h-4v-8h4v-9h11v9h6v8h-6v16h6Zm38-8v3h-23l2 5 4 1c3 0 5-1 6-3h11l-4 6-5 4-7 1c-4 0-7 0-9-2-3-1-5-3-6-6-2-2-2-5-2-9 0-3 0-6 2-9l6-6 9-2 8 2c3 1 5 3 6 6 2 2 2 5 2 9Zm-10-3-2-4-5-2-4 2-2 4h13Zm37-14c4 0 7 1 9 4s4 6 4 10v20h-11v-18l-1-5c-2-2-3-2-5-2s-4 0-5 2l-1 5v18h-11v-33h11v4l4-4 6-1ZM728 509l2-9 5-6a14 14 0 0 1 14-1l4 4v-15h11v44h-11v-5l-4 4-6 1a14 14 0 0 1-13-8l-2-9Zm25 0c0-2 0-4-2-6l-5-2-5 2c-2 2-2 4-2 6 0 3 0 5 2 6 1 2 3 3 5 3s4-1 5-3c2-1 2-3 2-6Zm50 0v3h-23l2 5 4 1c3 0 4-1 5-3h11l-3 6-5 4-8 1c-3 0-6 0-8-2-3-1-5-3-6-6-2-2-2-5-2-9 0-3 0-6 2-9l6-6 8-2 9 2c3 1 5 3 6 6l2 9Zm-10-3-2-4-5-2-4 2-2 4h13Zm26-8 5-4 6-2v11h-3l-6 2-2 5v16h-10v-33h10v5Zm58-1-4-3-5-1c-3 0-6 1-8 3s-3 5-3 9 1 7 4 9c2 2 5 3 8 3s5 0 7-2c1-1 3-3 3-5h-13v-8h23v10l-4 7-7 5c-3 2-6 2-10 2l-11-2-7-8c-2-3-3-7-3-11s1-8 3-11l7-8c4-2 7-3 11-3 5 0 10 2 13 4 4 3 6 6 7 10h-11Zm50 12-1 3h-23l2 5 5 1c2 0 4-1 5-3h11l-3 6-6 4-7 1c-3 0-6 0-9-2l-6-6-2-9 2-9 6-6 9-2 9 2c2 1 4 3 5 6 2 2 3 5 3 9Zm-11-3c0-2 0-3-2-4l-4-2-5 2-2 4h13Zm59-14c4 0 8 1 10 4 3 2 4 6 4 10v20h-10v-18l-2-5-5-2-4 2c-2 1-2 3-2 5v18h-10v-18l-2-5-5-2-4 2c-2 1-2 3-2 5v18h-10v-33h10v4l4-4 6-1 6 2 5 4a13 13 0 0 1 11-6Zm53 17v3h-23l2 5 4 1c3 0 5-1 6-3h11l-4 6-5 4-7 1c-4 0-7 0-9-2-3-1-5-3-6-6-2-2-2-5-2-9 0-3 0-6 2-9l6-6 9-2 8 2c3 1 5 3 6 6 2 2 2 5 2 9Zm-10-3-2-4-5-2-4 2-2 4h13Zm21-17c-1 0-3 0-4-2l-2-3 2-4c1-2 3-2 4-2 2 0 4 0 5 2l2 4-2 3c-1 2-3 2-5 2Zm6 4v33h-11v-33h11Zm28-1c4 0 7 1 9 4 3 3 4 6 4 10v20h-10v-18l-2-5c-1-2-3-2-5-2s-3 0-4 2c-2 1-2 3-2 5v18h-10v-33h10v4l4-4 6-1Zm19 17c0-3 0-6 2-9l5-6a14 14 0 0 1 13-1l5 4v-15h10v44h-10v-5l-4 4-7 1a14 14 0 0 1-12-8c-2-2-2-5-2-9Zm25 0-2-6-6-2-5 2-2 6 2 6c2 2 3 3 5 3l6-3 2-6Zm50 0-1 3h-23l2 5 4 1c3 0 5-1 6-3h11l-3 6-6 4-7 1c-3 0-6 0-9-2l-6-6-2-9 2-9 6-6 9-2 8 2c3 1 5 3 6 6 2 2 3 5 3 9Zm-11-3-2-4-4-2-5 2-2 4h13Zm66-22v42h-10v-17h-16v17h-10v-42h10v16h16v-16h10Zm24 42c-4 0-7 0-9-2-3-1-5-3-6-6-2-2-3-5-3-9l3-9 6-6 9-2 9 2 6 6 2 9-2 9c-2 3-4 5-7 6-2 2-5 2-8 2Zm0-8c2 0 3-1 5-3l2-6-2-6-5-2-5 2c-2 1-2 4-2 6 0 3 0 5 2 6 1 2 3 3 5 3Zm-6-29-3-2-1-3 1-3 3-1a4 4 0 0 1 5 4l-1 3-4 2Zm12 0-3-2-1-3 1-3 3-1a4 4 0 0 1 5 4l-1 3-4 2Zm27 9 5-4 6-2v11h-3l-6 2-2 5v16h-10v-33h10v5Zm30 28-8-1-5-4c-2-2-2-4-2-6h10l1 3 4 1 3-1 1-2-2-2-4-1-6-2-5-3-1-6 1-5 5-4 7-1c4 0 8 1 10 3 3 2 4 5 4 8h-9l-2-2-3-1h-3l-1 2 2 2 5 2 6 2 4 3 2 5-2 6-5 3-7 1Zm52-17v3h-23c0 2 0 3 2 5l4 1c3 0 4-1 5-3h11l-3 6-5 4-8 1c-3 0-6 0-8-2-3-1-5-3-6-6-2-2-3-5-3-9l3-9 6-6 8-2 9 2 6 6 2 9Zm-10-3-2-4-5-2-4 2-2 4h13Zm26-24v44h-10v-44h10ZM1083 76V63h2v2l1-2h5l1 2 2-2h2l3 1 1 3v9h-2v-9l-1-2h-4l-1 2v9h-2V65h-4l-1 1v10h-2Zm26 0-3-1-2-2-1-3 1-4 2-2 3-1h2a5 5 0 0 1 3 3l1 3v1h-10v-2h8l-1-2a3 3 0 0 0-3-1h-2l-1 2-1 2v1l1 2a4 4 0 0 0 3 2h3l1-2 2 1-1 2-2 1h-3Zm14 0-3-1-2-2-1-3 1-4 2-2 3-1h3l2 2v2h-2a3 3 0 0 0-3-2h-2l-1 2-1 2 1 3 1 2h4l1-1v-1h2a5 5 0 0 1-2 4h-3Zm11-8v8h-2V59h2v6l1-2h5l2 2v11h-2v-8l-1-3h-4l-1 1v2Zm18-5v2h-7v-2h7Zm-5-3h2v14h3v2a4 4 0 0 1-3 0l-2-1V60Zm13 16-3-1-2-2-1-3 1-4 2-2 3-1h2l2 1 1 2 1 3v1h-10v-2h8l-1-2a3 3 0 0 0-3-1h-2l-1 2-1 2v1l1 2a4 4 0 0 0 3 2h3v-2l2 1-1 2-1 1h-3Zm9 0V63h2v2l1-2h2a22 22 0 0 1 1 0v2a7 7 0 0 0-1 0h-1l-2 1v10h-2Zm18-10h-2v-1h-1l-1-1-2 1-1 1v2h2l2 1 3 1 1 2-1 2-2 2h-3l-3-1-2-2 2-1 1 2 2 1 3-1v-3h-2l-2-1-2-1-1-2v-2l2-2h3l3 1 1 2Zm9-3v2h-6v-2h6Zm-4-3h2v14h2l1 2h-1a4 4 0 0 1-3 0l-1-1V60Zm11 16h-2l-1-2-1-2v-2l2-1h1a20 20 0 0 1 4-1h1v-3h-5l-1 1h-2a5 5 0 0 1 4-3 8 8 0 0 1 3 0h2l1 2v11h-2v-2a4 4 0 0 1-2 2h-2Zm1-1 2-1 1-1v-4 1a10 10 0 0 1-2 0 56 56 0 0 0-2 1h-2v1l1 2 2 1Zm-2-14-1-1a1 1 0 0 1 0-2h2l1 1-1 1-1 1Zm5 0-1-1v-2h2l1 1-1 1-1 1Zm11 15a5 5 0 0 1-5-3v-7l2-2 3-1h2l1 1 1 1v-6h2v17h-2v-2l-1 1-1 1h-2Zm1-2h2l1-2v-5l-1-2h-5l-1 2v5l1 2h3Zm15-11v2h-7v-2h7Zm-5-3h2v12l1 2h2v2a4 4 0 0 1-3 0l-1-1-1-2V60Zm46 3v2h-7v-2h7Zm-5-3h2v14h2l1 2h-1a4 4 0 0 1-2 0l-2-1V60Zm13 16-3-1-2-2-1-3 1-4 2-2 3-1h2a5 5 0 0 1 3 3l1 3v1h-11v-2h8v-2l-1-1h-4l-2 2v3l1 2 1 2h5v-2l2 1-1 2-2 1h-2Zm17-5v-8h2v13h-2v-2l-2 1-2 1h-2l-2-2V63h2v8l1 2 2 1a3 3 0 0 0 2-1l1-2Zm12-8v2h-7v-2h7Zm-5-3h2v14h2l1 2h-1a4 4 0 0 1-2 0l-2-1V60Zm10-1v17h-2V59h2Zm9 17-3-1-2-2-1-3 1-4 2-2 3-1h2a5 5 0 0 1 3 3l1 3v1h-10v-2h8l-1-2a3 3 0 0 0-3-1h-2l-1 2-1 2v1l1 2 1 2h5l1-2 2 1-1 2-2 1h-3Zm9 0V59h2v6h1v-1l1-1h2a5 5 0 0 1 5 3l1 3-1 4-2 2-3 1h-2l-1-1v-1h-1v2h-2Zm2-7 1 3 1 2h4l1-2 1-3-1-2-1-2h-4l-1 2-1 2Zm19 7-4-1-2-2v-7l2-2 3-1h2l2 1 2 2v4h-10v-2h8v-2a3 3 0 0 0-4-1h-2l-1 2v5a4 4 0 0 0 4 2h2l1-2 2 1-1 2-2 1h-2Zm10-8v8h-2V63h2v2l2-2h5l1 2 1 3v8h-2v-8l-1-3h-4l-1 1-1 2Z"/><path fill="#25334F" d="m296 695-7 16-4 11-5 8a39 39 0 0 0-4 12v5l4 3 9 2 7 1 1 1v6l1 8c0 2 1 4 3 5l5 2 3 1v9l-2 6a112 112 0 0 0-4 12l-1 5-1 8v6l3 5 2 4 2 4c0 2 2 3 4 6a59 59 0 0 0 25 14 215 215 0 0 0 40 10 147 147 0 0 0 41-1 144 144 0 0 0 42-15l17-10 11-9a221 221 0 0 0 19-22l4-9v-7l-1-6-6-6a31 31 0 0 0-12-6h-5l-4 1-1 1v-9l-1-6 2-3 4-4 3-5v-5l-2-4-4-8a289 289 0 0 1-8-23l-3-10-5-11-6-6a38 38 0 0 0-15-8l-9-1-5-1-4-3-3-2-2-1-3-1-3-2-4-4-2-4v-5a106 106 0 0 1 2-11v-3h3l1-2a117 117 0 0 1 1-4l2 6 1 1v-2l1-5v-5l1-1 3 3 3 2 1-1-3-2v-2l3-3 2-8 1-9v-7l-2-7v-2l2 1c0 1 1 1 1-1l-1-8v-3l1-2v-5l1-1-1-4-2-6-1-2h3l-2-3-2-3-2-1h4v-1a31 31 0 0 0-7-8l-4-3-3-3-4-3-4-1-4-2v-1h2v-1l-2-1-4-2-6 1h-5l-7-1-8-3-10-2-8 1a89 89 0 0 0-17 7l-7 6-6 7-6 8-5 7-4 6-2 6-2 7-2 7-1 5 1-1 2-2 1-2v3l-1 5v3l1-1h1l1 4 2 10 2 6 3 4 1 3 1 2 3 5 5 6 3 3h2v2l1 2 1 2 1-1 1 1 1 2 1 2h1l2 1 2 3 4 3 5 3 3 1-2 2-7 2-6 1h-10l-6 2-9 3-6 4-6 9-6 11-4 6Z"/><path fill="#25334F" d="M319 487h-1l-2 4-2 7-1 7v7l-3 4-3 7v11l-3 5a168 168 0 0 0-12 20l-4 10-4 9-4 9-5 8-6 10-3 6-1 2-2 2-3-3c-1-2-2-5-6-8-3-4-9-8-14-12l-9-7-6-5c-1-2-3-5-7-8-3-2-8-5-14-6-5-2-10-2-15-2-4-1-8 0-11 1l-8 3a40 40 0 0 0-17 21l-3 13-2 5-3 1-2 1-3 1h-2l-1 1-1 1h-1l-1 1-1 1-4 3h-1l-1 1h1v1h-1l-3 1-1 1h-1 1v1h2l-3 1-1 1h-1v1h3v1h-1v1h1a31 31 0 0 0 0 2c-1 5-2 10-1 14l4 13 5 12a32 32 0 0 1-1 22l-4 14-2 16 1 7v1l1 2 1 1-1-3h3l7-4 6-6c2-1 2-2 3-1l-1 6c0 3-1 5-3 8l-4 4-4 3-1 1 5-1 5-4 1-2 1 3-3 7-1 6 1 9-1 6-4 5-3 8-1 8-3 8-2 11-4 9-3 3-4 5v7c0 2 0 3-2 5l-8 3-10 6c-3 3-4 5-4 7s1 3 2 3l4-2h3v2l2 2c1 1 3 0 4-1l3-2h4l3 1 2 4 3-1 2-2c0-1 0-2 2-2l5-2 7-2 7-2c3 0 4-2 5-3v-5c-1-1 0-3 1-4 0-2 2-3 3-4l5-4 6-6 4-8c1-1 2-2 3-1l4 3c1 2 3 4 8 6a114 114 0 0 0 33 10l15 1h14l16 1 20-1c7 0 12-2 17-4 4-2 7-4 9-7l5-10 3-10 2-6 4-6c2-2 2-4 2-6l-2-9-6-13-5-11-6-12-4-13-5-13-3-7-2-4-3-8a65 65 0 0 1-3-13l1-4 3-5 4-4 2-4 2-6 3-4 1-6 2-6 2-8 2-8 3-9 3-9 2-7 2-6 2-7 2-7 1-6 2-5 1-5 1-5 1-6-1-4v-3l2-5 4-5a117 117 0 0 0 7-10l-1-1-1-2-3-2-1-2-3-2-3-3-3-2-3-2-1-3v-17h-1ZM147 618h2a8 8 0 0 1 1 0v1h1a8 8 0 0 1 1 2 25 25 0 0 1 1 3v1a227 227 0 0 0 9 20 33 33 0 0 0 7 7 45 45 0 0 0 8 6h2a69 69 0 0 1 3 3h1v1h-1v1a5 5 0 0 1-1 1 10 10 0 0 1-1 1 24 24 0 0 1-2 1l-3 2a99 99 0 0 0-8 5 42 42 0 0 0-4 4l-1 1a68 68 0 0 1-3 3 3 3 0 0 1-1 0 1 1 0 0 1-1 0v-1a7 7 0 0 1 0-1v-1l1-2a47 47 0 0 0 1-3v-3a139 139 0 0 0 0-2v-4h-1v-1a28 28 0 0 0-2-5v-2a67 67 0 0 0-3-7l-1-1a512 512 0 0 1-7-17v-2a30 30 0 0 1-1-1v-3a16 16 0 0 1 0-1v-1a10 10 0 0 1 0-1v-1l1-1v-2h2Zm-10 67h1l2 5 3 10v7l-6 8a1125 1125 0 0 0-7 9v1l-4 2v-13a64 64 0 0 1 8-26l3-3Z"/></g></g><defs><linearGradient id="d" x1="732.5" x2="732.5" y1="597.4" y2="-600.5" gradientUnits="userSpaceOnUse"><stop offset=".2" stop-color="#E4F5D5"/><stop offset=".9" stop-color="#00A7DB"/></linearGradient><linearGradient id="f" x1="880.3" x2="614" y1="-36.4" y2="791" gradientUnits="userSpaceOnUse"><stop offset=".1" stop-color="#CFEBB0" stop-opacity=".4"/><stop offset="1" stop-color="#6D888A"/></linearGradient><linearGradient id="g" x1="830" x2="633" y1="349.9" y2="954.6" gradientUnits="userSpaceOnUse"><stop offset=".1" stop-color="#A1DBBA"/><stop offset=".9" stop-color="#424E69"/></linearGradient><linearGradient id="h" x1="604.3" x2="308.1" y1="-49.8" y2="286.8" gradientUnits="userSpaceOnUse"><stop offset=".1" stop-color="#CFEBB0"/><stop offset=".9" stop-color="#799F99"/></linearGradient><linearGradient id="i" x1="793.1" x2="540.4" y1="141.2" y2="264.2" gradientUnits="userSpaceOnUse"><stop offset=".1" stop-color="#CFEBB0"/><stop offset=".9" stop-color="#799F99"/></linearGradient><linearGradient id="j" x1="1061" x2="746.1" y1="18" y2="333.3" gradientUnits="userSpaceOnUse"><stop offset=".1" stop-color="#CFEBB0"/><stop offset=".9" stop-color="#799F99"/></linearGradient><linearGradient id="k" x1="830.7" x2="1004.7" y1="-9.4" y2="316.1" gradientUnits="userSpaceOnUse"><stop offset=".1" stop-color="#CFEBB0"/><stop offset=".9" stop-color="#799F99"/></linearGradient><linearGradient id="l" x1="862" x2="1264.7" y1="135.1" y2="293.5" gradientUnits="userSpaceOnUse"><stop offset=".1" stop-color="#CFEBB0"/><stop offset=".9" stop-color="#799F99"/></linearGradient><linearGradient id="m" x1="906.7" x2="971.7" y1="83.5" y2="83.5" gradientUnits="userSpaceOnUse"><stop offset=".1" stop-color="#CFEBB0" stop-opacity=".4"/><stop offset=".9" stop-color="#799F99"/></linearGradient><linearGradient id="n" x1="989.5" x2="1023.1" y1="249.5" y2="249.5" gradientUnits="userSpaceOnUse"><stop offset=".1" stop-color="#CFEBB0" stop-opacity=".4"/><stop offset=".9" stop-color="#799F99"/></linearGradient><linearGradient id="o" x1="1143.8" x2="1200.2" y1="265.1" y2="265.1" gradientUnits="userSpaceOnUse"><stop offset=".1" stop-color="#CFEBB0" stop-opacity=".4"/><stop offset=".9" stop-color="#799F99"/></linearGradient><linearGradient id="p" x1="624.4" x2="702.3" y1="281.9" y2="281.9" gradientUnits="userSpaceOnUse"><stop offset=".1" stop-color="#CFEBB0" stop-opacity=".4"/><stop offset=".9" stop-color="#799F99"/></linearGradient><linearGradient id="q" x1="479.5" x2="614.5" y1="268.6" y2="268.6" gradientUnits="userSpaceOnUse"><stop offset=".1" stop-color="#CFEBB0" stop-opacity=".4"/><stop offset=".9" stop-color="#799F99"/></linearGradient><linearGradient id="r" x1="-351.2" x2="1099.5" y1="1025.7" y2="469.3" gradientUnits="userSpaceOnUse"><stop offset=".2" stop-color="#537A6C"/><stop offset=".9" stop-color="#72A078"/></linearGradient><linearGradient id="s" x1="-88.1" x2="538.3" y1="717.5" y2="477.3" gradientUnits="userSpaceOnUse"><stop offset=".2" stop-color="#679686"/><stop offset=".9" stop-color="#8CC493"/></linearGradient><linearGradient id="t" x1="679.8" x2="1127.6" y1="715" y2="543.3" gradientUnits="userSpaceOnUse"><stop offset=".2" stop-color="#679686"/><stop offset=".9" stop-color="#8CC493"/></linearGradient><linearGradient id="u" x1="596.6" x2="733" y1="643.3" y2="591" gradientUnits="userSpaceOnUse"><stop offset=".2" stop-color="#679686"/><stop offset=".9" stop-color="#8CC493"/></linearGradient><linearGradient id="v" x1="208.6" x2="690.7" y1="102.7" y2="17.3" gradientUnits="userSpaceOnUse"><stop offset=".3" stop-color="#23314D"/><stop offset=".6" stop-color="#77AA78"/><stop offset="1" stop-color="#D6E09D"/></linearGradient><linearGradient id="w" x1="1509.5" x2="974.2" y1="-59.8" y2="131" gradientUnits="userSpaceOnUse"><stop offset=".3" stop-color="#23314D"/><stop offset=".6" stop-color="#77AA78"/><stop offset="1" stop-color="#D6E09D"/></linearGradient><linearGradient id="x" x1="439.1" x2="611.8" y1="118.9" y2="75.6" gradientUnits="userSpaceOnUse"><stop offset=".2" stop-color="#77AA78"/><stop offset="1" stop-color="#D6E09D"/></linearGradient><linearGradient id="y" x1="405.5" x2="153.3" y1="60.6" y2="468.5" gradientUnits="userSpaceOnUse"><stop offset=".1" stop-color="#23314D"/><stop offset=".7" stop-color="#48576E"/></linearGradient><linearGradient id="z" x1="559.3" x2="307.1" y1="155.7" y2="563.6" gradientUnits="userSpaceOnUse"><stop offset=".1" stop-color="#23314D"/><stop offset=".7" stop-color="#48576E"/></linearGradient><linearGradient id="A" x1="593.6" x2="868.3" y1="252.2" y2="252.2" gradientUnits="userSpaceOnUse"><stop offset=".1" stop-color="#23314D"/><stop offset=".7" stop-color="#48576E"/></linearGradient><linearGradient id="G" x1="1080.6" x2="1067.4" y1="427.3" y2="26.2" gradientUnits="userSpaceOnUse"><stop offset=".1" stop-color="#23314D"/><stop offset=".7" stop-color="#48576E"/></linearGradient><linearGradient id="H" x1="1069.8" x2="1105.6" y1="450.1" y2="450.1" gradientUnits="userSpaceOnUse"><stop offset=".1" stop-color="#151E2E"/><stop offset="1" stop-color="#23314D"/></linearGradient><linearGradient id="I" x1="1059.5" x2="1083.5" y1="218.6" y2="218.6" gradientUnits="userSpaceOnUse"><stop offset=".1" stop-color="#151E2E"/><stop offset="1" stop-color="#23314D"/></linearGradient><linearGradient id="J" x1="1049.9" x2=".8" y1="557" y2="557" gradientUnits="userSpaceOnUse"><stop offset=".1" stop-color="#151E2E"/><stop offset="1" stop-color="#23314D"/></linearGradient><linearGradient id="M" x1="450.4" x2="1122.6" y1="1349.1" y2="-92.7" gradientUnits="userSpaceOnUse"><stop offset=".1" stop-color="#23314D"/><stop offset=".5" stop-color="#557E5C"/><stop offset=".8" stop-color="#80AAA6"/></linearGradient><linearGradient id="N" x1="582.6" x2="823.1" y1="952.4" y2="352.3" gradientUnits="userSpaceOnUse"><stop offset=".2" stop-color="#324A35"/><stop offset=".9" stop-color="#757A5A" stop-opacity=".5"/></linearGradient><linearGradient id="O" x1="952.2" x2="1191.4" y1="981.6" y2="384.7" gradientUnits="userSpaceOnUse"><stop offset=".2" stop-color="#324A35"/><stop offset=".9" stop-color="#757A5A" stop-opacity=".5"/></linearGradient><linearGradient id="P" x1="40.9" x2="303.2" y1="1087.3" y2="432.6" gradientUnits="userSpaceOnUse"><stop offset=".2" stop-color="#324A35"/><stop offset=".9" stop-color="#757A5A" stop-opacity=".1"/></linearGradient><linearGradient id="Q" x1="823.9" x2="1124.4" y1="966.1" y2="216.4" gradientUnits="userSpaceOnUse"><stop offset=".2" stop-color="#557E5C"/><stop offset=".9" stop-color="#DAE3A8" stop-opacity=".5"/></linearGradient><linearGradient id="R" x1="131.3" x2="262.5" y1="766.1" y2="438.7" gradientUnits="userSpaceOnUse"><stop offset=".2" stop-color="#557E5C"/><stop offset=".9" stop-color="#DAE3A8" stop-opacity=".5"/></linearGradient><linearGradient id="S" x1="1034" x2="1070.4" y1="756.7" y2="665.9" gradientUnits="userSpaceOnUse"><stop offset=".2" stop-color="#557E5C"/><stop offset=".9" stop-color="#DAE3A8" stop-opacity=".5"/></linearGradient><linearGradient id="U" x1="852.3" x2="956.1" y1="504.7" y2="504.7" gradientUnits="userSpaceOnUse"><stop offset=".1" stop-color="#151E2E"/><stop offset="1" stop-color="#23314D"/></linearGradient><linearGradient id="Y" x1="370.8" x2="404.6" y1="510.8" y2="510.8" gradientUnits="userSpaceOnUse"><stop offset=".1" stop-color="#151E2E"/><stop offset="1" stop-color="#23314D"/></linearGradient><linearGradient id="aa" x1="-431.4" x2="865.8" y1="165.5" y2="-64.3" gradientUnits="userSpaceOnUse"><stop offset=".3" stop-color="#23314D"/><stop offset=".5" stop-color="#77AA78"/><stop offset="1" stop-color="#D6E09D"/></linearGradient><linearGradient id="ab" x1="1455.3" x2="775.2" y1="-434.9" y2="329.6" gradientUnits="userSpaceOnUse"><stop offset=".3" stop-color="#23314D"/><stop offset=".5" stop-color="#77AA78"/><stop offset="1" stop-color="#D6E09D"/></linearGradient><linearGradient id="ac" x1="145.1" x2="591.3" y1="133.8" y2="65.1" gradientUnits="userSpaceOnUse"><stop offset=".2" stop-color="#77AA78"/><stop offset="1" stop-color="#D6E09D"/></linearGradient><linearGradient id="ad" x1="1157.6" x2="806.8" y1="36.8" y2="50.3" gradientUnits="userSpaceOnUse"><stop offset=".2" stop-color="#77AA78"/><stop offset="1" stop-color="#D6E09D"/></linearGradient><linearGradient id="af" x1="669.2" x2="801.9" y1="504.2" y2="504.2" gradientUnits="userSpaceOnUse"><stop offset=".1" stop-color="#151E2E"/><stop offset="1" stop-color="#23314D"/></linearGradient><linearGradient id="ag" x1="591.3" x2="671.5" y1="117.8" y2="117.8" gradientUnits="userSpaceOnUse"><stop offset=".1" stop-color="#151E2E"/><stop offset="1" stop-color="#23314D"/></linearGradient><linearGradient id="ah" x1="693.9" x2="701.1" y1="507.8" y2="507.8" gradientUnits="userSpaceOnUse"><stop offset=".1" stop-color="#151E2E"/><stop offset="1" stop-color="#23314D"/></linearGradient><linearGradient id="aj" x1="1194.1" x2="1227.3" y1="769.1" y2="-22.1" gradientUnits="userSpaceOnUse"><stop offset=".1" stop-color="#1A263A"/><stop offset="1" stop-color="#2A3C5C"/></linearGradient><linearGradient id="ak" x1="1287.6" x2="1317.1" y1="913.9" y2="212.8" gradientUnits="userSpaceOnUse"><stop offset=".1" stop-color="#151E2E"/><stop offset="1" stop-color="#23314D"/></linearGradient><linearGradient id="al" x1="1185.7" x2="1276.8" y1="-504" y2="162.3" gradientUnits="userSpaceOnUse"><stop offset=".1" stop-color="#151E2E"/><stop offset="1" stop-color="#23314D"/></linearGradient><linearGradient id="am" x1="1096.5" x2="1181.1" y1="-504.1" y2="115" gradientUnits="userSpaceOnUse"><stop offset=".1" stop-color="#151E2E"/><stop offset="1" stop-color="#23314D"/></linearGradient><linearGradient id="an" x1="1355.8" x2="1399.4" y1="916.6" y2="-120.7" gradientUnits="userSpaceOnUse"><stop offset=".1" stop-color="#151E2E"/><stop offset="1" stop-color="#23314D"/></linearGradient><linearGradient id="ao" x1="1369.7" x2="1379.7" y1="296.8" y2="173.7" gradientUnits="userSpaceOnUse"><stop offset=".1" stop-color="#151E2E"/><stop offset="1" stop-color="#23314D"/></linearGradient><linearGradient id="ap" x1="1131" x2="1140.8" y1="274" y2="41.3" gradientUnits="userSpaceOnUse"><stop offset=".1" stop-color="#37507A"/><stop offset="1" stop-color="#3B5482"/></linearGradient><linearGradient id="aq" x1="1168.4" x2="1170.9" y1="209.9" y2="150.5" gradientUnits="userSpaceOnUse"><stop offset=".1" stop-color="#37507A"/><stop offset="1" stop-color="#3B5482"/></linearGradient><linearGradient id="ar" x1="1206.9" x2="1223.2" y1="789.5" y2="402.8" gradientUnits="userSpaceOnUse"><stop offset=".1" stop-color="#37507A"/><stop offset="1" stop-color="#3B5482"/></linearGradient><linearGradient id="as" x1="1195.3" x2="1186.5" y1="278" y2="249.8" gradientUnits="userSpaceOnUse"><stop offset=".1" stop-color="#37507A"/><stop offset="1" stop-color="#3B5482"/></linearGradient><linearGradient id="at" x1="1224" x2="1226" y1="765.8" y2="716.5" gradientUnits="userSpaceOnUse"><stop offset=".1" stop-color="#37507A"/><stop offset="1" stop-color="#3B5482"/></linearGradient><linearGradient id="au" x1="1230.5" x2="1232.9" y1="500.8" y2="444.1" gradientUnits="userSpaceOnUse"><stop offset=".1" stop-color="#37507A"/><stop offset="1" stop-color="#3B5482"/></linearGradient><linearGradient id="av" x1="1236.9" x2="1243.2" y1="158.9" y2="9.1" gradientUnits="userSpaceOnUse"><stop offset=".1" stop-color="#37507A"/><stop offset="1" stop-color="#3B5482"/></linearGradient><linearGradient id="aw" x1="-85.8" x2="403.6" y1="775.9" y2="3.3" gradientUnits="userSpaceOnUse"><stop offset=".1" stop-color="#151E2E"/><stop offset="1" stop-color="#2A3F5E"/></linearGradient><linearGradient id="ax" x1="-226" x2="415.2" y1="603.6" y2="293.7" gradientUnits="userSpaceOnUse"><stop offset=".1" stop-color="#151E2E"/><stop offset="1" stop-color="#23314D"/></linearGradient><linearGradient id="ay" x1="103.8" x2="262.2" y1="185.3" y2="108.7" gradientUnits="userSpaceOnUse"><stop offset=".1" stop-color="#151E2E"/><stop offset="1" stop-color="#23314D"/></linearGradient><linearGradient id="az" x1="101.3" x2="370.8" y1="244.5" y2="114.2" gradientUnits="userSpaceOnUse"><stop offset=".1" stop-color="#151E2E"/><stop offset="1" stop-color="#23314D"/></linearGradient><linearGradient id="aA" x1="178.5" x2="416.4" y1="333" y2="-42.7" gradientUnits="userSpaceOnUse"><stop offset=".1" stop-color="#37507A"/><stop offset="1" stop-color="#3B5482"/></linearGradient><linearGradient id="aB" x1="330.1" x2="347.7" y1="57.1" y2="29.2" gradientUnits="userSpaceOnUse"><stop offset=".1" stop-color="#37507A"/><stop offset="1" stop-color="#3B5482"/></linearGradient><linearGradient id="aC" x1="277.5" x2="293.1" y1="197" y2="172.3" gradientUnits="userSpaceOnUse"><stop offset=".1" stop-color="#37507A"/><stop offset="1" stop-color="#3B5482"/></linearGradient><linearGradient id="aD" x1="94.6" x2="302.9" y1="803.7" y2="474.8" gradientUnits="userSpaceOnUse"><stop offset=".1" stop-color="#37507A"/><stop offset="1" stop-color="#3B5482"/></linearGradient><linearGradient id="aE" x1="178.3" x2="193.1" y1="625.4" y2="602.1" gradientUnits="userSpaceOnUse"><stop offset=".1" stop-color="#37507A"/><stop offset="1" stop-color="#3B5482"/></linearGradient><linearGradient id="aF" x1="185.7" x2="200.9" y1="548.2" y2="524.2" gradientUnits="userSpaceOnUse"><stop offset=".1" stop-color="#37507A"/><stop offset="1" stop-color="#3B5482"/></linearGradient><linearGradient id="aG" x1="187.2" x2="208.6" y1="433.1" y2="399.3" gradientUnits="userSpaceOnUse"><stop offset=".1" stop-color="#37507A"/><stop offset="1" stop-color="#3B5482"/></linearGradient><linearGradient id="aH" x1="146.1" x2="220.2" y1="207.6" y2="90.5" gradientUnits="userSpaceOnUse"><stop offset=".1" stop-color="#37507A"/><stop offset="1" stop-color="#3B5482"/></linearGradient><linearGradient id="aI" x1="-498.8" x2="964.7" y1="85.9" y2="-139.4" gradientUnits="userSpaceOnUse"><stop offset=".1" stop-color="#23314D"/><stop offset=".6" stop-color="#77AA78"/><stop offset="1" stop-color="#D6E09D"/></linearGradient><linearGradient id="aJ" x1="1849.3" x2="1165.3" y1="-63.9" y2="63.1" gradientUnits="userSpaceOnUse"><stop offset=".1" stop-color="#23314D"/><stop offset=".6" stop-color="#77AA78"/><stop offset="1" stop-color="#D6E09D"/></linearGradient><radialGradient id="B" cx="0" cy="0" r="1" gradientTransform="matrix(272 0 0 536 1531 342)" gradientUnits="userSpaceOnUse"><stop offset=".1" stop-color="#BAB98D"/><stop offset=".6" stop-color="#37445B"/></radialGradient><radialGradient id="C" cx="0" cy="0" r="1" gradientTransform="matrix(100 0 0 196 516 140)" gradientUnits="userSpaceOnUse"><stop offset=".1" stop-color="#BAB98D"/><stop offset=".6" stop-color="#37445B"/></radialGradient><radialGradient id="D" cx="0" cy="0" r="1" gradientTransform="matrix(129 0 0 255 514 452)" gradientUnits="userSpaceOnUse"><stop offset=".1" stop-color="#BAB98D"/><stop offset=".6" stop-color="#37445B" stop-opacity=".4"/></radialGradient><radialGradient id="E" cx="0" cy="0" r="1" gradientTransform="matrix(129 0 0 254 311 195)" gradientUnits="userSpaceOnUse"><stop offset=".1" stop-color="#BAB98D"/><stop offset=".6" stop-color="#37445B" stop-opacity=".4"/></radialGradient><radialGradient id="F" cx="0" cy="0" r="1" gradientTransform="matrix(59 0 0 116 315 469)" gradientUnits="userSpaceOnUse"><stop offset=".1" stop-color="#BAB98D"/><stop offset=".6" stop-color="#37445B" stop-opacity=".4"/></radialGradient><radialGradient id="K" cx="0" cy="0" r="1" gradientTransform="matrix(350 0 0 380 1019 284)" gradientUnits="userSpaceOnUse"><stop offset=".1" stop-color="#BAB98D"/><stop offset=".6" stop-color="#37445B"/></radialGradient><radialGradient id="L" cx="0" cy="0" r="1" gradientTransform="matrix(189 0 0 189 1091 160)" gradientUnits="userSpaceOnUse"><stop offset=".1" stop-color="#BAB98D"/><stop offset=".6" stop-color="#37445B"/></radialGradient><radialGradient id="T" cx="0" cy="0" r="1" gradientTransform="matrix(456 0 0 360 915 374)" gradientUnits="userSpaceOnUse"><stop offset=".1" stop-color="#BAB98D"/><stop offset=".5" stop-color="#37445B"/><stop offset=".6" stop-color="#323E53"/><stop offset=".8" stop-color="#2A3546"/><stop offset="1" stop-color="#283242"/></radialGradient><radialGradient id="V" cx="0" cy="0" r="1" gradientTransform="matrix(87 10 -23 193 902 370)" gradientUnits="userSpaceOnUse"><stop offset=".1" stop-color="#BAB98D"/><stop offset=".6" stop-color="#37445B"/></radialGradient><radialGradient id="W" cx="0" cy="0" r="1" gradientTransform="matrix(68 8 -27 228 853 191)" gradientUnits="userSpaceOnUse"><stop offset=".1" stop-color="#BAB98D"/><stop offset=".6" stop-color="#37445B"/></radialGradient><radialGradient id="X" cx="0" cy="0" r="1" gradientTransform="matrix(479 0 0 479 426 407)" gradientUnits="userSpaceOnUse"><stop offset=".1" stop-color="#BAB98D"/><stop offset=".6" stop-color="#37445B"/><stop offset=".9" stop-color="#2D384A"/><stop offset="1" stop-color="#283242"/></radialGradient><radialGradient id="Z" cx="0" cy="0" r="1" gradientTransform="matrix(471 0 0 471 449 316)" gradientUnits="userSpaceOnUse"><stop offset=".3" stop-color="#BAB98D"/><stop offset=".6" stop-color="#37445B"/><stop offset=".9" stop-color="#2D384A"/><stop offset="1" stop-color="#283242"/></radialGradient><radialGradient id="ae" cx="0" cy="0" r="1" gradientTransform="matrix(666 0 0 666 802 358)" gradientUnits="userSpaceOnUse"><stop offset=".1" stop-color="#BAB98D"/><stop offset=".5" stop-color="#37445B"/><stop offset=".6" stop-color="#323E53"/><stop offset=".8" stop-color="#2A3546"/><stop offset="1" stop-color="#283242"/></radialGradient><radialGradient id="ai" cx="0" cy="0" r="1" gradientTransform="matrix(388 25 -29 454 762 397)" gradientUnits="userSpaceOnUse"><stop offset=".1" stop-color="#BAB98D"/><stop offset=".6" stop-color="#37445B"/><stop offset=".8" stop-color="#2C3749"/><stop offset="1" stop-color="#283242"/></radialGradient><pattern id="e" width="1" height="1" patternContentUnits="objectBoundingBox"><use xlink:href="#aR" transform="scale(0)"/></pattern><pattern id="aK" width="1" height="1" patternContentUnits="objectBoundingBox"><use xlink:href="#aS" transform="scale(0)"/></pattern><pattern id="aL" width="1" height="1" patternContentUnits="objectBoundingBox"><use xlink:href="#aT" transform="scale(0)"/></pattern><pattern id="aM" width="1" height="1" patternContentUnits="objectBoundingBox"><use xlink:href="#aU" transform="scale(0)"/></pattern><pattern id="aN" width="1" height="1" patternContentUnits="objectBoundingBox"><use xlink:href="#aV" transform="scale(0)"/></pattern><pattern id="aO" width="1" height="1" patternContentUnits="objectBoundingBox"><use xlink:href="#aW" transform="scale(0)"/></pattern><pattern id="aP" width="1" height="1" patternContentUnits="objectBoundingBox"><use xlink:href="#aX" transform="scale(0)"/></pattern><pattern id="aQ" width="1" height="1" patternContentUnits="objectBoundingBox"><use xlink:href="#aX" transform="scale(0)"/></pattern><clipPath id="b"><path fill="#fff" d="M0 0h1422v724c0 55-45 100-100 100H100C45 824 0 779 0 724V0Z"/></clipPath><clipPath id="c"><path fill="#fff" d="M0 0h1465v824H0z"/></clipPath><filter id="a" width="1432" height="834" x="-5" y="-1" color-interpolation-filters="sRGB" filterUnits="userSpaceOnUse"><feFlood flood-opacity="0" result="BackgroundImageFix"/><feColorMatrix in="SourceAlpha" result="hardAlpha" values="0 0 0 0 0 0 0 0 0 0 0 0 0 0 0 0 0 0 127 0"/><feMorphology in="SourceAlpha" radius="1" result="effect1_dropShadow_204_482"/><feOffset dy="4"/><feGaussianBlur stdDeviation="3"/><feComposite in2="hardAlpha" operator="out"/><feColorMatrix values="0 0 0 0 0 0 0 0 0 0 0 0 0 0 0 0 0 0 0.1 0"/><feBlend in2="BackgroundImageFix" result="effect1_dropShadow_204_482"/><feBlend in="SourceGraphic" in2="effect1_dropShadow_204_482" result="shape"/></filter></defs></svg>